<svg xmlns="http://www.w3.org/2000/svg" width="72" height="72" viewBox="0 0 72 72">
  <g id="Group_34759" data-name="Group 34759" transform="translate(-179 -2183)">
    <rect id="Rectangle_1762" data-name="Rectangle 1762" width="72" height="72" rx="10" transform="translate(179 2183)" fill="#d41f14"/>
    <path id="Path_2423" data-name="Path 2423" d="M70.776,22.442a2.644,2.644,0,1,0,0-1.553H65.47V18.052H69.9a.776.776,0,0,0,.543-.222l1.595-1.563a2.648,2.648,0,1,0-1.086-1.109L69.587,16.5H65.47V14.937c0-.038,0-.075,0-.113l3.112-1.151a.776.776,0,0,0,.408-.348l2.158-3.843a2.65,2.65,0,1,0-1.353-.762l-2.019,3.6-2.765,1.023a3,3,0,0,0-2.539-1.4h-.328V8.941a7.941,7.941,0,0,0-15.883,0v2.994H45.93A3,3,0,0,0,43.418,13.3l-2.656-.983-2.019-3.6a2.639,2.639,0,1,0-1.353.762l2.158,3.843a.776.776,0,0,0,.408.348l2.978,1.1c0,.054,0,.108,0,.162V16.5H38.948l-1.369-1.341a2.643,2.643,0,1,0-1.086,1.109l1.595,1.563a.776.776,0,0,0,.543.222h4.3v2.837H37.759a2.643,2.643,0,1,0,0,1.553h5.171v2.837h-4.3a.776.776,0,0,0-.543.222l-1.595,1.563a2.649,2.649,0,1,0,1.086,1.11l1.369-1.341h3.981v1.563c0,.1.005.2.015.3l-2.958.953a.776.776,0,0,0-.439.359L37.39,33.85a2.65,2.65,0,1,0,1.353.762l2.01-3.579,2.744-.884A3,3,0,0,0,45.93,31.4h5.738v3.913l-1.747-2.23a2.739,2.739,0,0,0-3.572-.978,2.64,2.64,0,0,0-.781,3.526,54.591,54.591,0,0,0,3.481,6.5c1.271,2.094,2.113,3.483,2.342,5.447v2.143a.776.776,0,0,0,.776.776H64.448a.776.776,0,0,0,.776-.776V47.764c1.744-2.671,2.009-6.683,2.009-8.872V36.514a2.528,2.528,0,0,0-3.61-2.285,2.528,2.528,0,0,0-3.491-1.564A2.533,2.533,0,0,0,59.3,31.4h3.17a3,3,0,0,0,2.459-1.284l2.854.92,2.01,3.579a2.639,2.639,0,1,0,1.353-.762l-2.158-3.843a.777.777,0,0,0-.439-.359l-3.09-1c.007-.085.012-.171.012-.257V26.831h4.117l1.369,1.341a2.643,2.643,0,1,0,1.086-1.11L70.447,25.5a.776.776,0,0,0-.543-.222H65.47V22.442h5.306ZM73.3,20.575a1.091,1.091,0,1,1-1.091,1.091A1.092,1.092,0,0,1,73.3,20.575Zm0-7.72a1.091,1.091,0,1,1-1.091,1.091A1.092,1.092,0,0,1,73.3,12.855Zm-1.6-7.048A1.091,1.091,0,1,1,70.614,6.9,1.092,1.092,0,0,1,71.705,5.807ZM35.739,6.9A1.091,1.091,0,1,1,36.83,7.989,1.092,1.092,0,0,1,35.739,6.9Zm-.508,8.138a1.091,1.091,0,1,1,1.091-1.091A1.092,1.092,0,0,1,35.231,15.036Zm0,7.72a1.091,1.091,0,1,1,1.091-1.091A1.092,1.092,0,0,1,35.231,22.756Zm0,7.72a1.091,1.091,0,1,1,1.091-1.091A1.092,1.092,0,0,1,35.231,30.477Zm1.6,7.047a1.091,1.091,0,1,1,1.091-1.091A1.092,1.092,0,0,1,36.83,37.524ZM72.8,36.433a1.091,1.091,0,1,1-1.091-1.091A1.092,1.092,0,0,1,72.8,36.433Zm.508-8.138a1.091,1.091,0,1,1-1.091,1.091A1.092,1.092,0,0,1,73.3,28.295ZM47.811,8.941a6.389,6.389,0,0,1,12.778,0v2.994H58.736V8.941a4.536,4.536,0,0,0-9.072,0v2.994H47.811Zm9.372,2.994H51.217V8.941a2.983,2.983,0,0,1,5.966,0Zm-1.918,9.829a2.521,2.521,0,0,0-2.134,0,1.925,1.925,0,1,1,2.134,0ZM52.943,48.937V48.3H63.672v.634ZM61.2,33.981a.976.976,0,0,1,.975.975v2.41a.776.776,0,1,0,1.553,0v-.853a.975.975,0,1,1,1.951,0v2.378c0,1.587-.168,5.422-1.654,7.858H52.834a15.679,15.679,0,0,0-2.46-5.432,53.262,53.262,0,0,1-3.391-6.325c-.313-.7-.248-1.313.166-1.562.363-.219.982-.116,1.548.606l3.135,4a.776.776,0,0,0,1.387-.479v-13.5a.975.975,0,1,1,1.951,0V36.739a.776.776,0,1,0,1.553,0V33.349a.975.975,0,0,1,1.951,0v4.017a.776.776,0,0,0,1.553,0v-2.41a.976.976,0,0,1,.975-.975Zm2.715-5.586a1.45,1.45,0,0,1-1.449,1.448H56.724V24.055a2.511,2.511,0,0,0-.309-1.21,3.478,3.478,0,1,0-4.435,0,2.512,2.512,0,0,0-.312,1.215v5.788H45.93a1.45,1.45,0,0,1-1.449-1.448V14.937a1.45,1.45,0,0,1,1.449-1.448H62.469a1.45,1.45,0,0,1,1.449,1.448V28.395Z" transform="translate(160.412 2193)" fill="#fff"/>
  </g>
</svg>
