<svg xmlns="http://www.w3.org/2000/svg" width="72" height="72" viewBox="0 0 72 72">
  <g id="Group_34760" data-name="Group 34760" transform="translate(-179 -2183)">
    <rect id="Rectangle_1762" data-name="Rectangle 1762" width="72" height="72" rx="10" transform="translate(179 2183)" fill="#d41f14"/>
    <g id="Layer_2" transform="translate(189 2193)">
      <g id="Group_34748" data-name="Group 34748" transform="translate(31.159 31.237)">
        <path id="Path_2408" data-name="Path 2408" d="M51.439,57.2a2.262,2.262,0,0,1-1.65-.707l-9.981-9.981a2.262,2.262,0,0,1-.707-1.65,2.141,2.141,0,0,1,.707-1.65l3.3-3.3a2.279,2.279,0,0,1,3.3,0l9.981,9.981a2.262,2.262,0,0,1,.707,1.65,2.14,2.14,0,0,1-.707,1.65l-3.3,3.3a2.141,2.141,0,0,1-1.65.707Zm-6.681-16.5a.714.714,0,0,0-.55.236l-3.3,3.3a.76.76,0,0,0,0,1.1l9.981,9.981a.76.76,0,0,0,1.1,0l3.3-3.3a.76.76,0,0,0,0-1.1l-9.981-9.981A.714.714,0,0,0,44.759,40.693Z" transform="translate(-39.1 -39.2)" fill="#fff"/>
      </g>
      <g id="Group_34749" data-name="Group 34749" transform="translate(11.431 15.361)">
        <path id="Path_2409" data-name="Path 2409" d="M18.716,25.288H16.358A2.316,2.316,0,0,1,14,22.93V21.358A2.316,2.316,0,0,1,16.358,19h2.358v1.572H16.358a.743.743,0,0,0-.786.786V22.93a.743.743,0,0,0,.786.786h2.358Z" transform="translate(-14 -19)" fill="#fff"/>
      </g>
      <g id="Group_34750" data-name="Group 34750" transform="translate(15.361 12.217)">
        <path id="Path_2410" data-name="Path 2410" d="M19,15h1.572v9.431H19Z" transform="translate(-19 -15)" fill="#fff"/>
      </g>
      <g id="Group_34751" data-name="Group 34751" transform="translate(26.364 15.361)">
        <path id="Path_2411" data-name="Path 2411" d="M33,19h1.572v6.288H33Z" transform="translate(-33 -19)" fill="#fff"/>
      </g>
      <g id="Group_34752" data-name="Group 34752" transform="translate(44.441 15.361)">
        <path id="Path_2412" data-name="Path 2412" d="M56,19h1.572v6.288H56Z" transform="translate(-56 -19)" fill="#fff"/>
      </g>
      <g id="Group_34753" data-name="Group 34753" transform="translate(45.227 16.147)">
        <path id="Path_2413" data-name="Path 2413" d="M60.93,25.5H59.358v-3.93H57V20h2.358a1.577,1.577,0,0,1,1.572,1.572Z" transform="translate(-57 -20)" fill="#fff"/>
      </g>
      <g id="Group_34754" data-name="Group 34754" transform="translate(27.15 16.147)">
        <path id="Path_2414" data-name="Path 2414" d="M41.074,25.5H39.5v-3.93H37.93V25.5H36.358v-3.93H34V20h2.358a1.328,1.328,0,0,1,.786.236A1.328,1.328,0,0,1,37.93,20H39.5a1.577,1.577,0,0,1,1.572,1.572Z" transform="translate(-34 -20)" fill="#fff"/>
      </g>
      <g id="Group_34755" data-name="Group 34755" transform="translate(35.01 16.933)">
        <path id="Path_2415" data-name="Path 2415" d="M47.144,25.716H45.572A1.577,1.577,0,0,1,44,24.144V22.572A1.577,1.577,0,0,1,45.572,21h1.572v1.572H45.572v1.572h1.572Z" transform="translate(-44 -21)" fill="#fff"/>
      </g>
      <g id="Group_34756" data-name="Group 34756" transform="translate(35.01 14.575)">
        <path id="Path_2416" data-name="Path 2416" d="M48.716,25.073H47.144V20.358a.743.743,0,0,0-.786-.786H44V18h2.358a2.316,2.316,0,0,1,2.358,2.358Z" transform="translate(-44 -18)" fill="#fff"/>
      </g>
      <g id="Group_34757" data-name="Group 34757" transform="translate(41.297 16.147)">
        <path id="Path_2417" data-name="Path 2417" d="M52,20h1.572v5.5H52Z" transform="translate(-52 -20)" fill="#fff"/>
      </g>
      <path id="Path_2418" data-name="Path 2418" d="M52,16h1.572v1.572H52Z" transform="translate(-10.703 -2.997)" fill="#fff"/>
      <path id="Path_2419" data-name="Path 2419" d="M34.3,23.22h-1.65a13.876,13.876,0,0,1-2.594,4.716l-.472.55,4.48,4.48-1.1,1.1-4.48-4.48-.55.472a14.93,14.93,0,1,1,4.951-15.483h1.65a16.508,16.508,0,1,0-6.13,17.134l4.558,4.558,3.3-3.3-4.558-4.558A16.08,16.08,0,0,0,34.3,23.22Z" fill="#fff"/>
      <path id="Path_2420" data-name="Path 2420" d="M30.128,24.077a11.784,11.784,0,1,1,.314-8.645h1.65a13.311,13.311,0,1,0-.236,8.645Z" transform="translate(-0.856 -0.856)" fill="#fff"/>
      <g id="Group_34758" data-name="Group 34758" transform="translate(18.505 15.361)">
        <path id="Path_2421" data-name="Path 2421" d="M26.144,25.288a3.144,3.144,0,1,1,3.144-3.144A3.153,3.153,0,0,1,26.144,25.288Zm0-4.716a1.572,1.572,0,1,0,1.572,1.572A1.577,1.577,0,0,0,26.144,20.572Z" transform="translate(-23 -19)" fill="#fff"/>
      </g>
      <path id="Path_2422" data-name="Path 2422" d="M10,25h1.572v1.572H10Z" transform="translate(-1.712 -4.923)" fill="#fff"/>
    </g>
  </g>
</svg>
