<svg xmlns="http://www.w3.org/2000/svg" width="72" height="72" viewBox="0 0 72 72">
  <g id="Group_38040" data-name="Group 38040" transform="translate(-190 -2262)">
    <rect id="Rectangle_16616" data-name="Rectangle 16616" width="72" height="72" rx="7" transform="translate(190 2262)" fill="#d41f14"/>
    <g id="Layer_x0020_1" transform="translate(-1219 2269)">
      <path id="Path_745" data-name="Path 745" d="M1456.405,28.107h-13.736a.734.734,0,0,1,0-1.468h13.736a.734.734,0,1,1,0,1.468Zm6.281,22.113h-34.951a.734.734,0,0,1-.735-.735V7.735a.734.734,0,0,1,.735-.735h34.951a.733.733,0,0,1,.733.735v41.75A.733.733,0,0,1,1462.687,50.22Zm-34.218-1.468h33.483V8.47h-9.44v1.624h7.081a.733.733,0,0,1,.733.735V46.391a.733.733,0,0,1-.733.735h-28.763a.734.734,0,0,1-.735-.735V10.829a.734.734,0,0,1,.735-.735h7.079V8.47h-9.44Zm22.573-36.323,0-3.958h-11.665v3.958Zm-19.479,33.229h27.3V11.564h-6.346V13.2a.743.743,0,0,1-.735.7h-13.133a.735.735,0,0,1-.735-.735v-1.6h-6.346Zm21.9-24.666h-16.5a.735.735,0,0,1-.735-.735V16.713a.735.735,0,0,1,.735-.735h16.5a.734.734,0,0,1,.735.735v3.544A.734.734,0,0,1,1453.462,20.992Zm-15.769-1.47h15.034V17.446h-15.034Zm-2.62,23.842-1.578-1.578a.735.735,0,0,1,1.039-1.039l1.058,1.058,3.2-3.2a.735.735,0,1,1,1.039,1.039l-3.717,3.717A.739.739,0,0,1,1435.073,43.364Zm16.672-3.151h-9.076a.735.735,0,0,1,0-1.47h9.076a.735.735,0,0,1,0,1.47Zm4.66,3.367h-13.736a.735.735,0,0,1,0-1.47h13.736a.735.735,0,0,1,0,1.47Zm-21.332-7.951-1.578-1.578a.735.735,0,1,1,1.039-1.039l1.058,1.058,3.2-3.2a.735.735,0,0,1,1.039,1.039l-3.717,3.717A.739.739,0,0,1,1435.073,35.629Zm16.672-3.151h-9.076a.735.735,0,0,1,0-1.47h9.076a.735.735,0,0,1,0,1.47Zm4.66,3.365h-13.736a.734.734,0,0,1,0-1.468h13.736a.734.734,0,1,1,0,1.468Zm-21.332-7.951-1.578-1.578a.734.734,0,0,1,1.039-1.037l1.058,1.058,3.2-3.2a.734.734,0,0,1,1.039,1.037l-3.717,3.717A.739.739,0,0,1,1435.073,27.892Zm16.672-3.151h-9.076a.734.734,0,0,1,0-1.468h9.076a.734.734,0,0,1,0,1.468Z" transform="translate(0 0)" fill="#fff" fill-rule="evenodd"/>
    </g>
  </g>
</svg>
