<svg xmlns="http://www.w3.org/2000/svg" width="72" height="72" viewBox="0 0 72 72">
  <g id="Group_38047" data-name="Group 38047" transform="translate(-190 -2262)">
    <rect id="Rectangle_16616" data-name="Rectangle 16616" width="72" height="72" rx="7" transform="translate(190 2262)" fill="#d41f14"/>
    <g id="Group_38041" data-name="Group 38041" transform="translate(204.995 2277)">
      <g id="Group_38041-2" data-name="Group 38041" transform="translate(0.005 0)">
        <path id="Path_746" data-name="Path 746" d="M4.848,32.76A8.169,8.169,0,0,1,.831,31.7a1.266,1.266,0,0,1-.505-1.773,8.9,8.9,0,0,0,1.146-6.838C.87,20.676,0,18.641,0,16.082A16.192,16.192,0,0,1,16.465,0a16.276,16.276,0,0,1,15.8,16.119A16.266,16.266,0,0,1,9.938,31.011a8.284,8.284,0,0,1-5.09,1.749ZM3.143,30A5.785,5.785,0,0,0,8.853,28.65a1.247,1.247,0,0,1,1.405-.229,13.726,13.726,0,0,0,19.511-12.3A13.635,13.635,0,0,0,2.5,16.088c-.006,2.43.942,4.372,1.46,6.674A11.134,11.134,0,0,1,3.143,30Z" transform="translate(-0.005 0)" fill="#fff"/>
      </g>
      <g id="Group_38042" data-name="Group 38042" transform="translate(14.886 14.531)">
        <path id="Path_747" data-name="Path 747" d="M165.423,167.241a8.285,8.285,0,0,1-5.09-1.749,16.312,16.312,0,0,1-16.754-2.677,1.248,1.248,0,1,1,1.631-1.888,13.8,13.8,0,0,0,14.8,1.976,1.247,1.247,0,0,1,1.405.229,5.785,5.785,0,0,0,5.711,1.347,11.087,11.087,0,0,1-.461-8.486c.009-.025.018-.05.029-.075a13.775,13.775,0,0,0-2.072-14.1,1.248,1.248,0,0,1,1.915-1.6,16.206,16.206,0,0,1,3.728,10.346,16.016,16.016,0,0,1-1.257,6.29,8.8,8.8,0,0,0,.936,7.559,1.266,1.266,0,0,1-.505,1.773A8.173,8.173,0,0,1,165.423,167.241Z" transform="translate(-143.147 -139.77)" fill="#fff"/>
      </g>
      <g id="Group_38046" data-name="Group 38046" transform="translate(6.887 14.211)">
        <g id="Group_38043" data-name="Group 38043" transform="translate(7.273)">
          <ellipse id="Ellipse_17" data-name="Ellipse 17" cx="1.974" cy="1.973" rx="1.974" ry="1.973" fill="#fff"/>
        </g>
        <g id="Group_38044" data-name="Group 38044">
          <ellipse id="Ellipse_18" data-name="Ellipse 18" cx="1.974" cy="1.973" rx="1.974" ry="1.973" fill="#fff"/>
        </g>
        <g id="Group_38045" data-name="Group 38045" transform="translate(14.546)">
          <ellipse id="Ellipse_19" data-name="Ellipse 19" cx="1.974" cy="1.973" rx="1.974" ry="1.973" fill="#fff"/>
        </g>
      </g>
    </g>
  </g>
</svg>
