<svg xmlns="http://www.w3.org/2000/svg" width="72" height="72" viewBox="0 0 72 72">
  <g id="Group_38049" data-name="Group 38049" transform="translate(-190 -2262)">
    <rect id="Rectangle_16616" data-name="Rectangle 16616" width="72" height="72" rx="7" transform="translate(190 2262)" fill="#d41f14"/>
    <g id="Group_38048" data-name="Group 38048" transform="translate(203 2275)">
      <path id="Path_748" data-name="Path 748" d="M45,3.073a1.379,1.379,0,0,0-2.689,0l-.763,3.355a4.137,4.137,0,0,1-3.117,3.117l-3.355.763a1.379,1.379,0,0,0,0,2.689l3.355.763a4.137,4.137,0,0,1,3.117,3.117l.763,3.355a1.379,1.379,0,0,0,2.689,0l.763-3.355a4.137,4.137,0,0,1,3.117-3.117L52.232,13a1.379,1.379,0,0,0,0-2.689l-3.355-.763A4.137,4.137,0,0,1,45.76,6.428Zm-4.352,8.579a6.9,6.9,0,0,0,3.007-3.007,6.9,6.9,0,0,0,3.007,3.007,6.9,6.9,0,0,0-3.007,3.007,6.9,6.9,0,0,0-3.007-3.007Z" transform="translate(-9.937)" fill="#fff" fill-rule="evenodd"/>
      <path id="Path_749" data-name="Path 749" d="M21.379,16a1.379,1.379,0,0,1,1.379,1.379V46.337a1.379,1.379,0,1,1-2.758,0V17.379A1.379,1.379,0,0,1,21.379,16Z" transform="translate(-5.59 -4.347)" fill="#fff"/>
      <path id="Path_750" data-name="Path 750" d="M4.758,22.379a1.379,1.379,0,1,0-2.758,0V44.442a1.379,1.379,0,0,0,2.758,0Z" transform="translate(0 -5.9)" fill="#fff"/>
      <path id="Path_751" data-name="Path 751" d="M13.758,26.379a1.379,1.379,0,0,0-2.758,0V42.926a1.379,1.379,0,0,0,2.758,0Z" transform="translate(-2.795 -7.142)" fill="#fff"/>
      <path id="Path_752" data-name="Path 752" d="M31.758,23.379a1.379,1.379,0,1,0-2.758,0V44.063a1.379,1.379,0,1,0,2.758,0Z" transform="translate(-8.384 -6.211)" fill="#fff"/>
      <path id="Path_753" data-name="Path 753" d="M39.379,29a1.379,1.379,0,0,1,1.379,1.379V41.41a1.379,1.379,0,0,1-2.758,0V30.379A1.379,1.379,0,0,1,39.379,29Z" transform="translate(-11.179 -8.384)" fill="#fff"/>
    </g>
  </g>
</svg>
