<svg xmlns="http://www.w3.org/2000/svg" width="72" height="72" viewBox="0 0 72 72">
  <g id="Group_38033" data-name="Group 38033" transform="translate(-190 -2262)">
    <rect id="Rectangle_16616" data-name="Rectangle 16616" width="72" height="72" rx="7" transform="translate(190 2262)" fill="#d41f14"/>
    <path id="Path_743" data-name="Path 743" d="M35.409,40.868a4.282,4.282,0,0,0-4.279-7.411L27.284,26.8a3.822,3.822,0,0,0-6.926,3.145c-1.827,4.6-5.693,9.3-10.943,13.3a.9.9,0,0,0-.953-.032L3.554,46.046a7.164,7.164,0,0,0,7.164,12.408L11,58.292l5.413,7.067a2.092,2.092,0,0,0,1.508.831q.1.009.207.009a2.085,2.085,0,0,0,1.426-.557l1.491-1.353a2.13,2.13,0,0,0,.265-2.884l-5.089-6.687c6.045-2.5,11.989-3.479,16.851-2.765a3.821,3.821,0,0,0,6.185-4.425Zm-.139-4.861a2.476,2.476,0,0,1-.765,3.3l-2.471-4.28a2.48,2.48,0,0,1,3.236.985ZM7.145,57.607a5.361,5.361,0,0,1-2.688-10l4.126-2.382,5.358,9.281L9.815,56.891A5.323,5.323,0,0,1,7.145,57.607Zm12.684,5.345-1.491,1.353a.337.337,0,0,1-.494-.045l-5.269-6.879,2.362-1.364L19.871,62.5A.335.335,0,0,1,19.829,62.953Zm-4.578-9.787-4.851-8.4a36.464,36.464,0,0,0,11.044-12.8L31.858,50a36.464,36.464,0,0,0-16.606,3.165Zm21.7-1.981a2.018,2.018,0,0,1-2.753-.738L22.229,29.713a2.018,2.018,0,0,1,.738-2.753,1.991,1.991,0,0,1,1-.268,2.048,2.048,0,0,1,.53.07,2,2,0,0,1,1.225.936L37.691,48.432A2.018,2.018,0,0,1,36.953,51.186Zm.982-16.717a.9.9,0,0,1,.33-1.233l3.624-2.092a.9.9,0,0,1,.9,1.564L39.168,34.8a.9.9,0,0,1-1.233-.33Zm-4.178-5.814,2.207-3.823a.9.9,0,0,1,1.564.9l-2.207,3.823a.9.9,0,0,1-1.564-.9ZM46.2,40.091a.9.9,0,0,1-.9.9H40.881a.9.9,0,0,1,0-1.806H45.3A.9.9,0,0,1,46.2,40.091Z" transform="translate(203.025 2252.62)" fill="#fff"/>
  </g>
</svg>
