<svg id="Group_35002" data-name="Group 35002" xmlns="http://www.w3.org/2000/svg" xmlns:xlink="http://www.w3.org/1999/xlink" width="717.476" height="676.951" viewBox="0 0 717.476 676.951">
  <defs>
    <clipPath id="clip-path">
      <rect id="Rectangle_1803" data-name="Rectangle 1803" width="717.476" height="676.951" fill="none"/>
    </clipPath>
  </defs>
  <rect id="Rectangle_1783" data-name="Rectangle 1783" width="312.675" height="307.985" transform="translate(0.995 0.994)" fill="#fff"/>
  <g id="Group_35001" data-name="Group 35001">
    <g id="Group_35000" data-name="Group 35000" clip-path="url(#clip-path)">
      <path id="Path_2352" data-name="Path 2352" d="M313.671,309.974H.994A1,1,0,0,1,0,308.979V.994A.994.994,0,0,1,.994,0H313.671a.994.994,0,0,1,.994.994V308.979a1,1,0,0,1-.994.995M1.989,307.985H312.676v-306H1.989Z" fill="#010f2d"/>
      <rect id="Rectangle_1784" data-name="Rectangle 1784" width="22.369" height="2.652" transform="translate(29.033 126.778)" fill="#142546"/>
      <rect id="Rectangle_1785" data-name="Rectangle 1785" width="22.369" height="2.652" transform="translate(29.033 147.145)" fill="#142546"/>
      <rect id="Rectangle_1786" data-name="Rectangle 1786" width="22.369" height="2.652" transform="translate(29.033 167.51)" fill="#142546"/>
      <rect id="Rectangle_1787" data-name="Rectangle 1787" width="32.84" height="2.652" transform="translate(29.033 187.877)" fill="#142546"/>
      <rect id="Rectangle_1788" data-name="Rectangle 1788" width="61.351" height="2.652" transform="translate(121.391 126.778)" fill="#142546"/>
      <rect id="Rectangle_1789" data-name="Rectangle 1789" width="38.753" height="2.652" transform="translate(67.093 126.778)" fill="#4970fa"/>
      <rect id="Rectangle_1790" data-name="Rectangle 1790" width="81.914" height="2.652" transform="translate(67.093 147.145)" fill="#ff4301"/>
      <rect id="Rectangle_1791" data-name="Rectangle 1791" width="124.83" height="2.652" transform="translate(122.217 167.51)" fill="#4970fa"/>
      <rect id="Rectangle_1792" data-name="Rectangle 1792" width="39.249" height="2.652" transform="translate(67.093 167.51)" fill="#142546"/>
      <rect id="Rectangle_1793" data-name="Rectangle 1793" width="27.25" height="2.652" transform="translate(77.564 187.877)" fill="#ff4301"/>
      <rect id="Rectangle_1794" data-name="Rectangle 1794" width="151.762" height="2.652" transform="translate(136.117 215.375)" fill="#ff4301"/>
      <rect id="Rectangle_1795" data-name="Rectangle 1795" width="33.077" height="2.652" transform="translate(86.312 215.375)" fill="#142546"/>
      <rect id="Rectangle_1796" data-name="Rectangle 1796" width="34.709" height="2.652" transform="translate(254.665 235.56)" fill="#142546"/>
      <rect id="Rectangle_1797" data-name="Rectangle 1797" width="157.29" height="2.652" transform="translate(79.89 235.56)" fill="#142546"/>
      <rect id="Rectangle_1798" data-name="Rectangle 1798" width="65.972" height="2.652" transform="translate(223.402 255.744)" fill="#142546"/>
      <rect id="Rectangle_1799" data-name="Rectangle 1799" width="26.76" height="2.652" transform="translate(179.155 255.744)" fill="#4970fa"/>
      <rect id="Rectangle_1800" data-name="Rectangle 1800" width="122.257" height="2.652" transform="translate(27.866 255.744)" fill="#142546"/>
      <rect id="Rectangle_1801" data-name="Rectangle 1801" width="312.675" height="36.066" transform="translate(0.995 0.994)" fill="#914444"/>
      <path id="Path_2353" data-name="Path 2353" d="M313.671,38.054H1A.994.994,0,0,1,0,37.06V.994A.994.994,0,0,1,1,0H313.671a.994.994,0,0,1,.994.994V37.06a.994.994,0,0,1-.994.994M1.989,36.065H312.676V1.988H1.989Z" fill="#010f2d"/>
      <path id="Path_2354" data-name="Path 2354" d="M21.392,20.356a4.806,4.806,0,1,1-4.806-4.813,4.8,4.8,0,0,1,4.806,4.813" fill="#fff"/>
      <path id="Path_2355" data-name="Path 2355" d="M50.92,20.356a4.806,4.806,0,1,1-4.806-4.813,4.8,4.8,0,0,1,4.806,4.813" fill="#fff"/>
      <path id="Path_2356" data-name="Path 2356" d="M36.156,20.356a4.806,4.806,0,1,1-4.806-4.813,4.8,4.8,0,0,1,4.806,4.813" fill="#fff"/>
      <path id="Path_2357" data-name="Path 2357" d="M305.884,219.887s-13.049-9.279-31.383,2.6-21.188,44.757-13.6,49.492,24.119,4.544,24.119,4.544l16.3-16.862,8.618-15.391Z" fill="#ff4301"/>
      <path id="Path_2358" data-name="Path 2358" d="M284.666,277.522c-2.558,0-17.093-.2-24.293-4.7-2.732-1.706-4.331-6.422-4.387-12.939-.108-12.734,5.469-30.13,17.973-38.233,18.689-12.106,32.365-2.673,32.5-2.577a.994.994,0,0,1,.406.648l4.054,24.385a1,1,0,0,1-.114.649l-8.618,15.39a1.023,1.023,0,0,1-.153.205l-16.3,16.864a1,1,0,0,1-.7.3h-.366m8.475-60.128c-4.911,0-11.082,1.382-18.1,5.93-11.346,7.352-17.173,23.949-17.066,36.546.048,5.652,1.371,9.97,3.452,11.267,6.6,4.12,20.6,4.383,23.171,4.4l15.918-16.467,8.384-14.973-3.926-23.612a22.812,22.812,0,0,0-11.833-3.086" fill="#010f2d"/>
      <path id="Path_2359" data-name="Path 2359" d="M303.355,256.455c-5.947,6.879-7.232,14.134-13.844,17.264l-28.919-22.8s-2.268-1.286-5.72-3.361c-10.164-6.148-30.523-19.264-32.809-26.934-2.795-9.473,8.847-5.1,11.217-4.107-2.116-1.057-10.737-5.643-10.354-12.836.431-7.716,12.481-.989,13.025-.676-.453-.417-12.572-12.015-7.579-18.466,3.8-4.918,13.4,5.532,14,6.19-.353-.674-5.8-11.339-.852-15.188,7.723-5.97,30.055,27.95,30.617,28.808-.143-.6-3-12.707,4.169-15.847,4.754-2.087,10.69,11.344,14.285,21.04,1.941,5.284,3.2,9.472,3.2,9.472l13.247,13.252c-1.964,5.561,1.289,18.439-3.682,24.194" fill="#fff"/>
      <path id="Path_2360" data-name="Path 2360" d="M289.51,274.715a1,1,0,0,1-.616-.214l-28.859-22.759c-.4-.227-2.555-1.461-5.677-3.337-11.416-6.9-30.911-19.658-33.249-27.5-.833-2.823-.557-4.875.819-6.1,1.267-1.134,3.266-1.3,5.278-1.042-2.889-2.429-5.5-5.838-5.274-10.132a4.5,4.5,0,0,1,2.228-4.03c2.053-1.116,5.108-.49,7.67.426-3.526-4.254-7.991-11.255-4.244-16.094a4.227,4.227,0,0,1,3.262-1.694c2.8-.111,6.2,2.217,8.731,4.4-1.282-3.877-2.146-9.18,1.324-11.88a4.625,4.625,0,0,1,3.719-.831c7.754,1.3,20.444,18.423,25.9,26.268-.3-4.274.271-10.363,5.385-12.6a3.646,3.646,0,0,1,2.992.038c3.642,1.543,7.889,8.8,12.624,21.567,1.668,4.54,2.851,8.32,3.149,9.288l13.072,13.079a.991.991,0,0,1,.234,1.034c-.7,1.991-.681,5.19-.657,8.577.037,5.684.081,12.125-3.209,15.936a50.313,50.313,0,0,0-5.275,7.734c-2.346,3.973-4.562,7.727-8.9,9.779a.984.984,0,0,1-.426.1m-63.9-59.077a3.549,3.549,0,0,0-2.358.643c-.938.839-.647,2.669-.237,4.057,1.567,5.259,13.366,14.868,32.37,26.364,3.432,2.064,5.69,3.344,5.7,3.348a.952.952,0,0,1,.126.084l28.42,22.413c3.434-1.845,5.321-5.043,7.491-8.719a52.6,52.6,0,0,1,5.484-8.022c2.8-3.245,2.76-9.29,2.724-14.623-.022-3.264-.043-6.364.581-8.643l-12.822-12.828a.985.985,0,0,1-.248-.416c-.013-.041-1.28-4.223-3.186-9.415-4.407-11.886-8.5-19.141-11.533-20.425a1.692,1.692,0,0,0-1.418-.048c-6.372,2.79-3.719,14.22-3.6,14.7a1,1,0,0,1-1.8.779c-6.253-9.517-19.944-27.828-27.006-29.008a2.65,2.65,0,0,0-2.171.441c-4.326,3.365,1.069,13.835,1.125,13.941a.994.994,0,0,1-1.617,1.129c-2.278-2.5-7.378-7.177-10.576-7.177-.042,0-.085,0-.127,0a2.205,2.205,0,0,0-1.768.921c-4.44,5.735,7.344,17.016,7.464,17.128a.995.995,0,0,1-1.168,1.6c-2.029-1.163-7.844-3.874-10.346-2.522a2.628,2.628,0,0,0-1.192,2.391c-.327,6.148,6.749,10.363,9.806,11.89a.994.994,0,0,1-.83,1.806,20.914,20.914,0,0,0-7.283-1.791m77.744,40.818h0Z" fill="#010f2d"/>
      <path id="Path_2361" data-name="Path 2361" d="M254.684,206.04a.994.994,0,0,1-.755-.346L241.637,191.4a.995.995,0,0,1,1.508-1.3l12.293,14.29a1,1,0,0,1-.754,1.643" fill="#010f2d"/>
      <path id="Path_2362" data-name="Path 2362" d="M247.587,213.222a.986.986,0,0,1-.616-.215L235.345,203.8a.994.994,0,0,1,1.235-1.559l11.626,9.211a.994.994,0,0,1-.619,1.774" fill="#010f2d"/>
      <path id="Path_2363" data-name="Path 2363" d="M243.515,223.483a.991.991,0,0,1-.5-.136l-10.073-5.9a.994.994,0,0,1,1-1.717l10.074,5.9a.995.995,0,0,1-.5,1.853" fill="#010f2d"/>
      <path id="Path_2364" data-name="Path 2364" d="M266.681,225.43a1,1,0,0,1-.961-.741c-1.592-6.037,5.292-10.382,7.62-11.658l-2.161-8.42a.995.995,0,0,1,1.927-.494l2.357,9.185a.992.992,0,0,1-.536,1.144c-.086.043-8.733,4.242-7.283,9.736a1,1,0,0,1-.708,1.216,1.018,1.018,0,0,1-.255.032" fill="#010f2d"/>
      <path id="Path_2365" data-name="Path 2365" d="M463.075,204.64,441.5,264.6c-30.729,37.644-65.656,94.927-86.443,89.929-33.508-8.038-93.375-81.379-94.156-82.543,25.649,10.147,44.9-30.389,44.985-52.094l47.606,58s33.713-68.476,50.748-76.034c19.144-8.477,50.881-1.372,58.837,2.791" fill="#ff4301"/>
      <path id="Path_2366" data-name="Path 2366" d="M357.707,355.827a12.285,12.285,0,0,1-2.885-.336c-34.31-8.23-94.266-82.238-94.748-82.956a.994.994,0,0,1,1.192-1.478c6.822,2.7,13.575,1.837,20.072-2.564,13.806-9.345,23.492-33.119,23.552-48.609a.994.994,0,0,1,1.763-.627l46.63,56.807c5.009-10.023,34.535-68.017,50.553-75.124,19.107-8.46,50.911-1.78,59.7,2.82a.993.993,0,0,1,.476,1.217l-21.578,59.954a1,1,0,0,1-.166.293c-7.495,9.181-15.368,19.7-22.983,29.883-23.324,31.174-45.429,60.72-61.578,60.72M263.8,273.952c10.885,13.059,61.991,72.529,91.488,79.605,15.065,3.628,39.135-28.537,62.4-59.641,7.592-10.146,15.439-20.635,22.928-29.818l21.218-58.955c-8.752-4.007-39.053-10.415-57.2-2.385-16.512,7.327-49.923,74.883-50.259,75.564a1,1,0,0,1-.778.549,1.02,1.02,0,0,1-.883-.358L306.783,222.55c-1.062,15.936-10.784,38.419-24.33,47.59-6.042,4.09-12.3,5.366-18.654,3.812" fill="#010f2d"/>
      <line id="Line_39" data-name="Line 39" x2="12.447" y2="13.798" transform="translate(353.49 277.883)" fill="#ff4301"/>
      <path id="Path_2367" data-name="Path 2367" d="M365.938,292.675a.984.984,0,0,1-.738-.329l-12.448-13.8a.994.994,0,1,1,1.476-1.331l12.448,13.8a.994.994,0,0,1-.073,1.4.983.983,0,0,1-.665.256" fill="#010f2d"/>
      <path id="Path_2368" data-name="Path 2368" d="M317.711,234.3s8.973,33.549-41.2,55.927" fill="#ff4301"/>
      <path id="Path_2369" data-name="Path 2369" d="M276.515,291.217a.993.993,0,0,1-.405-1.9c48.739-21.74,40.728-54.437,40.641-54.765a.994.994,0,0,1,1.922-.511c.092.343,8.609,34.627-41.753,57.091a.971.971,0,0,1-.4.086" fill="#010f2d"/>
      <line id="Line_40" data-name="Line 40" x2="13.524" y2="15.159" transform="translate(303.721 234.296)" fill="#ff4301"/>
      <path id="Path_2370" data-name="Path 2370" d="M317.245,250.449a.994.994,0,0,1-.742-.333l-13.524-15.159a.994.994,0,1,1,1.484-1.323l13.524,15.159a.995.995,0,0,1-.742,1.656" fill="#010f2d"/>
      <line id="Line_41" data-name="Line 41" x2="11.32" y2="13.929" transform="translate(292.858 258.052)" fill="#ff4301"/>
      <path id="Path_2371" data-name="Path 2371" d="M304.177,272.976a.993.993,0,0,1-.772-.368l-11.319-13.929a.994.994,0,0,1,1.544-1.253l11.319,13.929a.995.995,0,0,1-.772,1.621" fill="#010f2d"/>
      <line id="Line_42" data-name="Line 42" x2="11.338" y2="12.406" transform="translate(275.905 272.376)" fill="#ff4301"/>
      <path id="Path_2372" data-name="Path 2372" d="M287.243,285.777a.992.992,0,0,1-.734-.324l-11.338-12.406a.994.994,0,0,1,1.468-1.342l11.338,12.407a.994.994,0,0,1-.734,1.665" fill="#010f2d"/>
      <path id="Path_2373" data-name="Path 2373" d="M538.536,433.659h11.923l5.311-24.97H543.846Z" fill="#ffdfdf"/>
      <path id="Path_2374" data-name="Path 2374" d="M496.052,433.659h42.483l5.311-24.97H501.362Z" fill="#ffdfdf"/>
      <path id="Path_2375" data-name="Path 2375" d="M472.9,408.69H612.135c10.73,0,20.457-7.9,21.726-17.644l15.79-134.371c1.27-9.745-15.238-17.644-25.968-17.644h-130.4c-10.73,0-20.457,7.9-21.726,17.644L455.77,391.046c-1.269,9.744,6.4,17.644,17.13,17.644" fill="#fff"/>
      <path id="Path_2376" data-name="Path 2376" d="M612.135,409.684H472.9a18.92,18.92,0,0,1-14.332-6.069,15.863,15.863,0,0,1-3.784-12.7l15.789-134.359c1.331-10.218,11.519-18.522,22.714-18.522h130.4c7.385,0,18.317,3.749,23.826,10.023,2.431,2.768,3.513,5.792,3.129,8.744L634.849,391.162c-1.332,10.218-11.521,18.522-22.714,18.522M493.287,240.025c-10.231,0-19.535,7.526-20.74,16.778L456.759,391.162a13.9,13.9,0,0,0,3.3,11.14A16.935,16.935,0,0,0,472.9,407.7H612.135c10.23,0,19.534-7.527,20.74-16.778l15.788-134.359c.315-2.414-.576-4.828-2.648-7.187-4.525-5.153-14.544-9.346-22.332-9.346Z" fill="#010f2d"/>
      <path id="Path_2377" data-name="Path 2377" d="M593.21,408.706h18.946c10.683,0,20.436-7.92,21.707-17.673L649.655,256.65c1.263-9.7-6.426-17.623-17.109-17.623H613.6c10.737,0,18.427,7.921,17.163,17.623L614.971,391.033c-1.27,9.753-11.023,17.673-21.761,17.673" fill="#e9effe"/>
      <path id="Path_2378" data-name="Path 2378" d="M612.156,409.7H593.209a.994.994,0,0,1,0-1.989c10.249,0,19.568-7.539,20.775-16.806l15.791-134.371a13.855,13.855,0,0,0-3.307-11.1,16.974,16.974,0,0,0-12.869-5.412.994.994,0,0,1,0-1.989h18.947a18.889,18.889,0,0,1,14.3,6.076,15.831,15.831,0,0,1,3.79,12.67L634.851,391.151c-1.335,10.233-11.515,18.55-22.7,18.55m-9.531-1.989h9.531c10.217,0,19.512-7.539,20.72-16.806l15.79-134.371a13.871,13.871,0,0,0-3.311-11.112,16.9,16.9,0,0,0-12.809-5.4H622.527a17.2,17.2,0,0,1,5.435,4.1,15.817,15.817,0,0,1,3.788,12.658L615.958,391.151c-.941,7.228-6.309,13.5-13.333,16.561" fill="#010f2d"/>
      <path id="Path_2379" data-name="Path 2379" d="M388.324,673.192a3.562,3.562,0,0,1-3.439,2.577l-82.965-.677a3.542,3.542,0,0,1-3.486-4.01l.373-2.67.268-2.006.222-1.6a9.635,9.635,0,0,1,4.989-7.158l21.033-8.523,1.97-.8,3.79-1.539,1.97-.792,4.069-1.656,1.935-.781,7.59-3.078v-2.39h41.343l.268,28.319.023,2.006Z" fill="#ff4301"/>
      <path id="Path_2380" data-name="Path 2380" d="M384.909,676.764h-.033l-82.965-.677a4.536,4.536,0,0,1-4.463-5.135l.862-6.279a10.663,10.663,0,0,1,5.506-7.9l41.832-16.966v-1.72a1,1,0,0,1,.995-.995h41.343a.994.994,0,0,1,.993.986l.339,35.105a1.032,1.032,0,0,1-.039.286,4.575,4.575,0,0,1-4.37,3.294m-37.271-37.682v1.4a1,1,0,0,1-.621.922l-42.358,17.172a8.63,8.63,0,0,0-4.378,6.373l-.863,6.274a2.552,2.552,0,0,0,.608,2.007,2.5,2.5,0,0,0,1.9.872l82.968.677h.017a2.574,2.574,0,0,0,2.418-1.731L387,639.082Z" fill="#010f2d"/>
      <path id="Path_2381" data-name="Path 2381" d="M388.324,673.192a3.562,3.562,0,0,1-3.439,2.577l-82.965-.677a3.542,3.542,0,0,1-3.486-4.01l.641-4.676h89.179l.023,2.006Z" fill="#fff"/>
      <path id="Path_2382" data-name="Path 2382" d="M344.858,649.168l-1.319,1.376-6.422-6.2,1.94-.783Z" fill="#010f2d"/>
      <path id="Path_2383" data-name="Path 2383" d="M339.067,651.462l-1.281,1.414-6.709-6.088,1.969-.793Z" fill="#010f2d"/>
      <path id="Path_2384" data-name="Path 2384" d="M333.294,653.774,332,655.189l-6.681-6.06,1.969-.8Z" fill="#010f2d"/>
      <path id="Path_2385" data-name="Path 2385" d="M416.3,646.4a5.76,5.76,0,0,0,4.948-2.8,88.025,88.025,0,0,1,151.1,0,5.763,5.763,0,0,0,9.885-5.927,99.552,99.552,0,0,0-170.866,0A5.766,5.766,0,0,0,416.3,646.4" fill="#fff"/>
      <path id="Path_2386" data-name="Path 2386" d="M507.506,450.335v12.6h98.928c6.126,0,11.084-4.159,11.084-9.3v-3.3c0-9.21-8.891-16.679-19.868-16.679H527.375c-10.977,0-19.869,7.469-19.869,16.679" fill="#e9effe"/>
      <path id="Path_2387" data-name="Path 2387" d="M606.433,463.928H507.507a1,1,0,0,1-.995-.995v-12.6c0-9.746,9.359-17.674,20.863-17.674H597.65c11.5,0,20.864,7.928,20.864,17.674v3.3c0,5.677-5.419,10.294-12.081,10.294M508.5,461.939h97.932c5.565,0,10.092-3.725,10.092-8.3v-3.3c0-8.649-8.468-15.685-18.875-15.685H527.375c-10.408,0-18.874,7.036-18.874,15.685Z" fill="#010f2d"/>
      <path id="Path_2388" data-name="Path 2388" d="M373.4,450.335v3.3c0,5.14,4.958,9.3,11.085,9.3H507.506v-12.6c0-9.21,8.891-16.679,19.869-16.679h-134.1c-10.977,0-19.869,7.469-19.869,16.679" fill="#fff"/>
      <path id="Path_2389" data-name="Path 2389" d="M507.506,463.928H384.49c-6.661,0-12.08-4.618-12.08-10.294v-3.3c0-9.746,9.36-17.674,20.864-17.674h134.1a.994.994,0,1,1,0,1.989c-10.407,0-18.873,7.036-18.873,15.685v12.6a1,1,0,0,1-.995.995M393.274,434.649c-10.407,0-18.875,7.036-18.875,15.685v3.3c0,4.58,4.526,8.3,10.091,8.3H506.512v-11.6c0-6.812,4.572-12.735,11.253-15.685Z" fill="#010f2d"/>
      <rect id="Rectangle_1802" data-name="Rectangle 1802" width="11.575" height="132.926" transform="translate(491.009 462.939)" fill="#fff"/>
      <path id="Path_2390" data-name="Path 2390" d="M398.2,647.051a18.529,18.529,0,1,0,18.529-18.529A18.529,18.529,0,0,0,398.2,647.051" fill="#fff"/>
      <path id="Path_2391" data-name="Path 2391" d="M558.333,647.051a18.529,18.529,0,1,0,18.529-18.529,18.529,18.529,0,0,0-18.529,18.529" fill="#fff"/>
      <path id="Path_2392" data-name="Path 2392" d="M567.84,647.051a9.021,9.021,0,1,0,9.021-9.021,9.021,9.021,0,0,0-9.021,9.021" fill="#d41f14"/>
      <path id="Path_2393" data-name="Path 2393" d="M407.709,647.051a9.021,9.021,0,1,0,9.021-9.021,9.021,9.021,0,0,0-9.021,9.021" fill="#d41f14"/>
      <path id="Path_2394" data-name="Path 2394" d="M523.214,616.651a3.561,3.561,0,0,1-.884,4.206l-62.786,54.235a3.543,3.543,0,0,1-5.266-.713l-1.481-2.252-1.122-1.684-.888-1.346a9.643,9.643,0,0,1-.974-8.672l10.181-20.282.949-1.905,1.832-3.656.957-1.9,1.965-3.929.939-1.864,3.672-7.321-1.577-1.8L499.8,590.5l18.888,21.1,1.341,1.491Z" fill="#ff4301"/>
      <path id="Path_2395" data-name="Path 2395" d="M457.228,676.951a4.536,4.536,0,0,1-3.778-2.021l-3.494-5.287a10.654,10.654,0,0,1-1.074-9.567l20.237-40.351-1.136-1.294a1,1,0,0,1,.091-1.4l31.065-27.279a1,1,0,0,1,1.4.084l23.417,26.155a1,1,0,0,1,.159.241,4.568,4.568,0,0,1-1.134,5.38l-62.786,54.235a4.525,4.525,0,0,1-2.965,1.107m12.906-59.084.921,1.049a1,1,0,0,1,.141,1.1l-20.5,40.853a8.637,8.637,0,0,0,.915,7.677l3.492,5.284a2.546,2.546,0,0,0,1.781,1.107,2.462,2.462,0,0,0,2-.6L521.679,620.1a2.573,2.573,0,0,0,.687-2.908l-22.654-25.3Z" fill="#010f2d"/>
      <path id="Path_2396" data-name="Path 2396" d="M523.214,616.651a3.561,3.561,0,0,1-.884,4.206l-62.786,54.235a3.543,3.543,0,0,1-5.266-.713l-2.6-3.936L518.684,611.6l1.341,1.491Z" fill="#fff"/>
      <path id="Path_2397" data-name="Path 2397" d="M474.7,627.279l-.083,1.9-8.919-.422.941-1.87Z" fill="#010f2d"/>
      <path id="Path_2398" data-name="Path 2398" d="M471.863,632.825l-.029,1.908-9.058-.148.955-1.9Z" fill="#010f2d"/>
      <path id="Path_2399" data-name="Path 2399" d="M469.052,638.372l-.036,1.914L460,640.141l.95-1.9Z" fill="#010f2d"/>
      <path id="Path_2400" data-name="Path 2400" d="M493.492,563.816s3.563,19.423-18.544,34.005-37.815,11.869-37.815,11.869l-3.567-31.262,19.2-17.542,8.651-4.495,9.319-6.8Z" fill="#fff"/>
      <path id="Path_2401" data-name="Path 2401" d="M440.523,610.9a22.449,22.449,0,0,1-3.559-.23,1,1,0,0,1-.819-.867l-3.567-31.262a.993.993,0,0,1,.318-.847l19.2-17.542a.923.923,0,0,1,.212-.147l8.585-4.462,9.257-6.752a.99.99,0,0,1,1.114-.04l22.759,14.221a1,1,0,0,1,.451.663c.037.2,3.423,20.243-18.974,35.016-16.277,10.735-29.061,12.249-34.973,12.249m-2.491-2.107c3.313.282,17.538.619,36.369-11.8,19.74-13.02,18.556-29.653,18.176-32.575l-21.8-13.623-8.774,6.4a1.03,1.03,0,0,1-.128.079l-8.536,4.436-18.726,17.11Z" fill="#010f2d"/>
      <path id="Path_2402" data-name="Path 2402" d="M468.733,617.775l1.577,1.8L501.323,592.2l.079-.069c-1.823-1.953-9.7-12.567-17.766-23.5-3.895-5.284-7.843-10.645-11.155-15.123a112.157,112.157,0,0,0-21.449,14.553,123.45,123.45,0,0,0-13.9,13.679l13.831,15.768Z" fill="#fff"/>
      <path id="Path_2403" data-name="Path 2403" d="M470.31,620.565l-.064,0a.994.994,0,0,1-.683-.335l-1.577-1.8h0l-31.6-36.038a.991.991,0,0,1-.008-1.3A125.084,125.084,0,0,1,450.39,567.3a114.179,114.179,0,0,1,21.647-14.684,1,1,0,0,1,1.244.3c2.371,3.208,5.069,6.869,7.841,10.63l3.314,4.495c8.139,11.035,15.916,21.51,17.692,23.412a1,1,0,0,1-.074,1.43l-31.086,27.437a.992.992,0,0,1-.658.249m-.83-3.447.919,1.047L500,592.033c-2.641-3.179-9.758-12.769-17.169-22.815l-3.314-4.5c-2.578-3.5-5.094-6.91-7.34-9.951a113.951,113.951,0,0,0-20.507,14.047,124.435,124.435,0,0,0-13.223,12.915Z" fill="#010f2d"/>
      <path id="Path_2404" data-name="Path 2404" d="M330.441,407.214C316.8,456.421,437.133,609.69,437.133,609.69c3.807-20.909,33.068-49.842,56.359-45.874L419.384,463.145l82.2-45.012-6.914-74.862-36.457,13.5s-117.77,14.393-127.768,50.444" fill="#fff"/>
      <path id="Path_2405" data-name="Path 2405" d="M437.133,610.684a1,1,0,0,1-.782-.38c-4.926-6.273-120.475-154.22-106.867-203.355,9.989-36.026,122.2-50.377,128.489-51.152l36.348-13.458a.994.994,0,0,1,1.336.84l6.914,74.863a1,1,0,0,1-.513.965l-81.2,44.465,73.433,99.754a.993.993,0,0,1-.967,1.569c-23.048-3.928-51.679,25.668-55.213,45.074a.993.993,0,0,1-.979.815M493.8,344.654,458.555,357.7a1.025,1.025,0,0,1-.225.055c-1.17.143-117.224,14.721-126.93,49.723C318.8,452.9,423.655,590.618,436.618,607.405c5.076-19.815,31.485-46.805,54.7-44.864l-72.735-98.806a.994.994,0,0,1,.322-1.462l81.624-44.7Zm-163.353,62.56h0Z" fill="#010f2d"/>
      <path id="Path_2406" data-name="Path 2406" d="M325.609,600.259s10.557-163.883,35.581-194.627c27.947-34.338,134.189-54.645,134.189-54.645l53.2-6.233s.034.949.068,2.643c.11,6.6-1.2,27.7-4.433,47.61a46.286,46.286,0,0,1-45.361,38.874s-46.454-2.284-54.97,1.1C421,444.081,406.39,602.4,406.39,602.4Z" fill="#fff"/>
      <path id="Path_2407" data-name="Path 2407" d="M406.39,603.4h-.026l-80.781-2.141a1,1,0,0,1-.708-.324.987.987,0,0,1-.257-.734c.431-6.706,10.863-164.552,35.8-195.193,27.857-34.223,130.422-54.162,134.775-54.993l53.274-6.243a1.006,1.006,0,0,1,.763.233,1,1,0,0,1,.347.72s.034.953.067,2.658c.105,6.263-1.126,27.369-4.446,47.787a47.161,47.161,0,0,1-46.336,39.711c-.516-.025-46.39-2.237-54.608,1.032-22.068,8.771-36.729,165.006-36.874,166.585a.994.994,0,0,1-.99.9m-79.719-4.1,78.815,2.09c1.352-14.3,15.517-158.372,38.033-167.323,8.618-3.427,53.481-1.265,55.386-1.171a45.165,45.165,0,0,0,44.33-38.041c3.3-20.3,4.524-41.232,4.421-47.433-.012-.619-.025-1.136-.035-1.546l-52.126,6.106c-.988.192-106.135,20.622-133.534,54.285-23.51,28.886-34.332,179.052-35.29,193.033" fill="#010f2d"/>
      <path id="Path_2408" data-name="Path 2408" d="M463.075,204.64l54.683-1.791s19.022-.868,30.594,8.1c28.859,22.34,8.2,163,8.2,163S480.7,390.2,415.449,354.3c0,0-5.678-61.164-2.718-104.2" fill="#ff4301"/>
      <path id="Path_2409" data-name="Path 2409" d="M514.625,378.528c-27.818,0-65.33-4.467-99.656-23.354a.994.994,0,0,1-.511-.779c-.057-.613-5.651-61.737-2.719-104.358a.994.994,0,1,1,1.983.137c-2.776,40.358,2.128,97.435,2.669,103.511,60.813,33.206,131.614,20.9,139.279,19.428,1.507-10.71,19.12-140.439-7.926-161.377-11.143-8.635-29.757-7.9-29.942-7.894l-54.7,1.793a1.056,1.056,0,0,1-1.026-.962,1,1,0,0,1,.962-1.027l54.682-1.792c.782-.031,19.51-.778,31.236,8.31,28.986,22.437,9.424,158.165,8.578,163.932a1,1,0,0,1-.776.827c-.358.077-17.424,3.605-42.138,3.605" fill="#010f2d"/>
      <path id="Path_2410" data-name="Path 2410" d="M325.612,600.254c-.035,4.524,8.488,8.628,21.056,10.878a123.87,123.87,0,0,0,19.307,1.807,114.979,114.979,0,0,0,24.3-1.947c9.84-1.994,16.206-5.352,16.23-9.257v-.059c-.024-3.672-5.7-7.077-14.632-9.408a112.121,112.121,0,0,0-25.72-3.218,123.408,123.408,0,0,0-19.47,1.107c-11.426,1.656-19.506,4.932-20.87,8.931a.094.094,0,0,1-.011.047Z" fill="#fff"/>
      <path id="Path_2411" data-name="Path 2411" d="M368.5,613.956q-1.264,0-2.541-.023a125.772,125.772,0,0,1-19.465-1.823c-13.736-2.458-21.914-6.893-21.875-11.864a1,1,0,0,1,.013-.155l.187-1.119c.006-.035.014-.069.023-.1s.017-.069.028-.1c1.473-4.315,9.371-7.811,21.668-9.594a125.49,125.49,0,0,1,19.632-1.117,114.052,114.052,0,0,1,25.955,3.25c9.886,2.581,15.346,6.262,15.372,10.364-.026,4.446-6.072,8.078-17.026,10.3a112.518,112.518,0,0,1-21.971,1.99m-41.892-13.622c.075,3.724,8.182,7.661,20.236,9.818a123.588,123.588,0,0,0,19.151,1.792,113.789,113.789,0,0,0,24.081-1.928c9.5-1.922,15.413-5.1,15.433-8.287-.02-3.028-5.341-6.267-13.889-8.5a112,112,0,0,0-25.488-3.185,123.865,123.865,0,0,0-19.31,1.1c-11.136,1.615-18.805,4.76-20.051,8.217Z" fill="#010f2d"/>
      <path id="Path_2412" data-name="Path 2412" d="M346.645,638.087v2.39l41.366-.1h.105c-.082-2.67,1-15.844,2.157-29.38.559-6.541,1.131-13.175,1.6-18.725a112.18,112.18,0,0,0-25.72-3.217,123.3,123.3,0,0,0-19.47,1.107l-.012,20.975Z" fill="#fff"/>
      <path id="Path_2413" data-name="Path 2413" d="M346.645,641.471a1,1,0,0,1-.995-.994v-2.392l.035-47.928a.994.994,0,0,1,.854-.984,125.315,125.315,0,0,1,19.629-1.117,114.107,114.107,0,0,1,25.955,3.249.994.994,0,0,1,.737,1.045c-.359,4.277-.781,9.2-1.211,14.222l-.385,4.5c-1.166,13.664-2.234,26.665-2.154,29.267a.992.992,0,0,1-.994,1.024l-41.469.1Zm.994-3.383v1.392l39.489-.1c.113-4.13,1.093-16.034,2.155-28.473l.386-4.505c.4-4.7.8-9.306,1.139-13.381a113.7,113.7,0,0,0-24.677-2.977,123.624,123.624,0,0,0-18.457.979Z" fill="#010f2d"/>
      <line id="Line_43" data-name="Line 43" x2="34.343" y2="284.344" transform="translate(510.776 386.743)" fill="#142546"/>
      <path id="Path_2414" data-name="Path 2414" d="M545.117,672.081a.993.993,0,0,1-.985-.875L509.789,386.862a.994.994,0,0,1,1.973-.239L546.1,670.968a.991.991,0,0,1-.868,1.1.966.966,0,0,1-.12.008" fill="#ffdfdf"/>
      <line id="Line_44" data-name="Line 44" x1="34.343" y2="284.344" transform="translate(418.419 386.743)" fill="#142546"/>
      <path id="Path_2415" data-name="Path 2415" d="M418.421,672.081a.967.967,0,0,1-.12-.008.992.992,0,0,1-.868-1.1l34.342-284.345a.994.994,0,0,1,1.974.239L419.406,671.206a.993.993,0,0,1-.985.875" fill="#ffdfdf"/>
      <line id="Line_45" data-name="Line 45" x2="17.171" y2="284.344" transform="translate(118.518 386.743)" fill="#142546"/>
      <path id="Path_2416" data-name="Path 2416" d="M135.688,672.081a1,1,0,0,1-.992-.935L117.525,386.8a1,1,0,0,1,.933-1.053,1.022,1.022,0,0,1,1.053.934l17.171,284.344a1,1,0,0,1-.933,1.053h-.061" fill="#010f2d"/>
      <line id="Line_46" data-name="Line 46" x1="34.343" y2="284.344" transform="translate(43.332 386.743)" fill="#142546"/>
      <path id="Path_2417" data-name="Path 2417" d="M43.334,672.081a.966.966,0,0,1-.12-.008.992.992,0,0,1-.869-1.1L76.689,386.623a.994.994,0,0,1,1.973.239L44.32,671.206a.994.994,0,0,1-.986.875" fill="#010f2d"/>
      <path id="Path_2418" data-name="Path 2418" d="M558.265,394.625h0a9.889,9.889,0,0,1-9.89,9.889H401.733c-6.29,0-11.38-3.61-11.38-8.052v-1.837a9.889,9.889,0,0,1,9.889-9.889H548.375a9.889,9.889,0,0,1,9.89,9.889" fill="#ffdfdf"/>
      <path id="Path_2419" data-name="Path 2419" d="M548.376,405.508H401.733c-6.823,0-12.374-4.058-12.374-9.047v-1.837a10.9,10.9,0,0,1,10.884-10.884H548.376a10.884,10.884,0,1,1,0,21.768M400.243,385.729a8.9,8.9,0,0,0-8.9,8.895v1.837c0,3.892,4.658,7.058,10.385,7.058H548.376a8.9,8.9,0,1,0,0-17.79Z" fill="#010f2d"/>
      <path id="Path_2420" data-name="Path 2420" d="M42.8,394.62v.009a9.891,9.891,0,0,0,9.889,9.891H475.13a9.891,9.891,0,0,0,9.89-9.891v-.009a9.889,9.889,0,0,0-9.89-9.888H52.688A9.889,9.889,0,0,0,42.8,394.62" fill="#fff"/>
      <path id="Path_2421" data-name="Path 2421" d="M475.13,405.513H52.689A10.9,10.9,0,0,1,41.8,394.629v-.009a10.9,10.9,0,0,1,10.885-10.884H475.13a10.889,10.889,0,0,1,0,21.777M52.689,385.725a8.906,8.906,0,0,0-8.9,8.895v.009a8.906,8.906,0,0,0,8.9,8.895H475.13a8.9,8.9,0,0,0,0-17.8Z" fill="#010f2d"/>
      <path id="Path_2422" data-name="Path 2422" d="M418.7,384.732H301.626V370.2H409.771a8.923,8.923,0,0,1,8.924,8.924Z" fill="#de5d56"/>
      <path id="Path_2423" data-name="Path 2423" d="M418.7,385.727H301.626a1,1,0,0,1-.995-.995V370.2a1,1,0,0,1,.995-.994H406.863a12.841,12.841,0,0,1,12.826,12.827v2.7a1,1,0,0,1-.994.995M302.62,383.738H417.7v-1.709a10.85,10.85,0,0,0-10.837-10.839H302.62Z" fill="#010f2d"/>
      <path id="Path_2424" data-name="Path 2424" d="M355.6,384.735H200.7L176.643,277.746a21.978,21.978,0,0,1,21.442-26.8H307.931A21.977,21.977,0,0,1,329.373,268.1Z" fill="#fff"/>
      <path id="Path_2425" data-name="Path 2425" d="M355.6,384.739h-9.975l-25.1-111.616a18.125,18.125,0,0,0-17.673-14.144H185.091a17.986,17.986,0,0,0-4.411.54,21.838,21.838,0,0,1,17.4-8.566H307.934A21.982,21.982,0,0,1,329.378,268.1Z" fill="#ebf0fe"/>
      <path id="Path_2426" data-name="Path 2426" d="M355.6,385.729H200.7a1,1,0,0,1-.97-.777L175.674,277.963a22.971,22.971,0,0,1,22.411-28.011H307.932a22.843,22.843,0,0,1,22.411,17.931L356.57,384.517a.993.993,0,0,1-.97,1.212M201.5,383.74h152.86L328.4,268.319a20.869,20.869,0,0,0-20.472-16.379H198.085a20.985,20.985,0,0,0-20.471,25.588Z" fill="#010f2d"/>
      <path id="Path_2427" data-name="Path 2427" d="M272,319.027c1.96,8.9-2.86,16.351-10.767,16.648S245.325,329,243.365,320.1s2.861-16.351,10.767-16.648,15.9,6.676,17.865,15.573" fill="#de5d56"/>
      <path id="Path_2428" data-name="Path 2428" d="M260.749,336.678c-8.181,0-16.342-7.223-18.355-16.362-1.093-4.957-.205-9.76,2.437-13.175a12.054,12.054,0,0,1,9.264-4.679c8.367-.312,16.817,7.022,18.874,16.352,1.092,4.957.2,9.759-2.437,13.175a12.057,12.057,0,0,1-9.264,4.679c-.174.007-.347.01-.519.01m-6.126-32.238c-.151,0-.3,0-.453.008a10.1,10.1,0,0,0-7.765,3.909c-2.28,2.948-3.034,7.151-2.069,11.532,1.858,8.438,9.463,15.043,16.857,14.793a10.107,10.107,0,0,0,7.766-3.909c2.278-2.948,3.032-7.151,2.067-11.531-1.82-8.265-9.115-14.8-16.4-14.8" fill="#010f2d"/>
      <path id="Path_2429" data-name="Path 2429" d="M507.886,202.826c32.251-14.272,48.924-.143,58.174,8.533,32.7,30.671,54.184,133.447,37.815,156.284S469.11,388.559,469.11,388.559c3.177-.472,4.567-3.764,4.618-8.5.141-10.079-5.741-26.7-13.141-36.6-3.457-4.657-7.247-7.833-10.921-8.152l91.222-14.877-19.635-70.872" fill="#ff4301"/>
      <path id="Path_2430" data-name="Path 2430" d="M476.7,389.6c-4.23,0-6.94-.039-7.6-.049a1,1,0,0,1-.131-1.979c3.054-.453,3.737-4.341,3.77-7.522.139-9.943-5.789-26.426-12.942-36-3.57-4.806-7.1-7.487-10.211-7.757a.994.994,0,0,1-.075-1.971l90.128-14.7-19.339-69.8a.994.994,0,1,1,1.916-.531l19.636,70.872a.994.994,0,0,1-.8,1.246l-87.223,14.225a25.347,25.347,0,0,1,7.561,7.23c7.5,10.033,13.481,26.728,13.336,37.211-.04,3.784-.879,6.11-2.024,7.517,19.866.089,116.069-.59,130.369-20.53,15.888-22.165-5.479-124.768-37.688-154.979-7.9-7.412-24.349-22.838-57.091-8.349a.994.994,0,1,1-.806-1.817c33.947-15.029,51.043,1.008,59.257,8.716,17.767,16.664,31.07,53.069,37.6,81.582,8.061,35.218,8.2,65.052.345,76.006C590.456,388.06,503.384,389.6,476.7,389.6" fill="#010f2d"/>
      <path id="Path_2431" data-name="Path 2431" d="M473.728,380.062a17.315,17.315,0,0,1-.434,3.929c-.65,2.565-1.99,4.236-4.184,4.568-3.981.587-7.745-1.123-11.113-4.236-.446-.408-.88-.842-1.314-1.3-7.987-8.5-13.485-24.79-13.957-35.889-.026-.676-.039-1.34-.039-1.978.064-4.746,1.2-8.254,3.649-9.313h.013l3.317-.536c3.674.319,7.464,3.5,10.921,8.153.983,1.313,1.939,2.755,2.871,4.286,5.983,9.926,10.4,23.577,10.27,32.317" fill="#ff4301"/>
      <path id="Path_2432" data-name="Path 2432" d="M467.537,389.668c-3.468,0-6.895-1.546-10.214-4.615-.46-.419-.912-.871-1.363-1.348-8.309-8.843-13.759-25.517-14.228-36.53-.026-.7-.039-1.371-.039-2.02.074-5.526,1.544-9.058,4.25-10.226a.956.956,0,0,1,.3-.077l3.265-.528a.874.874,0,0,1,.245-.009c3.747.325,7.661,3.2,11.635,8.55.949,1.271,1.933,2.741,2.921,4.362,6.163,10.224,10.542,24.036,10.415,32.847a18.388,18.388,0,0,1-.462,4.154c-1,3.918-3.27,5.051-5,5.313a11.767,11.767,0,0,1-1.722.127M446.62,336.8c-1.836.889-2.877,3.849-2.938,8.363,0,.612.013,1.265.036,1.928.455,10.644,5.7,26.742,13.69,35.245.414.437.83.856,1.26,1.248,3.41,3.15,6.874,4.5,10.3,3.985,1.674-.252,2.776-1.5,3.367-3.827a16.5,16.5,0,0,0,.4-3.694v-.005c.123-8.481-4.135-21.851-10.127-31.791-.953-1.564-1.9-2.98-2.815-4.2-3.525-4.745-7.012-7.419-10.093-7.745Z" fill="#010f2d"/>
      <path id="Path_2433" data-name="Path 2433" d="M449.666,335.3l-3.317.536a6.536,6.536,0,0,1,3.317-.536" fill="#ff4301"/>
      <path id="Path_2434" data-name="Path 2434" d="M446.348,336.836a.994.994,0,0,1-.4-1.906,7.56,7.56,0,0,1,3.815-.614.994.994,0,0,1,.059,1.971l-3.318.536a.967.967,0,0,1-.16.013" fill="#010f2d"/>
      <path id="Path_2435" data-name="Path 2435" d="M489.246,389.524a.995.995,0,0,1-.588-1.8c8.348-6.086,5.9-18.684,3.7-25.651-4.748-15.03-15.719-28.525-21.038-28.621a.994.994,0,0,1-.976-1.012.963.963,0,0,1,1.012-.977c6.811.125,18.153,14.989,22.9,30.011,4.078,12.91,2.507,22.8-4.424,27.858a1,1,0,0,1-.585.19" fill="#010f2d"/>
      <line id="Line_47" data-name="Line 47" y1="3.446" x2="20.713" transform="translate(471.137 361.707)" fill="#4970fa"/>
      <path id="Path_2436" data-name="Path 2436" d="M471.135,366.147a.995.995,0,0,1-.162-1.976l20.713-3.445a.995.995,0,0,1,.326,1.963L471.3,366.134a1.016,1.016,0,0,1-.164.013" fill="#010f2d"/>
      <path id="Path_2437" data-name="Path 2437" d="M462.072,345.555c.025.036,19.273-5.077,19.273-5.077" fill="#4970fa"/>
      <path id="Path_2438" data-name="Path 2438" d="M461.87,346.439a.6.6,0,0,1-.62-.326.994.994,0,0,1,.264-1.382.984.984,0,0,1,.4-.158c.788-.181,11.847-3.109,19.177-5.056a.994.994,0,0,1,.51,1.922l-9.628,2.552c-7.009,1.854-9.254,2.448-10.1,2.448" fill="#010f2d"/>
      <line id="Line_48" data-name="Line 48" y1="0.721" x2="20.16" transform="translate(473.733 379.337)" fill="#4970fa"/>
      <path id="Path_2439" data-name="Path 2439" d="M473.734,381.052a.995.995,0,0,1-.035-1.989l20.16-.721a1.032,1.032,0,0,1,1.029.959,1,1,0,0,1-.96,1.03l-20.159.721Z" fill="#010f2d"/>
      <path id="Path_2440" data-name="Path 2440" d="M473.728,380.062a17.315,17.315,0,0,1-.434,3.929l-15.3.332-14.851.319s-35.085,6.736-41.923,2.475c-6.265-3.929,5.805-6.813,7.808-7.412-1.9.421-12.389,1.7-15.731-2.539-3.687-4.67,10.819-6.635,10.819-6.635s-16.879-.638-17.275-6.851c-.306-4.669,13.958-4.465,14.8-4.452-.7-.128-12.746-2.5-11.865-7.145,1.365-7.209,33.49-.651,34.307-.485-.485-.255-11.815-6.315-9.327-11.661,2.233-4.81,18.653,2.348,27.928,5.218,1.238.37,2.335.676,3.266.868a75.42,75.42,0,0,0,8.485,1.148c2.755.242,5.792.434,9.02.574,5.983,9.926,10.4,23.577,10.27,32.317" fill="#fff"/>
      <path id="Path_2441" data-name="Path 2441" d="M410.381,389.528c-4.309,0-7.857-.428-9.684-1.566-1.661-1.043-2.409-2.2-2.229-3.443.2-1.347,1.5-2.437,3.329-3.35-3.505-.141-7.334-.925-9.277-3.387a3,3,0,0,1-.61-3.127c.7-1.746,3.274-2.962,5.891-3.773-5.191-.844-11.67-2.773-11.948-7.139a3.175,3.175,0,0,1,.924-2.439c1.6-1.681,5.2-2.454,8.548-2.8-2.355-.884-4.745-2.127-5.873-3.768a3.669,3.669,0,0,1-.651-2.837,3.723,3.723,0,0,1,1.7-2.416c4.9-3.288,20.19-1.269,28.7.194-3.377-2.513-7.115-6.349-5.341-10.157,2.158-4.644,12.642-.987,22.781,2.549,2.3.8,4.47,1.559,6.342,2.138.946.284,2.171.638,3.172.844a73.965,73.965,0,0,0,8.372,1.132c2.707.238,5.727.43,8.975.571a1,1,0,0,1,.81.48c6.16,10.22,10.539,24.031,10.412,32.842a18.349,18.349,0,0,1-.462,4.155,1,1,0,0,1-.944.757l-30.066.648c-2.949.564-20.861,3.893-32.87,3.894m-1.348-10.817a.994.994,0,0,1,.284,1.947l-.659.188c-6.934,1.933-8.128,3.309-8.222,3.958-.053.371.437.92,1.315,1.471,5.337,3.325,31.556-.758,41.208-2.609a.927.927,0,0,1,.167-.018l29.358-.634a17.774,17.774,0,0,0,.25-2.961v-.005c.122-8.352-4.007-21.444-9.854-31.333-3.075-.14-5.942-.325-8.529-.553a76.239,76.239,0,0,1-8.6-1.165c-.848-.175-1.849-.441-3.346-.889-1.915-.593-4.1-1.355-6.418-2.163-7.537-2.629-18.927-6.6-20.323-3.589-1.742,3.743,5.824,8.748,8.887,10.362a.995.995,0,0,1-.661,1.855c-9.148-1.86-27.647-4.55-32.276-1.441a1.792,1.792,0,0,0-.856,1.136,1.7,1.7,0,0,0,.335,1.34c1.731,2.517,8.5,4.236,10.73,4.64a.995.995,0,0,1-.177,1.973h-.014c-5.429-.093-11.7.652-13.41,2.453a1.179,1.179,0,0,0-.384.941c.278,4.337,12.175,5.764,16.321,5.924a.994.994,0,0,1,.1,1.978c-3.923.532-9.776,2.09-10.5,3.883-.054.133-.2.487.328,1.15,2.982,3.78,13.014,2.565,14.736,2.184a1,1,0,0,1,.216-.023m64.262,5.281h0Z" fill="#010f2d"/>
      <path id="Path_2442" data-name="Path 2442" d="M412.591,361.3a.8.8,0,0,1-.1,0l-10.952-1.076a.994.994,0,0,1,.2-1.979l10.951,1.076a.994.994,0,0,1-.1,1.983" fill="#010f2d"/>
      <path id="Path_2443" data-name="Path 2443" d="M404.118,371.519a.995.995,0,0,1,0-1.989l8.673-.037h0a.994.994,0,0,1,0,1.988l-8.672.038Z" fill="#010f2d"/>
      <path id="Path_2444" data-name="Path 2444" d="M409.17,380.658a.994.994,0,0,1-.1-1.984l7.467-.73a.994.994,0,0,1,.194,1.979l-7.467.73a.815.815,0,0,1-.1,0" fill="#010f2d"/>
      <line id="Line_49" data-name="Line 49" y1="3.109" x2="27.496" transform="translate(540.888 317.32)" fill="#ff4301"/>
      <path id="Path_2445" data-name="Path 2445" d="M540.887,321.423a.994.994,0,0,1-.11-1.982l27.5-3.109a1.011,1.011,0,0,1,1.1.876.994.994,0,0,1-.877,1.1L541,321.416a1.08,1.08,0,0,1-.113.007" fill="#010f2d"/>
      <path id="Path_2446" data-name="Path 2446" d="M493.6,229.457c-13.044,3.939-23.893-13.386-23.893-13.386s-14.359,14.8-23.306,11.853,9.41-25.14,9.41-25.14,7.79-.526,12.963,1.094l39.112-1.052s-6.855,24.387-14.286,26.631" fill="#fff"/>
      <path id="Path_2447" data-name="Path 2447" d="M489.635,231.043c-9.9,0-17.76-10.089-20.083-13.418-3.323,3.212-15.241,13.955-23.461,11.243a4.279,4.279,0,0,1-2.923-2.942c-1.952-6.793,10.456-22.058,11.876-23.776a.993.993,0,0,1,.7-.359c.325-.023,7.884-.51,13.167,1.088l38.949-1.048a.964.964,0,0,1,.812.384,1,1,0,0,1,.172.88c-.716,2.55-7.226,24.979-14.956,27.313a14.617,14.617,0,0,1-4.252.635m3.677-2.538.287.952-.287-.952c5.327-1.609,11.025-17.267,13.238-24.648L468.8,204.872a1.225,1.225,0,0,1-.324-.046c-4.258-1.333-10.5-1.153-12.176-1.073-3.839,4.713-12.6,16.838-11.222,21.624a2.284,2.284,0,0,0,1.636,1.6c8.249,2.721,22.14-11.459,22.279-11.6a1.045,1.045,0,0,1,.818-.3,1,1,0,0,1,.738.461c.1.167,10.6,16.636,22.762,12.963" fill="#010f2d"/>
      <path id="Path_2448" data-name="Path 2448" d="M491.058,161.133s1.973,34.854,7.434,41.693L469.95,215.974l-14.139-13.19-1.641-21.329Z" fill="#fff"/>
      <path id="Path_2449" data-name="Path 2449" d="M469.95,216.969a.994.994,0,0,1-.678-.267l-14.14-13.191a1,1,0,0,1-.314-.651l-1.64-21.329a1,1,0,0,1,.511-.948l36.888-20.322a1,1,0,0,1,1.474.815c.019.345,2.016,34.615,7.217,41.13a1,1,0,0,1-.362,1.524l-28.54,13.148a1,1,0,0,1-.416.091m-13.178-14.648,13.368,12.471,26.879-12.383c-4.482-7.78-6.417-33-6.856-39.648l-34.952,19.255Z" fill="#010f2d"/>
      <path id="Path_2450" data-name="Path 2450" d="M471.559,181.046c-8.6,5.386-18.27,8.052-27.34,6.107-22.233-4.767-30.374-24.846-25.486-47.645s28.344-44.253,53.395-35.729c22.36,7.608,29.243,30.338,18.2,62.316" fill="#fff"/>
      <path id="Path_2451" data-name="Path 2451" d="M450.23,188.77a29.679,29.679,0,0,1-6.219-.645c-10.881-2.333-19.041-8.416-23.6-17.591-4.272-8.6-5.19-19.406-2.654-31.234a51.7,51.7,0,0,1,24.224-33.277c9.773-5.541,20.31-6.64,30.463-3.186,9.348,3.18,16.1,8.907,20.07,17.019,5.688,11.623,5.256,27.723-1.252,46.564a.995.995,0,0,1-1.88-.65c6.332-18.328,6.8-33.9,1.347-45.04-3.729-7.62-10.1-13.006-18.924-16.01-9.608-3.268-19.581-2.219-28.843,3.034a49.641,49.641,0,0,0-23.26,31.962c-2.442,11.385-1.581,21.736,2.49,29.934,4.276,8.613,11.965,14.329,22.232,16.53,8.191,1.755,17.641-.365,26.6-5.978a.995.995,0,1,1,1.057,1.686c-7.227,4.525-14.792,6.882-21.857,6.882" fill="#010f2d"/>
      <path id="Path_2452" data-name="Path 2452" d="M488.617,146.173c-3.192-.254-5.772,2.495-8.231,4.661s-6.215,3.887-8.669,1.714c-2.6-2.3-1.3-6.887.965-9.551s5.38-4.788,6.415-8.2a14.436,14.436,0,0,1-14.678-1.26,16.32,16.32,0,0,1-6.413-14.008c-15.009,6.881-33.671,3.739-45.914-7.73-4.919-4.608-9.031-11.393-7.546-18.161.9-4.114,3.745-7.47,6.926-10.028a32.976,32.976,0,0,1,38.448-1.665c4.239-3.146,8.625-6.319,13.654-7.63s10.91-.384,14.369,3.69c3.345,3.939,3.7,9.7,3.885,14.987,8.218-5.089,19.462-3.093,26.414,3.789s9.647,17.835,7.85,27.72-7.7,18.63-15.294,24.709c-5.757,4.61-13.716,7.818-20.1,4.249" fill="#010f2d"/>
      <path id="Path_2453" data-name="Path 2453" d="M478.87,150.864a26.732,26.732,0,0,1,10.408-4.954,9.012,9.012,0,0,1,8.271,2.661c2,2.353,2.087,5.841.98,8.727a13.977,13.977,0,0,1-15.311,9.23" fill="#fff"/>
      <path id="Path_2454" data-name="Path 2454" d="M485.2,167.712a10.336,10.336,0,0,1-2.193-.214.994.994,0,1,1,.427-1.942,13.075,13.075,0,0,0,14.169-8.614c1.088-2.839.771-5.872-.808-7.726a8.037,8.037,0,0,0-7.353-2.324,25.91,25.91,0,0,0-9.91,4.717.995.995,0,0,1-1.319-1.489,27.509,27.509,0,0,1,10.9-5.191,9.918,9.918,0,0,1,9.191,3c2.076,2.436,2.517,6.164,1.15,9.727A15.158,15.158,0,0,1,485.2,167.712" fill="#010f2d"/>
      <path id="Path_2455" data-name="Path 2455" d="M440.742,159.077a.856.856,0,0,1-.087,0c-.525-.045-5.2-.5-7.327-2.431a3.47,3.47,0,0,1-1.2-1.811,3.527,3.527,0,0,1,.506-2.3l6.971-13.755a.994.994,0,1,1,1.774.9l-6.971,13.756a2.114,2.114,0,0,0-.33,1.011c.049.243.4.561.585.732,1.38,1.257,4.914,1.812,6.159,1.921a.994.994,0,0,1-.084,1.985" fill="#010f2d"/>
      <path id="Path_2456" data-name="Path 2456" d="M452.951,144.738a2.957,2.957,0,1,1-2.44-3.628,3.1,3.1,0,0,1,2.44,3.628" fill="#010f2d"/>
      <path id="Path_2457" data-name="Path 2457" d="M431.859,142.649a2.957,2.957,0,1,1-2.44-3.628,3.1,3.1,0,0,1,2.44,3.628" fill="#010f2d"/>
      <path id="Path_2458" data-name="Path 2458" d="M444.6,172.551a8.041,8.041,0,0,1-4.915-1.574A.994.994,0,0,1,440.9,169.4a6.733,6.733,0,0,0,6.3.707,13.262,13.262,0,0,0,5.578-4.22.994.994,0,1,1,1.52,1.282,15.166,15.166,0,0,1-6.433,4.812,9.79,9.79,0,0,1-3.265.57" fill="#010f2d"/>
      <path id="Path_2459" data-name="Path 2459" d="M456.434,140.483a.989.989,0,0,1-.73-.32,7.932,7.932,0,0,0-8.063-2.093.995.995,0,0,1-.619-1.891,9.848,9.848,0,0,1,10.142,2.635.994.994,0,0,1-.73,1.669" fill="#010f2d"/>
      <path id="Path_2460" data-name="Path 2460" d="M436.446,137.971a.986.986,0,0,1-.73-.32,7.927,7.927,0,0,0-8.063-2.1.994.994,0,0,1-.619-1.89,9.844,9.844,0,0,1,10.142,2.636.995.995,0,0,1-.73,1.669" fill="#010f2d"/>
      <path id="Path_2461" data-name="Path 2461" d="M44.467,73.36h3.84V93.268c0,7.9-3.884,10.33-9.005,10.33a12.444,12.444,0,0,1-4.1-.706l.574-3.134a9.162,9.162,0,0,0,3.222.573c3.443,0,5.474-1.544,5.474-7.372Z" fill="#d41f14"/>
      <path id="Path_2462" data-name="Path 2462" d="M54.18,98.433a13.612,13.612,0,0,0,6.886,1.942c3.929,0,6.225-2.074,6.225-5.077,0-2.779-1.59-4.37-5.606-5.914-4.857-1.722-7.859-4.238-7.859-8.432,0-4.635,3.841-8.078,9.625-8.078a13.515,13.515,0,0,1,6.577,1.457l-1.06,3.135a11.835,11.835,0,0,0-5.651-1.413c-4.06,0-5.6,2.428-5.6,4.458,0,2.781,1.81,4.15,5.915,5.738,5.032,1.942,7.592,4.37,7.592,8.741,0,4.59-3.4,8.564-10.418,8.564a15.378,15.378,0,0,1-7.592-1.9Z" fill="#d41f14"/>
      <path id="Path_2463" data-name="Path 2463" d="M681.379,182.447H545.206c-10.43,0-17.426-8.85-15.221-19.253L545.406,90.45c1.993-9.4,10.842-16.689,20.27-16.689H701.848c10.43,0,17.427,8.849,15.221,19.253l-15.42,72.744c-1.994,9.4-10.842,16.689-20.27,16.689" fill="#914444"/>
      <line id="Line_50" data-name="Line 50" x1="8.797" y2="7.078" transform="translate(563.525 87.44)" fill="#fff"/>
      <path id="Path_2464" data-name="Path 2464" d="M563.525,95.512a.995.995,0,0,1-.623-1.769l8.8-7.078a.993.993,0,1,1,1.245,1.548l-8.8,7.079a.982.982,0,0,1-.623.22" fill="#fff"/>
      <line id="Line_51" data-name="Line 51" x2="5.359" y2="7.078" transform="translate(565.244 87.44)" fill="#fff"/>
      <path id="Path_2465" data-name="Path 2465" d="M570.6,95.512a.993.993,0,0,1-.794-.394l-5.359-7.078a.995.995,0,0,1,1.585-1.2l5.359,7.079a.994.994,0,0,1-.791,1.6" fill="#fff"/>
      <line id="Line_52" data-name="Line 52" x2="6.362" transform="translate(575.487 94.518)" fill="#fff"/>
      <path id="Path_2466" data-name="Path 2466" d="M581.849,95.512h-6.363a.994.994,0,0,1,0-1.989h6.363a.994.994,0,0,1,0,1.989" fill="#fff"/>
      <line id="Line_53" data-name="Line 53" x2="12.361" transform="translate(683.137 114.04)" fill="#fff"/>
      <path id="Path_2467" data-name="Path 2467" d="M695.5,115.034H683.137a.994.994,0,1,1,0-1.988H695.5a.994.994,0,1,1,0,1.988" fill="#fff"/>
      <line id="Line_54" data-name="Line 54" x2="29.636" transform="translate(640.197 114.04)" fill="#fff"/>
      <path id="Path_2468" data-name="Path 2468" d="M669.833,115.034H640.2a.994.994,0,1,1,0-1.988h29.636a.994.994,0,1,1,0,1.988" fill="#142546"/>
      <line id="Line_55" data-name="Line 55" x2="47.668" transform="translate(560.271 114.04)" fill="#fff"/>
      <path id="Path_2469" data-name="Path 2469" d="M607.939,115.034H560.271a.994.994,0,1,1,0-1.988h47.668a.994.994,0,0,1,0,1.988" fill="#fff"/>
      <line id="Line_56" data-name="Line 56" x2="26.217" transform="translate(666.598 126.079)" fill="#fff"/>
      <path id="Path_2470" data-name="Path 2470" d="M692.814,127.073H666.6a.994.994,0,1,1,0-1.989h26.216a.994.994,0,0,1,0,1.989" fill="#fff"/>
      <line id="Line_57" data-name="Line 57" x2="16.94" transform="translate(630.929 126.079)" fill="#fff"/>
      <path id="Path_2471" data-name="Path 2471" d="M647.868,127.073h-16.94a.994.994,0,0,1,0-1.989h16.94a.994.994,0,0,1,0,1.989" fill="#fff"/>
      <line id="Line_58" data-name="Line 58" x2="27.711" transform="translate(584.918 126.079)" fill="#fff"/>
      <path id="Path_2472" data-name="Path 2472" d="M612.629,127.073H584.918a.994.994,0,0,1,0-1.989h27.711a.994.994,0,0,1,0,1.989" fill="#142546"/>
      <line id="Line_59" data-name="Line 59" x2="13.665" transform="translate(557.588 126.079)" fill="#fff"/>
      <path id="Path_2473" data-name="Path 2473" d="M571.253,127.073H557.588a.994.994,0,0,1,0-1.989h13.665a.994.994,0,0,1,0,1.989" fill="#fff"/>
      <line id="Line_60" data-name="Line 60" x2="44.519" transform="translate(635.822 138.117)" fill="#fff"/>
      <path id="Path_2474" data-name="Path 2474" d="M680.341,139.111H635.822a.994.994,0,1,1,0-1.989h44.519a.994.994,0,0,1,0,1.989" fill="#fff"/>
      <line id="Line_61" data-name="Line 61" x2="23.411" transform="translate(596.927 138.117)" fill="#fff"/>
      <path id="Path_2475" data-name="Path 2475" d="M620.339,139.111H596.927a.994.994,0,0,1,0-1.989h23.412a.994.994,0,0,1,0,1.989" fill="#fff"/>
      <line id="Line_62" data-name="Line 62" x2="31.964" transform="translate(554.905 138.117)" fill="#fff"/>
      <path id="Path_2476" data-name="Path 2476" d="M586.869,139.111H554.9a.994.994,0,1,1,0-1.989h31.965a.994.994,0,0,1,0,1.989" fill="#fff"/>
      <line id="Line_63" data-name="Line 63" x2="14.086" transform="translate(673.362 150.155)" fill="#fff"/>
      <path id="Path_2477" data-name="Path 2477" d="M687.447,151.149H673.363a.994.994,0,1,1,0-1.988h14.084a.994.994,0,0,1,0,1.988" fill="#142546"/>
      <line id="Line_64" data-name="Line 64" x1="3.329" transform="translate(660.287 150.155)" fill="#fff"/>
      <path id="Path_2478" data-name="Path 2478" d="M663.617,151.149h-3.329a.994.994,0,1,1,0-1.988h3.329a.994.994,0,1,1,0,1.988" fill="#fff"/>
      <line id="Line_65" data-name="Line 65" x2="39.366" transform="translate(611.191 150.155)" fill="#fff"/>
      <path id="Path_2479" data-name="Path 2479" d="M650.556,151.149H611.19a.994.994,0,1,1,0-1.988h39.366a.994.994,0,0,1,0,1.988" fill="#fff"/>
      <line id="Line_66" data-name="Line 66" x2="48.218" transform="translate(552.221 150.155)" fill="#fff"/>
      <path id="Path_2480" data-name="Path 2480" d="M600.438,151.149H552.221a.994.994,0,1,1,0-1.988h48.217a.994.994,0,1,1,0,1.988" fill="#fff"/>
      <line id="Line_67" data-name="Line 67" x2="10.206" transform="translate(674.558 162.193)" fill="#fff"/>
      <path id="Path_2481" data-name="Path 2481" d="M684.764,163.187h-10.2a.994.994,0,1,1,0-1.989h10.2a.994.994,0,0,1,0,1.989" fill="#fff"/>
      <line id="Line_68" data-name="Line 68" x2="28.492" transform="translate(633.433 162.193)" fill="#fff"/>
      <path id="Path_2482" data-name="Path 2482" d="M661.926,163.187H633.433a.994.994,0,0,1,0-1.989h28.493a.994.994,0,0,1,0,1.989" fill="#fff"/>
      <line id="Line_69" data-name="Line 69" x2="39.192" transform="translate(578.458 162.193)" fill="#fff"/>
      <path id="Path_2483" data-name="Path 2483" d="M617.651,163.187H578.458a.994.994,0,0,1,0-1.989h39.193a.994.994,0,0,1,0,1.989" fill="#142546"/>
      <line id="Line_70" data-name="Line 70" x2="12.966" transform="translate(549.538 162.193)" fill="#fff"/>
      <path id="Path_2484" data-name="Path 2484" d="M562.5,163.187H549.537a.994.994,0,0,1,0-1.989H562.5a.994.994,0,0,1,0,1.989" fill="#fff"/>
      <path id="Path_2485" data-name="Path 2485" d="M485.485,28.953a26.264,26.264,0,0,1-26.263,26.526H401.995a2.984,2.984,0,0,0-1.879.666l-17.7,14.338a2.984,2.984,0,0,1-4.863-2.318v-9.7a2.984,2.984,0,0,0-2.984-2.984h-7.789c-14.494,0-26.769-11.451-26.943-25.944A26.265,26.265,0,0,1,366.105,2.964h92.461c14.508,0,26.778,11.483,26.919,25.989" fill="#d41f14"/>
      <path id="Path_2486" data-name="Path 2486" d="M386.986,19.241a34.616,34.616,0,0,1,5.74-.447c2.956,0,5.121.687,6.5,1.924a6.234,6.234,0,0,1,2.029,4.846,6.817,6.817,0,0,1-1.788,4.95,9.6,9.6,0,0,1-7.081,2.544,10.283,10.283,0,0,1-2.406-.207v9.281h-2.99Zm2.99,11.171a10.088,10.088,0,0,0,2.476.24c3.608,0,5.808-1.754,5.808-4.949,0-3.06-2.166-4.538-5.465-4.538a12.507,12.507,0,0,0-2.819.241Z" fill="#fff"/>
      <path id="Path_2487" data-name="Path 2487" d="M408.266,18.965v9.694h11.2V18.965H422.5V42.132h-3.026V31.271h-11.2V42.132h-2.99V18.965Z" fill="#fff"/>
      <path id="Path_2488" data-name="Path 2488" d="M427.691,19.241a34.615,34.615,0,0,1,5.74-.447c2.956,0,5.121.687,6.5,1.924a6.234,6.234,0,0,1,2.029,4.846,6.817,6.817,0,0,1-1.788,4.95,9.6,9.6,0,0,1-7.081,2.544,10.279,10.279,0,0,1-2.406-.207v9.281h-2.99Zm2.99,11.171a10.088,10.088,0,0,0,2.476.24c3.608,0,5.808-1.754,5.808-4.949,0-3.06-2.166-4.538-5.465-4.538a12.507,12.507,0,0,0-2.819.241Z" fill="#fff"/>
      <path id="Path_2489" data-name="Path 2489" d="M97.79,310.192a34.754,34.754,0,1,1-15.007-21.958A34.594,34.594,0,0,1,97.79,310.192" fill="#914444"/>
      <path id="Path_2490" data-name="Path 2490" d="M63.71,353.07a35.841,35.841,0,1,1,7.407-.772,36.082,36.082,0,0,1-7.407.772m.134-69.511a34.071,34.071,0,0,0-6.994.73,33.579,33.579,0,1,0,6.994-.73" fill="#010f2d"/>
      <path id="Path_2491" data-name="Path 2491" d="M42.659,322.66,55.59,312.15l.452,2.156L45.11,322.993l.013.062,13.5,3.562.453,2.156-16.064-4.427Z" fill="#fff"/>
      <path id="Path_2492" data-name="Path 2492" d="M61.368,329.6l3.966-24.48,2.125-.446-4,24.487Z" fill="#fff"/>
      <path id="Path_2493" data-name="Path 2493" d="M86.853,315.182,73.914,325.659l-.452-2.156L84.487,314.8l-.012-.062-13.594-3.542-.454-2.156,16.058,4.394Z" fill="#fff"/>
    </g>
  </g>
</svg>
