<svg xmlns="http://www.w3.org/2000/svg" width="84" height="84" viewBox="0 0 84 84">
  <g id="Group_37692" data-name="Group 37692" transform="translate(-262 -2495)">
    <rect id="Rectangle_16472" data-name="Rectangle 16472" width="84" height="84" rx="6" transform="translate(262 2495)" fill="#d41f14"/>
    <g id="Group_37695" data-name="Group 37695" transform="translate(281 2511.818)">
      <g id="Group_37696" data-name="Group 37696" transform="translate(0 2.182)">
        <g id="Group_37695-2" data-name="Group 37695" transform="translate(0 0)">
          <path id="Path_51268" data-name="Path 51268" d="M43.993,2.182H2.724A2.727,2.727,0,0,0,0,4.906V18.974a.693.693,0,0,0,1.385,0V17.306H45.331v28.47a1.341,1.341,0,0,1-1.339,1.339H2.724a1.341,1.341,0,0,1-1.339-1.339V22.421a.693.693,0,0,0-1.385,0V45.776A2.727,2.727,0,0,0,2.724,48.5H43.993a2.727,2.727,0,0,0,2.724-2.724V4.906A2.727,2.727,0,0,0,43.993,2.182Zm1.339,13.739H1.435V11.408h43.9Zm0-5.9H1.385V4.906A1.34,1.34,0,0,1,2.724,3.567H43.993a1.341,1.341,0,0,1,1.339,1.339v5.116Z" transform="translate(0 -2.182)" fill="#fff"/>
        </g>
      </g>
      <g id="Group_37698" data-name="Group 37698" transform="translate(39.387 4.717)">
        <g id="Group_37697" data-name="Group 37697">
          <path id="Path_51269" data-name="Path 51269" d="M433.722,29.967a2.058,2.058,0,1,0,2.058,2.058A2.061,2.061,0,0,0,433.722,29.967Zm0,2.732a.673.673,0,1,1,.673-.673A.674.674,0,0,1,433.722,32.7Z" transform="translate(-431.664 -29.967)" fill="#fff"/>
        </g>
      </g>
      <g id="Group_37700" data-name="Group 37700" transform="translate(33.809 4.717)">
        <g id="Group_37699" data-name="Group 37699">
          <path id="Path_51270" data-name="Path 51270" d="M372.59,29.967a2.058,2.058,0,1,0,2.058,2.058A2.061,2.061,0,0,0,372.59,29.967Zm0,2.732a.673.673,0,1,1,.673-.673A.674.674,0,0,1,372.59,32.7Z" transform="translate(-370.532 -29.967)" fill="#fff"/>
        </g>
      </g>
      <g id="Group_37702" data-name="Group 37702" transform="translate(28.231 4.717)">
        <g id="Group_37701" data-name="Group 37701">
          <path id="Path_51271" data-name="Path 51271" d="M311.456,29.967a2.058,2.058,0,1,0,2.058,2.058A2.061,2.061,0,0,0,311.456,29.967Zm0,2.732a.673.673,0,1,1,.673-.673A.674.674,0,0,1,311.456,32.7Z" transform="translate(-309.398 -29.967)" fill="#fff"/>
        </g>
      </g>
      <g id="Group_37704" data-name="Group 37704" transform="translate(3.937 4.717)">
        <g id="Group_37703" data-name="Group 37703">
          <path id="Path_51272" data-name="Path 51272" d="M62.808,29.967h-17.6a2.058,2.058,0,1,0,0,4.117h17.6a2.058,2.058,0,0,0,0-4.117Zm0,2.732h-17.6a.673.673,0,1,1,0-1.347h17.6a.673.673,0,0,1,0,1.347Z" transform="translate(-43.149 -29.967)" fill="#fff"/>
        </g>
      </g>
      <g id="Group_37706" data-name="Group 37706" transform="translate(16.381 26.161)">
        <g id="Group_37705" data-name="Group 37705">
          <path id="Path_51273" data-name="Path 51273" d="M180.384,264.987a.849.849,0,0,0,0,1.7.849.849,0,0,0,0-1.7Z" transform="translate(-179.535 -264.987)" fill="#fff"/>
        </g>
      </g>
      <g id="Group_37708" data-name="Group 37708" transform="translate(18.841 21.778)">
        <g id="Group_37707" data-name="Group 37707">
          <path id="Path_51274" data-name="Path 51274" d="M210.576,221.282c-.312,0-.5.375-1.249.375-.862,0-1.224-.425-1.224-1.149v-1c0-.724.362-1.149,1.211-1.149.737,0,.961.35,1.236.35.387,0,.637-.487.637-.787,0-.487-.824-.974-2-.974a2.4,2.4,0,0,0-2.7,2.56v1a2.4,2.4,0,0,0,2.71,2.56c1.174,0,2.061-.524,2.061-1.024A.756.756,0,0,0,210.576,221.282Z" transform="translate(-206.493 -216.949)" fill="#fff"/>
        </g>
      </g>
      <g id="Group_37710" data-name="Group 37710" transform="translate(24.185 21.778)">
        <g id="Group_37709" data-name="Group 37709">
          <path id="Path_51275" data-name="Path 51275" d="M267.773,216.949a2.668,2.668,0,0,0-2.71,2.535v1.024a2.714,2.714,0,0,0,5.419,0v-1.024A2.667,2.667,0,0,0,267.773,216.949Zm1.1,3.559a1.1,1.1,0,1,1-2.2,0v-1.024a1.1,1.1,0,1,1,2.2,0Z" transform="translate(-265.063 -216.949)" fill="#fff"/>
        </g>
      </g>
      <g id="Group_37712" data-name="Group 37712" transform="translate(30.628 21.778)">
        <g id="Group_37711" data-name="Group 37711">
          <path id="Path_51276" data-name="Path 51276" d="M342.279,216.949a2.12,2.12,0,0,0-1.886,1.249,1.714,1.714,0,0,0-1.561-1.249,1.85,1.85,0,0,0-1.648.949v-.375c0-.3-.325-.5-.712-.5-.475,0-.8.2-.8.5v4.92c0,.25.325.512.8.512.437,0,.812-.262.812-.512v-2.959a1.018,1.018,0,0,1,.974-1.124,1.054,1.054,0,0,1,1.024,1.124v2.972c0,.35.425.5.8.5.4,0,.812-.15.812-.5v-2.985a1.027,1.027,0,0,1,.987-1.124,1.041,1.041,0,0,1,1.011,1.136v2.959c0,.25.375.512.8.512s.812-.262.812-.512v-2.959A2.314,2.314,0,0,0,342.279,216.949Z" transform="translate(-335.673 -216.949)" fill="#fff"/>
        </g>
      </g>
      <g id="Group_37714" data-name="Group 37714" transform="translate(16.381 40.221)">
        <g id="Group_37713" data-name="Group 37713">
          <path id="Path_51277" data-name="Path 51277" d="M180.384,419.083a.849.849,0,0,0,0,1.7.849.849,0,0,0,0-1.7Z" transform="translate(-179.535 -419.083)" fill="#fff"/>
        </g>
      </g>
      <g id="Group_37716" data-name="Group 37716" transform="translate(19.041 35.838)">
        <g id="Group_37715" data-name="Group 37715">
          <path id="Path_51278" data-name="Path 51278" d="M211.868,371.045a1.832,1.832,0,0,0-1.673.949v-.375c0-.3-.325-.5-.712-.5-.475,0-.8.2-.8.5v4.92c0,.25.325.512.8.512.437,0,.812-.262.812-.512V373.58a1.062,1.062,0,0,1,1.024-1.124,1.145,1.145,0,0,1,1.086,1.124v2.959c0,.337.425.512.8.512.4,0,.812-.175.812-.512V373.58A2.4,2.4,0,0,0,211.868,371.045Z" transform="translate(-208.684 -371.045)" fill="#fff"/>
        </g>
      </g>
      <g id="Group_37718" data-name="Group 37718" transform="translate(25.346 35.838)">
        <g id="Group_37717" data-name="Group 37717">
          <path id="Path_51279" data-name="Path 51279" d="M282.4,375.417c-.375,0-.712.475-1.536.475-.874,0-1.461-.475-1.461-1.2v-.187h2.535c.562,0,1.161-.05,1.161-1.111a2.439,2.439,0,0,0-2.573-2.348,2.636,2.636,0,0,0-2.735,2.5V374.6c0,1.536,1.249,2.56,3.022,2.56,1.336,0,2.2-.612,2.2-1.036C283.009,375.879,282.772,375.417,282.4,375.417Zm-3-2.21a1.1,1.1,0,0,1,2.185.013c0,.275-.1.337-.362.337H279.4Z" transform="translate(-277.789 -371.046)" fill="#fff"/>
        </g>
      </g>
      <g id="Group_37720" data-name="Group 37720" transform="translate(31.602 33.266)">
        <g id="Group_37719" data-name="Group 37719" transform="translate(0 0)">
          <path id="Path_51280" data-name="Path 51280" d="M349.145,350.07h-.487c-.524,0-.7-.175-.7-.662v-2.735h1.473c.262,0,.412-.287.412-.587s-.15-.587-.412-.587h-1.473v-2.148c0-.3-.4-.5-.812-.5-.375,0-.8.2-.8.5v6.056c0,1.411.812,2.023,2.31,2.023h.487a.681.681,0,1,0,0-1.361Z" transform="translate(-346.348 -342.852)" fill="#fff"/>
        </g>
      </g>
      <g id="Group_37722" data-name="Group 37722" transform="translate(5.229 20.953)">
        <g id="Group_37721" data-name="Group 37721">
          <path id="Path_51281" data-name="Path 51281" d="M64.276,207.911H58.006a.692.692,0,0,0-.693.693v6.271a.692.692,0,0,0,.693.693h6.271a.692.692,0,0,0,.693-.693V208.6A.692.692,0,0,0,64.276,207.911Zm-.693,6.271H58.7V209.3h4.886Z" transform="translate(-57.313 -207.911)" fill="#fff"/>
        </g>
      </g>
      <g id="Group_37724" data-name="Group 37724" transform="translate(5.229 34.805)">
        <g id="Group_37723" data-name="Group 37723">
          <path id="Path_51282" data-name="Path 51282" d="M64.276,359.717H58.006a.692.692,0,0,0-.693.693v6.271a.692.692,0,0,0,.693.693h6.271a.692.692,0,0,0,.693-.693V360.41A.692.692,0,0,0,64.276,359.717Zm-.693,6.271H58.7V361.1h4.886Z" transform="translate(-57.313 -359.717)" fill="#fff"/>
        </g>
      </g>
    </g>
  </g>
</svg>
