<svg xmlns="http://www.w3.org/2000/svg" width="84" height="84" viewBox="0 0 84 84">
  <g id="Group_37692" data-name="Group 37692" transform="translate(-262 -2495)">
    <rect id="Rectangle_16472" data-name="Rectangle 16472" width="84" height="84" rx="6" transform="translate(262 2495)" fill="#d41f14"/>
    <g id="Group_37766" data-name="Group 37766" transform="translate(267.552 2511)">
      <g id="Group_37766-2" data-name="Group 37766" transform="translate(11.448 0)">
        <path id="Path_51354" data-name="Path 51354" d="M141.309,223.256H145.7a.767.767,0,0,0,0-1.534h-4.394a.767.767,0,1,0,0,1.534Z" transform="translate(-127.337 -199.043)" fill="#fff"/>
        <path id="Path_51355" data-name="Path 51355" d="M141.309,259.6h17.846a.767.767,0,0,0,0-1.534H141.309a.767.767,0,1,0,0,1.534Z" transform="translate(-127.337 -231.673)" fill="#fff"/>
        <path id="Path_51356" data-name="Path 51356" d="M274.025,294.417h-4.758a.767.767,0,1,0,0,1.534h4.758a.767.767,0,1,0,0-1.534Z" transform="translate(-242.207 -264.302)" fill="#fff"/>
        <path id="Path_51357" data-name="Path 51357" d="M60.487,5.151,50.557.188a1.8,1.8,0,0,0-1.6,0l-9.93,4.963h0a1.78,1.78,0,0,0-.99,1.6V8.18H27.257a.767.767,0,1,0,0,1.534h10.78v2.333a19.543,19.543,0,0,0,.252,3.2H25.42a.767.767,0,0,0,0,1.534h13.2a15.008,15.008,0,0,0,.763,2.184H25.42a.767.767,0,0,0,0,1.534H40.164a15.091,15.091,0,0,0,.886,1.337q.318.428.672.847h-8.84a.767.767,0,1,0,0,1.534h10.3a34.22,34.22,0,0,0,5.635,4.146,1.786,1.786,0,0,0,1.872,0l.233-.143v18.63H30.854v-1.43a.767.767,0,0,0-1.534,0v5.166a.256.256,0,0,1-.256.256H13.238a.256.256,0,0,1-.256-.256V39.531a.256.256,0,0,1,.256-.256H29.064a.256.256,0,0,1,.256.256v2.3a.767.767,0,0,0,1.534,0v-2.3a1.782,1.782,0,0,0-.059-.446h12.47a.767.767,0,1,0,0-1.534H28.389V35.368H43.266a.767.767,0,0,0,0-1.534H28.357A7.181,7.181,0,0,0,27.8,31.65h7.945a.767.767,0,0,0,0-1.534H26.9a7.224,7.224,0,0,0-9.142-2V9.714h5.917a.767.767,0,1,0,0-1.534H17.5a1.28,1.28,0,0,0-1.279,1.279V29.206a7.218,7.218,0,0,0-2.312,5.3v3.239h-.675a1.792,1.792,0,0,0-1.79,1.79v11.05a1.792,1.792,0,0,0,1.79,1.79H29.064a1.792,1.792,0,0,0,1.79-1.79v-2.2H51.181A1.28,1.28,0,0,0,52.46,47.1V27.231a23.373,23.373,0,0,0,6-5.4,15.829,15.829,0,0,0,3.013-9.786v-5.3a1.78,1.78,0,0,0-.99-1.6Zm-36.7,32.591h-5.27V34.5a2.635,2.635,0,0,1,5.27,0v3.239ZM15.447,34.5a5.7,5.7,0,1,1,11.407,0v3.239H25.32V34.5a4.169,4.169,0,0,0-8.339,0v3.239H15.447Zm44.5-22.456c0,7.372-3.846,11.207-10.05,15a.261.261,0,0,1-.271,0c-6.2-3.8-10.05-7.631-10.05-15v-5.3a.254.254,0,0,1,.141-.229l9.93-4.963a.257.257,0,0,1,.229,0L59.8,6.523a.254.254,0,0,1,.141.229v5.3Z" transform="translate(-11.448 0)" fill="#fff"/>
        <path id="Path_51358" data-name="Path 51358" d="M317.389,52.13A7.763,7.763,0,1,0,324.7,62.5a.767.767,0,1,0-1.445-.515,6.232,6.232,0,1,1,.262-3.188.767.767,0,0,0,1.511-.268A7.749,7.749,0,0,0,317.389,52.13Z" transform="translate(-279.126 -46.798)" fill="#fff"/>
        <path id="Path_51359" data-name="Path 51359" d="M358.089,105.531l-3.023,3.023-1.758-1.758a.767.767,0,0,0-1.085,1.085l2.3,2.3a.767.767,0,0,0,1.085,0l3.565-3.565a.767.767,0,0,0-1.085-1.085Z" transform="translate(-317.165 -94.535)" fill="#fff"/>
      </g>
    </g>
  </g>
</svg>
