<svg xmlns="http://www.w3.org/2000/svg" width="84" height="84" viewBox="0 0 84 84">
  <g id="Group_37692" data-name="Group 37692" transform="translate(-262 -2495)">
    <rect id="Rectangle_16472" data-name="Rectangle 16472" width="84" height="84" rx="6" transform="translate(262 2495)" fill="#d41f14"/>
    <g id="Group_37765" data-name="Group 37765" transform="translate(278.003 2510.988)">
      <path id="Path_51350" data-name="Path 51350" d="M60.987,60.15l-3.333,2.388L56.45,61.3a.805.805,0,1,0-1.156,1.122l1.687,1.739a.819.819,0,0,0,1.047.094l3.9-2.792a.805.805,0,1,0-.938-1.31Z" transform="translate(-32.894 -35.832)" fill="#fff"/>
      <path id="Path_51351" data-name="Path 51351" d="M1.609,25.779A24.146,24.146,0,0,1,41.255,7.249l-.407-.041a.806.806,0,0,0-.162,1.6l2.833.286a.814.814,0,0,0,.873-.948l-.518-2.8a.805.805,0,1,0-1.584.293l.083.445A25.758,25.758,0,0,0,3.725,39.115c.042-.047.084-.1.13-.139a2.412,2.412,0,0,1,1.286-.634A24.013,24.013,0,0,1,1.609,25.779Z" transform="translate(0 0)" fill="#fff"/>
      <path id="Path_51352" data-name="Path 51352" d="M52.711,23.5A2.394,2.394,0,0,1,51.5,24.562,24.145,24.145,0,0,1,14.823,55.954l.374.063a.805.805,0,1,0,.267-1.589l-2.808-.471a.814.814,0,0,0-.933.889l.334,2.827a.806.806,0,0,0,.8.711.822.822,0,0,0,.8-.9L13.6,57a25.752,25.752,0,1,0,39.117-33.5Z" transform="translate(-7.001 -14.027)" fill="#fff"/>
      <path id="Path_51353" data-name="Path 51353" d="M54.5,41.537a1.327,1.327,0,0,0,1.325-1.326v-2.6A1.327,1.327,0,0,0,54.5,36.288h-.989a14.842,14.842,0,0,0-.641-2.4l.853-.493a1.336,1.336,0,0,0,.486-1.81l-1.3-2.249a1.341,1.341,0,0,0-1.811-.485l-.856.5a14.987,14.987,0,0,0-1.759-1.759l.5-.86a1.33,1.33,0,0,0-.486-1.808l-2.249-1.3a1.337,1.337,0,0,0-1.81.484l-.494.855a14.783,14.783,0,0,0-2.4-.641v-.989A1.327,1.327,0,0,0,40.211,22h-2.6a1.327,1.327,0,0,0-1.325,1.325v.989a14.737,14.737,0,0,0-2.4.641l-.493-.853a1.341,1.341,0,0,0-1.81-.486l-2.25,1.3a1.328,1.328,0,0,0-.484,1.81l.495.857a14.943,14.943,0,0,0-1.759,1.759l-.86-.5a1.339,1.339,0,0,0-1.808.487l-1.3,2.25a1.338,1.338,0,0,0,.485,1.81l.853.493a14.8,14.8,0,0,0-.641,2.4h-.989A1.327,1.327,0,0,0,22,37.613v2.6a1.327,1.327,0,0,0,1.325,1.326h.988a14.824,14.824,0,0,0,.641,2.4l-.853.493a1.326,1.326,0,0,0-.486,1.81l1.3,2.249a1.345,1.345,0,0,0,1.811.485l.856-.494a15.015,15.015,0,0,0,1.759,1.759l-.5.858a1.33,1.33,0,0,0,.486,1.809l2.25,1.3a1.342,1.342,0,0,0,1.809-.485l.492-.853a14.762,14.762,0,0,0,2.4.641V54.5a1.327,1.327,0,0,0,1.325,1.325h2.6A1.327,1.327,0,0,0,41.537,54.5v-.989a14.767,14.767,0,0,0,2.4-.641l.492.852a1.342,1.342,0,0,0,1.81.487l2.25-1.3a1.329,1.329,0,0,0,.485-1.81l-.5-.858a14.98,14.98,0,0,0,1.759-1.759l.859.5a1.34,1.34,0,0,0,1.809-.486l1.3-2.249a1.323,1.323,0,0,0-.484-1.81l-.854-.494a14.756,14.756,0,0,0,.641-2.4Zm-2.513-.659a13.172,13.172,0,0,1-.766,2.873,1.121,1.121,0,0,0,.479,1.374l.971.561-1.013,1.755-.976-.564a1.155,1.155,0,0,0-1.429.273,13.384,13.384,0,0,1-2.1,2.1,1.123,1.123,0,0,0-.273,1.428l.564.976-1.755,1.013-.56-.969a1.141,1.141,0,0,0-1.376-.481,13.14,13.14,0,0,1-2.871.766,1.122,1.122,0,0,0-.952,1.1v1.125H37.9V53.089a1.122,1.122,0,0,0-.952-1.1,13.141,13.141,0,0,1-2.871-.765A1.145,1.145,0,0,0,32.7,51.7l-.56.971-1.755-1.013.564-.976a1.122,1.122,0,0,0-.274-1.427,13.393,13.393,0,0,1-2.1-2.1,1.151,1.151,0,0,0-1.43-.273l-.974.563-1.013-1.755.968-.559a1.119,1.119,0,0,0,.481-1.376,13.212,13.212,0,0,1-.765-2.87,1.121,1.121,0,0,0-1.1-.955H23.611V37.9h1.125a1.12,1.12,0,0,0,1.1-.952,13.164,13.164,0,0,1,.766-2.873,1.122,1.122,0,0,0-.479-1.375l-.971-.56,1.013-1.755.976.564a1.153,1.153,0,0,0,1.427-.274,13.391,13.391,0,0,1,2.1-2.1,1.121,1.121,0,0,0,.275-1.43l-.563-.975,1.755-1.013.559.967a1.141,1.141,0,0,0,1.377.483,13.162,13.162,0,0,1,2.871-.766,1.122,1.122,0,0,0,.952-1.1V23.611h2.027v1.125a1.122,1.122,0,0,0,.952,1.1,13.151,13.151,0,0,1,2.872.766,1.143,1.143,0,0,0,1.374-.479l.562-.972,1.755,1.013-.564.976a1.123,1.123,0,0,0,.273,1.429,13.354,13.354,0,0,1,2.1,2.1,1.151,1.151,0,0,0,1.429.272l.975-.564,1.013,1.755-.97.56a1.12,1.12,0,0,0-.481,1.376,13.212,13.212,0,0,1,.766,2.869,1.12,1.12,0,0,0,1.1.956h1.126v2.027H53.088a1.12,1.12,0,0,0-1.1.952Z" transform="translate(-13.143 -13.134)" fill="#fff"/>
      <circle id="Ellipse_32" data-name="Ellipse 32" cx="0.805" cy="0.805" r="0.805" transform="translate(24.143 17.366)" fill="#fff"/>
      <circle id="Ellipse_33" data-name="Ellipse 33" cx="0.805" cy="0.805" r="0.805" transform="translate(27.306 17.685)" fill="#fff"/>
      <circle id="Ellipse_34" data-name="Ellipse 34" cx="0.805" cy="0.805" r="0.805" transform="translate(30.064 19.27)" fill="#fff"/>
      <circle id="Ellipse_35" data-name="Ellipse 35" cx="0.805" cy="0.805" r="0.805" transform="translate(31.944 21.835)" fill="#fff"/>
      <circle id="Ellipse_36" data-name="Ellipse 36" cx="0.805" cy="0.805" r="0.805" transform="translate(32.615 24.957)" fill="#fff"/>
      <circle id="Ellipse_37" data-name="Ellipse 37" cx="0.805" cy="0.805" r="0.805" transform="translate(31.957 28.085)" fill="#fff"/>
      <circle id="Ellipse_38" data-name="Ellipse 38" cx="0.805" cy="0.805" r="0.805" transform="translate(30.085 30.658)" fill="#fff"/>
      <circle id="Ellipse_39" data-name="Ellipse 39" cx="0.805" cy="0.805" r="0.805" transform="translate(27.334 32.25)" fill="#fff"/>
      <circle id="Ellipse_40" data-name="Ellipse 40" cx="0.805" cy="0.805" r="0.805" transform="translate(24.171 32.583)" fill="#fff"/>
      <circle id="Ellipse_41" data-name="Ellipse 41" cx="0.805" cy="0.805" r="0.805" transform="translate(21.148 31.605)" fill="#fff"/>
      <circle id="Ellipse_42" data-name="Ellipse 42" cx="0.805" cy="0.805" r="0.805" transform="translate(18.781 29.48)" fill="#fff"/>
      <circle id="Ellipse_43" data-name="Ellipse 43" cx="0.805" cy="0.805" r="0.805" transform="translate(17.477 26.577)" fill="#fff"/>
      <circle id="Ellipse_44" data-name="Ellipse 44" cx="0.805" cy="0.805" r="0.805" transform="translate(17.481 23.362)" fill="#fff"/>
      <circle id="Ellipse_45" data-name="Ellipse 45" cx="0.805" cy="0.805" r="0.805" transform="translate(18.764 20.491)" fill="#fff"/>
      <circle id="Ellipse_46" data-name="Ellipse 46" cx="0.805" cy="0.805" r="0.805" transform="translate(21.148 18.357)" fill="#fff"/>
    </g>
  </g>
</svg>
