<svg xmlns="http://www.w3.org/2000/svg" width="110" height="110" viewBox="0 0 110 110">
  <g id="Group_38937" data-name="Group 38937" transform="translate(-1939 -5169)">
    <rect id="Rectangle_17051" data-name="Rectangle 17051" width="110" height="110" rx="12" transform="translate(1939 5169)" fill="#d41f14"/>
    <g id="_035---Creative-Writing" data-name="035---Creative-Writing" transform="translate(1965 5186)">
      <path id="Shape" d="M16.33,54.819,24.286,51.4,19.734,46.85Z" transform="translate(4.491 12.885)" fill="#fff"/>
      <path id="Shape-2" data-name="Shape" d="M28.051,23.062V30.75a3.825,3.825,0,0,1-2.55,3.6v1.5a3.825,3.825,0,1,1-7.65,0v-1.5a3.825,3.825,0,0,1-2.55-3.6V23.266A6.424,6.424,0,0,0,13.732,19.3a8.956,8.956,0,0,1-.88-1.3H3.825A3.825,3.825,0,0,0,0,21.825V66.451a3.825,3.825,0,0,0,3.825,3.825h35.7a3.825,3.825,0,0,0,3.825-3.825V49.225C31.118,61.445,31.932,60.68,31.71,60.828a2.011,2.011,0,0,1-.332.166L18.9,66.349a1.275,1.275,0,0,1-1.683-1.67l5.393-12.572a1.084,1.084,0,0,1,.179-.319,1.829,1.829,0,0,1,.217-.23L43.351,31.2V27.881a1.155,1.155,0,0,0-.625.332l-8.109,8.109a1.247,1.247,0,0,1-1.8,0,1.275,1.275,0,0,1,0-1.8L40.928,26.4a3.808,3.808,0,0,1,2.423-1.109V21.825A3.825,3.825,0,0,0,39.526,18H30.5a9.068,9.068,0,0,1-.995,1.441,5.813,5.813,0,0,0-1.454,3.621Zm-19,.663,1.8-1.811a1.28,1.28,0,0,1,1.811,1.811l-1.811,1.8a1.275,1.275,0,0,1-.893.37,1.306,1.306,0,0,1-.905-.37A1.275,1.275,0,0,1,9.053,23.725ZM6.375,28.2h5.1a1.275,1.275,0,1,1,0,2.55h-5.1a1.275,1.275,0,1,1,0-2.55Zm0,6.375h5.1a1.275,1.275,0,1,1,0,2.55h-5.1a1.275,1.275,0,1,1,0-2.55Zm8.109,28.051H6.375a1.275,1.275,0,1,1,0-2.55h8.109a1.275,1.275,0,1,1,0,2.55Zm2.729-6.375H6.375a1.275,1.275,0,1,1,0-2.55H17.213a1.275,1.275,0,1,1,0,2.55Zm3.328-6.375H6.375a1.275,1.275,0,1,1,0-2.55H20.541a1.275,1.275,0,1,1,0,2.55ZM26.916,43.5H6.375a1.275,1.275,0,1,1,0-2.55H26.916a1.275,1.275,0,1,1,0,2.55Zm6.235-12.75H31.876a1.275,1.275,0,1,1,0-2.55h1.275a1.275,1.275,0,1,1,0,2.55ZM30.69,21.914a1.285,1.285,0,0,1,1.811,0l1.8,1.811a1.275,1.275,0,0,1,0,1.8,1.306,1.306,0,0,1-.905.37,1.275,1.275,0,0,1-.893-.37l-1.811-1.8A1.285,1.285,0,0,1,30.69,21.914Z" transform="translate(0 4.95)" fill="#fff"/>
      <path id="Rectangle-path" d="M14,23h7.65v2.55H14Z" transform="translate(3.85 6.326)" fill="#fff"/>
      <path id="Shape-3" data-name="Shape" d="M14,28.275a1.275,1.275,0,0,0,1.275,1.275h5.1a1.275,1.275,0,0,0,1.275-1.275V27H14Z" transform="translate(3.85 7.426)" fill="#fff"/>
      <path id="Shape-4" data-name="Shape" d="M16.37,33.155a1.21,1.21,0,0,0,.905.4,1.275,1.275,0,0,0,1.275-1.275V31H16v1.275A1.183,1.183,0,0,0,16.37,33.155Z" transform="translate(4.4 8.526)" fill="#fff"/>
      <path id="Shape-5" data-name="Shape" d="M13.55,9.939A7.682,7.682,0,0,0,11,15.651a8.132,8.132,0,0,0,1.913,5.1,9.129,9.129,0,0,1,1.76,3.825h2.7V18.2a1.275,1.275,0,1,1,2.55,0v6.375H22.59a8.483,8.483,0,0,1,1.785-3.825,7.715,7.715,0,0,0,1.887-5.878A7.68,7.68,0,0,0,13.55,9.939Z" transform="translate(3.025 2.199)" fill="#fff"/>
      <path id="Shape-6" data-name="Shape" d="M18.55,3.825V1.275a1.275,1.275,0,0,0-2.55,0v2.55a1.275,1.275,0,0,0,2.55,0Z" transform="translate(4.4)" fill="#fff"/>
      <path id="Shape-7" data-name="Shape" d="M27,14.275a1.275,1.275,0,0,0,1.275,1.275h2.55a1.275,1.275,0,1,0,0-2.55h-2.55A1.275,1.275,0,0,0,27,14.275Z" transform="translate(7.426 3.575)" fill="#fff"/>
      <path id="Shape-8" data-name="Shape" d="M6.825,13H4.275a1.275,1.275,0,1,0,0,2.55h2.55a1.275,1.275,0,0,0,0-2.55Z" transform="translate(0.825 3.575)" fill="#fff"/>
      <path id="Shape-9" data-name="Shape" d="M8.985,7.788a1.275,1.275,0,1,0,1.8-1.8l-1.8-1.8a1.276,1.276,0,1,0-1.8,1.8Z" transform="translate(1.872 1.047)" fill="#fff"/>
      <path id="Shape-10" data-name="Shape" d="M24.152,7.788a1.275,1.275,0,0,0,1.8,0l1.8-1.8a1.276,1.276,0,0,0-1.8-1.8l-1.8,1.8a1.275,1.275,0,0,0,0,1.8Z" transform="translate(6.54 1.047)" fill="#fff"/>
      <path id="Rectangle-path-2" data-name="Rectangle-path" d="M0,0H26.777V7.645H0Z" transform="translate(25.595 57.503) rotate(-45)" fill="#fff"/>
      <path id="Shape-11" data-name="Shape" d="M41.756,35.453l4.5-4.514a3.825,3.825,0,0,0,0-5.406,3.921,3.921,0,0,0-5.406,0l-2.7,2.7-1.8,1.811Z" transform="translate(9.997 6.725)" fill="#fff"/>
    </g>
  </g>
</svg>
