<svg xmlns="http://www.w3.org/2000/svg" width="110" height="110" viewBox="0 0 110 110">
  <g id="Group_38937" data-name="Group 38937" transform="translate(-1939 -5169)">
    <rect id="Rectangle_17051" data-name="Rectangle 17051" width="110" height="110" rx="12" transform="translate(1939 5169)" fill="#d41f14"/>
    <g id="Group_38946" data-name="Group 38946" transform="translate(1954.263 5184.758)">
      <path id="Path_52059" data-name="Path 52059" d="M32.321,17.818h12.5L30.26,3.258v12.5A2.064,2.064,0,0,0,32.321,17.818Z" transform="translate(15.325 0.145)" fill="#fff"/>
      <path id="Path_52060" data-name="Path 52060" d="M24.436,22.195a3.353,3.353,0,0,0,3.35-3.35V11.68a3.342,3.342,0,1,0-6.683,0v7.165A3.345,3.345,0,0,0,24.436,22.195Z" transform="translate(10.281 2.939)" fill="#fff"/>
      <path id="Path_52061" data-name="Path 52061" d="M51.1,69.491a2.293,2.293,0,0,1-1.645-.7,2.253,2.253,0,0,1-.632-1.664l.214-5.354H17.27a.775.775,0,1,1,0-1.551H49.1l.134-3.352,2.18-3.808H41.306a.775.775,0,0,1,0-1.551H52.3l8.262-14.43V19.514H47.646A3.616,3.616,0,0,1,44.034,15.9V2.994H6.16A3.723,3.723,0,0,0,2.435,6.719V72.173A3.723,3.723,0,0,0,6.16,75.9H56.818a3.738,3.738,0,0,0,3.744-3.726v-8.33l-8.237,5.286a2.271,2.271,0,0,1-1.227.362ZM46.993,44.348H26.574a.775.775,0,0,1,0-1.551H46.993a.775.775,0,0,1,0,1.551Zm7.107,0H51.127a.775.775,0,1,1,0-1.551H54.1a.775.775,0,1,1,0,1.551Zm0-10.263a.775.775,0,0,1,0,1.551H33.424a.775.775,0,0,1,0-1.551ZM29.833,14.62a4.892,4.892,0,0,1,9.785,0v7.165a4.892,4.892,0,1,1-9.785,0V14.62Zm-9.647-4.077a.775.775,0,0,1,.775-.775h5.909a.775.775,0,0,1,0,1.551H21.737v6.155h5.134a.775.775,0,0,1,0,1.551H21.737v6.155h5.134a.775.775,0,0,1,0,1.551H20.962a.775.775,0,0,1-.775-.775ZM12.658,19.22a4.506,4.506,0,1,1,4.505-4.507.775.775,0,0,1-1.551,0,2.955,2.955,0,1,0-2.955,2.956,4.505,4.505,0,1,1-4.505,4.505.775.775,0,1,1,1.551,0,2.955,2.955,0,1,0,2.955-2.955ZM8.9,34.084H28.254a.775.775,0,1,1,0,1.551H8.9a.775.775,0,1,1,0-1.551Zm0,8.712H21.406a.775.775,0,1,1,0,1.551H8.9a.775.775,0,1,1,0-1.551Zm0,8.712H36.007a.775.775,0,1,1,0,1.551H8.9a.775.775,0,1,1,0-1.551Zm0,8.711h3.41a.775.775,0,1,1,0,1.551H8.9a.775.775,0,0,1,0-1.551ZM29.288,70.483H8.9a.775.775,0,1,1,0-1.551H29.288a.775.775,0,1,1,0,1.551Z" transform="translate(0 0)" fill="#fff"/>
      <path id="Path_52062" data-name="Path 52062" d="M48.262,21.337,33.871,46.474l3.846,2.2L52.108,23.523Z" transform="translate(17.314 10.103)" fill="#fff"/>
      <path id="Path_52063" data-name="Path 52063" d="M33.351,47.609a.719.719,0,0,0,1.117.636l7.63-4.9-4.187-2.4-4.2-2.4Z" transform="translate(17.027 19.575)" fill="#fff"/>
      <path id="Path_52064" data-name="Path 52064" d="M0,0H28.979V4.432H0Z" transform="translate(56.391 59.549) rotate(-60.205)" fill="#fff"/>
      <path id="Path_52065" data-name="Path 52065" d="M54.2,21.479a5.259,5.259,0,0,0-2.249-3.024A5.415,5.415,0,0,0,44.5,20.5l-.853,1.489,4.528,2.59,4.513,2.59.993-1.737a5.235,5.235,0,0,0,.512-3.954Z" transform="translate(22.7 8.099)" fill="#fff"/>
    </g>
  </g>
</svg>
