<svg xmlns="http://www.w3.org/2000/svg" width="110" height="110" viewBox="0 0 110 110">
  <g id="Group_38937" data-name="Group 38937" transform="translate(-1939 -5169)">
    <rect id="Rectangle_17051" data-name="Rectangle 17051" width="110" height="110" rx="12" transform="translate(1939 5169)" fill="#d41f14"/>
    <path id="Path_52058" data-name="Path 52058" d="M57.566,112.837l-5.809,1.38a3.09,3.09,0,0,1-3.721-3.721l1.385-5.809a3.057,3.057,0,0,1,.821-1.47L64.267,89.193V88.067a9.545,9.545,0,0,0-2.182-6.16,7.2,7.2,0,0,0-5.5-2.677H7.674a7.22,7.22,0,0,0-5.5,2.677A9.572,9.572,0,0,0-.01,88.067v24.607a9.565,9.565,0,0,0,2.182,6.16,7.212,7.212,0,0,0,5.5,2.677h8.083a.226.226,0,0,1,.1.018.522.522,0,0,1,.159.168.876.876,0,0,1,.136.322,1.079,1.079,0,0,1,0,.418l-1.752,9.4a3.686,3.686,0,0,0,.168,1.957,3.225,3.225,0,0,0,1.225,1.561,2.773,2.773,0,0,0,1.961.458,2.9,2.9,0,0,0,1.752-.972l10.225-11.484a5.721,5.721,0,0,1,1.811-1.4,4.743,4.743,0,0,1,2.066-.445H56.583a7.2,7.2,0,0,0,5.5-2.677,9.536,9.536,0,0,0,2.182-6.16v-5.891l-5.228,5.233a3.122,3.122,0,0,1-1.468.823Zm-16.244-19a6.27,6.27,0,0,1,8.688-5.788,6.4,6.4,0,0,1,2.043,1.388A1.3,1.3,0,0,1,50.2,91.253a3.7,3.7,0,0,0-1.2-.809,3.615,3.615,0,0,0-1.407-.282,3.682,3.682,0,0,0-3.673,3.668v.232a3.663,3.663,0,0,0,6.261,2.588,3.685,3.685,0,0,0,.921-1.516H48.817a1.3,1.3,0,0,1,0-2.605h3.748a1.307,1.307,0,0,1,1.3,1.3v.232a6.273,6.273,0,0,1-12.547,0Zm-13.777,0a6.273,6.273,0,0,1,12.547,0v.232a6.273,6.273,0,0,1-12.547,0Zm-6.563-4.97a1.3,1.3,0,0,1,2.607,0v8.869H27.51a1.3,1.3,0,1,1,0,2.6H22.285a1.3,1.3,0,0,1-1.3-1.3Zm-10.589,0a1.3,1.3,0,0,1,1.3-1.3H15.1a3.839,3.839,0,0,1,3.241,5.905,4.01,4.01,0,0,1,.349.309,3.842,3.842,0,0,1-2.719,6.558H11.7a1.3,1.3,0,0,1-1.3-1.3V88.863ZM45.016,113.7H11.7a1.3,1.3,0,0,1,0-2.607H45.016a1.3,1.3,0,0,1,0,2.607Zm1.707-7.172H11.7a1.3,1.3,0,1,1,0-2.6H46.722a1.3,1.3,0,0,1,0,2.6ZM15.105,92.65h-2.11V90.166h2.11a1.25,1.25,0,0,1,.876.363,1.244,1.244,0,0,1-.876,2.12Zm16.126,4a3.637,3.637,0,0,1-1.081-2.588v-.232a3.671,3.671,0,0,1,7.341,0v.232a3.663,3.663,0,0,1-6.261,2.588ZM15.976,97.732H12.995V95.248h2.981a1.242,1.242,0,0,1,0,2.483ZM71.84,85.291l5.119,5.121-18.023,18.02-4.153-4.153-.962-.962Zm-19.895,20a1.023,1.023,0,0,1,.045-.123l.948.948,2.315,2.315,1.829,1.829a.736.736,0,0,1-.123.045l-5.809,1.38a.482.482,0,0,1-.584-.584ZM81.358,86.013,78.8,88.568l-5.116-5.116,2.56-2.56a2.112,2.112,0,0,1,2.981,0l2.133,2.133A2.118,2.118,0,0,1,81.358,86.013Z" transform="translate(1953.01 5116.771)" fill="#fff"/>
  </g>
</svg>
