<svg xmlns="http://www.w3.org/2000/svg" width="110" height="110" viewBox="0 0 110 110">
  <g id="Group_38937" data-name="Group 38937" transform="translate(-1939 -5169)">
    <rect id="Rectangle_17051" data-name="Rectangle 17051" width="110" height="110" rx="12" transform="translate(1939 5169)" fill="#d41f14"/>
    <g id="Group_38947" data-name="Group 38947" transform="translate(1955 5187.5)">
      <path id="Path_52066" data-name="Path 52066" d="M6.807,36.805H28.861l8.412,8.412a2.269,2.269,0,0,0,3.873-1.6V36.805h6.807A6.815,6.815,0,0,0,54.76,30V7.307A6.815,6.815,0,0,0,47.953.5H6.807A6.815,6.815,0,0,0,0,7.307V30A6.815,6.815,0,0,0,6.807,36.805ZM41.146,14.114a4.538,4.538,0,1,1-4.538,4.538A4.544,4.544,0,0,1,41.146,14.114Zm-13.614,0a4.538,4.538,0,1,1-4.538,4.538A4.544,4.544,0,0,1,27.531,14.114Zm-13.766,0a4.538,4.538,0,1,1-4.538,4.538A4.544,4.544,0,0,1,13.766,14.114Zm0,0" fill="#fff"/>
      <path id="Path_52067" data-name="Path 52067" d="M2.269,421.938H34.015a5.041,5.041,0,0,0,1.345-.363l6.444-3.222a2.315,2.315,0,0,0,.59-.408L35.949,411.5a2.315,2.315,0,0,0-.408.59l-2.655,5.31H2.269a2.269,2.269,0,1,0,0,4.538Zm0,0" transform="translate(0 -348.828)" fill="#fff"/>
      <path id="Path_52068" data-name="Path 52068" d="M282.117,237.8,258.95,260.9l6.4,6.4,23.212-23.054Zm0,0" transform="translate(-219.778 -201.401)" fill="#fff"/>
      <path id="Path_52069" data-name="Path 52069" d="M441.431,181.181a2.247,2.247,0,0,0-3.222,0l-4.811,4.811,6.4,6.4,4.811-4.81a2.247,2.247,0,0,0,0-3.222Zm0,0" transform="translate(-367.838 -152.771)" fill="#fff"/>
    </g>
  </g>
</svg>
