<svg xmlns="http://www.w3.org/2000/svg" width="88" height="88" viewBox="0 0 88 88">
  <g id="Group_38975" data-name="Group 38975" transform="translate(-190 -2132)">
    <rect id="Rectangle_16962" data-name="Rectangle 16962" width="88" height="88" rx="10" transform="translate(190 2132)" fill="#d41f14"/>
    <g id="Group_38974" data-name="Group 38974" transform="translate(208 2150)">
      <path id="Path_52081" data-name="Path 52081" d="M0,232.943v7a2.386,2.386,0,0,0,4.773,0v-24.4H1.005A1,1,0,0,0,0,216.545v16.4Z" transform="translate(0 -193.873)" fill="#fff"/>
      <path id="Path_52082" data-name="Path 52082" d="M85.308,0H43.639a1,1,0,0,0-1.005,1.005V47.58a3.891,3.891,0,0,1-3.894,3.888H80.974a5.335,5.335,0,0,0,5.339-5.331V1.005A1,1,0,0,0,85.308,0ZM63.962,6.038c.29,0,.531.1.6.349L66.4,12.566,67.352,8.5c.072-.325.495-.494.9-.494s.832.169.9.494l.953,4.071,1.834-6.178c.072-.253.314-.349.6-.349.543,0,1.218.337,1.218.747a.535.535,0,0,1-.024.157l-2.4,7.347a1.247,1.247,0,0,1-1.243.626c-.543,0-1.122-.2-1.218-.626l-.627-2.854-.627,2.854c-.1.421-.676.626-1.218.626s-1.11-.2-1.243-.626l-2.4-7.347a.534.534,0,0,1-.024-.157C62.744,6.376,63.419,6.038,63.962,6.038Zm-7.588.578c0-.385.41-.578.82-.578H61.49c.4,0,.567.421.567.807,0,.446-.205.831-.567.831H58.256V9.712h1.81c.362,0,.567.349.567.735,0,.325-.169.711-.567.711h-1.81V13.2H61.49c.362,0,.567.385.567.831,0,.385-.169.807-.567.807H57.195c-.41,0-.82-.193-.82-.578V6.616Zm-7.95,0c0-.4.471-.578.941-.578.676,0,.929.06,1.387.939L52.708,10.7V6.6c0-.4.47-.566.941-.566s.941.169.941.566v7.66c0,.385-.47.578-.941.578a1.053,1.053,0,0,1-1.05-.506l-2.292-4.167v4.095c0,.385-.47.578-.941.578s-.941-.193-.941-.578V6.616ZM59.53,45.3H49.717a1.508,1.508,0,0,1,0-3.016H59.53a1.508,1.508,0,0,1,0,3.016Zm0-6.022H49.717a1.508,1.508,0,0,1,0-3.016H59.53a1.508,1.508,0,0,1,0,3.016Zm0-6.022H49.717a1.508,1.508,0,0,1,0-3.016H59.53a1.508,1.508,0,0,1,0,3.016ZM80.283,43.787A1.508,1.508,0,0,1,78.775,45.3H65.562a1.508,1.508,0,0,1-1.508-1.508V31.743a1.508,1.508,0,0,1,1.508-1.508H78.775a1.508,1.508,0,0,1,1.508,1.508ZM78.775,27.229H49.717a1.508,1.508,0,0,1,0-3.016H78.775a1.508,1.508,0,1,1,0,3.016Zm0-6.022H49.717a1.508,1.508,0,0,1,0-3.016H78.775a1.508,1.508,0,1,1,0,3.016Zm-1.351-6.244c-1.58,0-2.907-.771-2.907-1.566,0-.41.362-1.012.82-1.012.567,0,.929.891,2.051.891.555,0,1.17-.217,1.17-.795,0-1.457-3.824-1.2-3.824-4.023,0-1.807,1.58-2.493,3.088-2.493.639,0,2.4.12,2.4,1.06,0,.325-.217.988-.748.988-.434,0-.664-.458-1.653-.458-.857,0-1.206.349-1.206.723,0,1.2,3.824.976,3.824,4.011C80.441,14.023,79.174,14.963,77.425,14.963Z" transform="translate(-34.846)" fill="#fff"/>
    </g>
  </g>
</svg>
