<svg xmlns="http://www.w3.org/2000/svg" width="88" height="88" viewBox="0 0 88 88">
  <g id="Group_38969" data-name="Group 38969" transform="translate(-190 -2132)">
    <rect id="Rectangle_16962" data-name="Rectangle 16962" width="88" height="88" rx="10" transform="translate(190 2132)" fill="#d41f14"/>
    <g id="Group_38968" data-name="Group 38968" transform="translate(203.021 2147.858)">
      <path id="Path_52070" data-name="Path 52070" d="M42.6,31.03l-.051-9.355A20.788,20.788,0,1,0,.979,21.9l.129,23.906a5.251,5.251,0,0,0,5.225,5.169A5.2,5.2,0,0,0,10.9,48.206a.7.7,0,0,1,1.247-.009,5.181,5.181,0,0,0,9.136-.027.7.7,0,0,1,1.247-.006,5.4,5.4,0,0,0,1.809,1.914Z" transform="translate(0 0)" fill="#fff"/>
      <g id="Group_38968-2" data-name="Group 38968" transform="translate(10.355 13.473)">
        <ellipse id="Ellipse_65" data-name="Ellipse 65" cx="4.158" cy="5.197" rx="4.158" ry="5.197" fill="#d41f14"/>
        <ellipse id="Ellipse_66" data-name="Ellipse 66" cx="4.158" cy="5.197" rx="4.158" ry="5.197" transform="translate(14.552)" fill="#d41f14"/>
        <path id="Path_52071" data-name="Path 52071" d="M17,34.315V30.158a4.158,4.158,0,1,1,8.315,0v4.158Z" transform="translate(-9.724 -12.488)" fill="#d41f14"/>
      </g>
      <path id="Path_52072" data-name="Path 52072" d="M25.315,34.039a4.158,4.158,0,1,1-8.315,0S18.039,33,21.158,33,25.315,34.039,25.315,34.039Z" transform="translate(0.631 1.261)" fill="#c81308"/>
      <path id="Path_52073" data-name="Path 52073" d="M34.656,56.35a3.805,3.805,0,0,1-.9.353L22.7,59.478a1.376,1.376,0,0,1-1.663-1.663l2.775-11.049a3.805,3.805,0,0,1,.353-.9l6.186,4.3Z" transform="translate(0.789 1.767)" fill="#ffd6aa"/>
      <path id="Path_52074" data-name="Path 52074" d="M56.074,35.852,35.39,56.527a3.418,3.418,0,0,1-.853.644L24.049,46.684a3.417,3.417,0,0,1,.644-.853L45.377,25.156,46.865,25l9.355,9.355Z" transform="translate(0.909 0.946)" fill="#f5e4e4"/>
      <path id="Path_52075" data-name="Path 52075" d="M0,0H30.278V5.046H0Z" transform="translate(28.425 51.072) rotate(-45)" fill="#d41f14"/>
      <path id="Path_52076" data-name="Path 52076" d="M58.82,32.445,55.265,36.01l-10.7-10.7,3.555-3.565a2.511,2.511,0,0,1,3.577,0l7.12,7.12a2.511,2.511,0,0,1,0,3.577Z" transform="translate(1.717 0.788)" fill="#950900"/>
    </g>
  </g>
</svg>
