<svg xmlns="http://www.w3.org/2000/svg" width="88" height="88" viewBox="0 0 88 88">
  <g id="Group_38971" data-name="Group 38971" transform="translate(-190 -2132)">
    <rect id="Rectangle_16962" data-name="Rectangle 16962" width="88" height="88" rx="10" transform="translate(190 2132)" fill="#d41f14"/>
    <path id="Path_52078" data-name="Path 52078" d="M42.005,43.781l-7.319,2.6A1.367,1.367,0,0,1,32.94,44.63l2.6-7.319A.272.272,0,0,1,35.6,37.2L54.967,17.84a2.448,2.448,0,0,1,3.461,0l3.049,3.049a2.448,2.448,0,0,1,0,3.461L42.113,43.712a.272.272,0,0,1-.108.069Zm7.435-1.3v6.8a6.471,6.471,0,0,1-6.469,6.469H8.469A6.471,6.471,0,0,1,2,49.284V19.095H47.614l-15.06,15.06a4.592,4.592,0,0,0-1.082,1.716l-2.6,7.317a5.681,5.681,0,0,0,7.254,7.254l7.317-2.6C44.092,47.617,49.44,42.485,49.44,42.485ZM12.782,44.971h6.834a2.156,2.156,0,0,0,0-4.313H12.782a2.156,2.156,0,0,0,0,4.313Zm0-8.625H23.928a2.156,2.156,0,0,0,0-4.313H12.782a2.156,2.156,0,1,0,0,4.313Zm0-8.625H32.554a2.156,2.156,0,1,0,0-4.313H12.782a2.156,2.156,0,1,0,0,4.313ZM2,14.782V10.469A6.471,6.471,0,0,1,8.469,4h34.5a6.471,6.471,0,0,1,6.469,6.469v4.313Z" transform="translate(202 2146)" fill="#fff" fill-rule="evenodd"/>
  </g>
</svg>
