<svg xmlns="http://www.w3.org/2000/svg" width="88" height="88" viewBox="0 0 88 88">
  <g id="Group_38970" data-name="Group 38970" transform="translate(-190 -2132)">
    <rect id="Rectangle_16962" data-name="Rectangle 16962" width="88" height="88" rx="10" transform="translate(190 2132)" fill="#d41f14"/>
    <path id="Path_52077" data-name="Path 52077" d="M12.124,45.329H39.2A8.149,8.149,0,0,0,47.329,37.2V10.124A8.148,8.148,0,0,0,39.2,2H12.124A8.148,8.148,0,0,0,4,10.124V48.037a8.124,8.124,0,0,0,8.124,8.124h32.5a2.708,2.708,0,1,0,0-5.416h-32.5a2.708,2.708,0,1,1,0-5.416Zm13.54-35.2a2.708,2.708,0,1,1-2.708,2.708A2.708,2.708,0,0,1,25.664,10.124ZM22.956,20.956a2.708,2.708,0,0,1,5.416,0V34.5a2.708,2.708,0,0,1-5.416,0Z" transform="translate(208 2147)" fill="#fff"/>
  </g>
</svg>
