<svg xmlns="http://www.w3.org/2000/svg" width="88" height="88" viewBox="0 0 88 88">
  <g id="Group_38972" data-name="Group 38972" transform="translate(-190 -2132)">
    <rect id="Rectangle_16962" data-name="Rectangle 16962" width="88" height="88" rx="10" transform="translate(190 2132)" fill="#d41f14"/>
    <path id="Path_52079" data-name="Path 52079" d="M44.787,105.378l-4.52,1.074a2.4,2.4,0,0,1-2.9-2.9l1.078-4.52a2.379,2.379,0,0,1,.639-1.144L50,86.981v-.876a7.427,7.427,0,0,0-1.7-4.793,5.6,5.6,0,0,0-4.277-2.083H5.969a5.618,5.618,0,0,0-4.281,2.083,7.447,7.447,0,0,0-1.7,4.793v19.146a7.442,7.442,0,0,0,1.7,4.793,5.612,5.612,0,0,0,4.281,2.083h6.289a.175.175,0,0,1,.081.014.406.406,0,0,1,.123.131.682.682,0,0,1,.106.25.839.839,0,0,1,0,.325L11.2,120.161a2.868,2.868,0,0,0,.131,1.522,2.509,2.509,0,0,0,.953,1.215,2.158,2.158,0,0,0,1.526.356,2.253,2.253,0,0,0,1.363-.756l7.956-8.935a4.451,4.451,0,0,1,1.409-1.091,3.69,3.69,0,0,1,1.607-.346H44.022a5.6,5.6,0,0,0,4.277-2.083A7.419,7.419,0,0,0,50,105.25v-4.583l-4.068,4.071a2.429,2.429,0,0,1-1.142.64ZM32.148,90.592a4.878,4.878,0,0,1,6.76-4.5,4.98,4.98,0,0,1,1.59,1.08,1.01,1.01,0,0,1-1.44,1.416,2.877,2.877,0,0,0-.932-.629,2.813,2.813,0,0,0-1.1-.219,2.865,2.865,0,0,0-2.858,2.854v.181a2.85,2.85,0,0,0,4.871,2.013,2.867,2.867,0,0,0,.716-1.18H37.98a1.013,1.013,0,0,1,0-2.027H40.9a1.017,1.017,0,0,1,1.014,1.014v.181a4.881,4.881,0,0,1-9.762,0Zm-10.719,0a4.881,4.881,0,0,1,9.762,0v.181a4.881,4.881,0,0,1-9.762,0Zm-5.107-3.867a1.014,1.014,0,0,1,2.028,0v6.9H21.4a1.012,1.012,0,1,1,0,2.023H17.337a1.011,1.011,0,0,1-1.014-1.01Zm-8.239,0A1.013,1.013,0,0,1,9.1,85.712h2.652a2.987,2.987,0,0,1,2.522,4.595,3.12,3.12,0,0,1,.272.24,2.989,2.989,0,0,1-2.115,5.1H9.1a1.01,1.01,0,0,1-1.013-1.01V86.725ZM35.022,106.05H9.1a1.014,1.014,0,0,1,0-2.028H35.022a1.014,1.014,0,0,1,0,2.028Zm1.328-5.58H9.1a1.012,1.012,0,1,1,0-2.024H36.35a1.012,1.012,0,0,1,0,2.024Zm-24.6-10.8H10.108V87.739H11.75a.972.972,0,0,1,.681.283.968.968,0,0,1-.681,1.649ZM24.3,92.786a2.83,2.83,0,0,1-.841-2.013v-.181a2.856,2.856,0,0,1,5.712,0v.181A2.85,2.85,0,0,1,24.3,92.786Zm-11.869.84h-2.32V91.693h2.32a.966.966,0,0,1,0,1.932Zm43.465-9.68,3.983,3.984L45.853,101.95l-3.232-3.232-.749-.749ZM40.414,99.506a.8.8,0,0,1,.035-.1l.738.738,1.8,1.8,1.423,1.423a.573.573,0,0,1-.1.035l-4.52,1.074a.375.375,0,0,1-.455-.455Zm22.884-15L61.306,86.5l-3.98-3.98,1.992-1.992a1.643,1.643,0,0,1,2.32,0L63.3,82.183A1.648,1.648,0,0,1,63.3,84.507Z" transform="translate(202.01 2074.77)" fill="#fff"/>
  </g>
</svg>
