<svg xmlns="http://www.w3.org/2000/svg" width="88" height="88" viewBox="0 0 88 88">
  <g id="Group_38973" data-name="Group 38973" transform="translate(-190 -2132)">
    <rect id="Rectangle_16962" data-name="Rectangle 16962" width="88" height="88" rx="10" transform="translate(190 2132)" fill="#d41f14"/>
    <path id="Path_52080" data-name="Path 52080" d="M37.13,9.123H29.64V1.636ZM31.439,36.482a1.185,1.185,0,0,0-.205.885,1.2,1.2,0,0,0,1.111.988h9.806l2.1-1.7a.8.8,0,0,1,1.009,1.249l-.555.448h4.2c-.061-.443-.14-.869-.234-1.274a4.083,4.083,0,0,0-4.64-3.073l-4.785.805-.064.011L32.207,36a1.188,1.188,0,0,0-.768.484ZM7.866,19.119h9.325l-4.663-4.956Zm7.643-4.132L19.4,19.119H20.82V15.728l-3-3.194Zm-2.98-2.8a.8.8,0,0,1,.585.253l1.293,1.375,2.826-3a.8.8,0,0,1,1.17,0l2.418,2.571V5.734H7.435v11.5l4.509-4.792a.8.8,0,0,1,.585-.253ZM41.075,43.072h9.235v-3.11H34.774ZM36.2,49.564H.505V.5H28.033V9.926a.8.8,0,0,0,.8.8h9.431V33.35L32.29,34.356a.738.738,0,0,0-.151-.015H6.632a.8.8,0,0,0,0,1.607H29.894a2.767,2.767,0,0,0-.244,1.688,2.734,2.734,0,0,0,.229.72H25.127a.817.817,0,0,0-.326.069l-5.314,2.358a.8.8,0,0,0,0,1.468L24.8,44.609a.8.8,0,0,0,.326.07H31.7l2.043,1.008c-.011,1.678,1.229,2.959,2.455,3.877ZM5.829,19.922a.8.8,0,0,0,.8.8H21.623a.8.8,0,0,0,.8-.8V4.931a.8.8,0,0,0-.8-.8H6.632a.8.8,0,0,0-.8.8V19.922Zm0,6.219a.8.8,0,0,0,.8.8h14.41a.8.8,0,1,0,0-1.605H6.632a.8.8,0,0,0-.8.8Zm0,4.5a.8.8,0,0,0,.8.8H32.138a.8.8,0,1,0,0-1.605H6.632A.8.8,0,0,0,5.829,30.643Zm12.852,9a.8.8,0,0,0-.8-.8H6.632a.8.8,0,0,0,0,1.607H17.879A.8.8,0,0,0,18.682,39.647Zm35.766.315H51.915v3.11h2.533a1.555,1.555,0,1,0,0-3.11ZM41.206,43.136l-.131-.064H40.89a.816.816,0,0,1,.315.064Zm3.348,2.67a.8.8,0,1,1-1.01,1.249l-3.09-2.5.051.025a.7.7,0,0,1-.119-.08l.066.054-7.38-3.641a1.188,1.188,0,1,0-1.049,2.133l.183.089.038.018.032.016,2.676,1.322a.8.8,0,0,1,.435.867c-.311,1.666,1.84,3.017,3.127,3.824.3.19.558.351.764.5l0,0c.036.026.07.054.1.08l.007.006a1.072,1.072,0,0,1,.487.866V56H48.2V50.883c0-.016,0-.033,0-.051l.385-6.154H43.16ZM30.611,39.962H25.3l-3.5,1.554L25.3,43.072h4.68a2.791,2.791,0,0,1,.633-3.11Z" transform="translate(205.495 2147.5)" fill="#fff"/>
  </g>
</svg>
