<svg xmlns="http://www.w3.org/2000/svg" width="88" height="88" viewBox="0 0 88 88">
  <g id="Group_38962" data-name="Group 38962" transform="translate(-190 -2132)">
    <rect id="Rectangle_16962" data-name="Rectangle 16962" width="88" height="88" rx="10" transform="translate(190 2132)" fill="#d41f14"/>
    <g id="Group_38961" data-name="Group 38961" transform="translate(204.565 2147.006)">
      <path id="Path_51874" data-name="Path 51874" d="M31.755,13.821h9.068L30.26,3.258v9.068a1.5,1.5,0,0,0,1.5,1.5Z" transform="translate(3.48 0.033)" fill="#fff"/>
      <path id="Path_51875" data-name="Path 51875" d="M23.521,18.389a2.433,2.433,0,0,0,2.43-2.43v-5.2a2.424,2.424,0,1,0-4.849,0v5.2A2.427,2.427,0,0,0,23.521,18.389Z" transform="translate(2.335 0.667)" fill="#fff"/>
      <path id="Path_51876" data-name="Path 51876" d="M37.74,51.237a1.664,1.664,0,0,1-1.193-.509,1.634,1.634,0,0,1-.458-1.207l.155-3.884H13.2a.563.563,0,0,1,0-1.125H36.288l.1-2.432,1.582-2.763H30.636a.563.563,0,0,1,0-1.125h7.976l5.994-10.469V14.979H35.235a2.623,2.623,0,0,1-2.62-2.62V2.994H5.138a2.7,2.7,0,0,0-2.7,2.7V53.183a2.7,2.7,0,0,0,2.7,2.7H41.889a2.712,2.712,0,0,0,2.716-2.7V47.139L38.63,50.974a1.648,1.648,0,0,1-.89.263ZM34.761,33H19.948a.563.563,0,0,1,0-1.125H34.761a.563.563,0,0,1,0,1.125Zm5.156,0H37.761a.563.563,0,0,1,0-1.125h2.157a.563.563,0,0,1,0,1.125Zm0-7.446a.563.563,0,0,1,0,1.125h-15a.563.563,0,0,1,0-1.125ZM22.312,11.428a3.549,3.549,0,0,1,7.1,0v5.2a3.549,3.549,0,1,1-7.1,0v-5.2Zm-7-2.958a.562.562,0,0,1,.563-.563h4.287a.563.563,0,0,1,0,1.125H16.439V13.5h3.725a.563.563,0,0,1,0,1.125H16.439v4.465h3.725a.563.563,0,0,1,0,1.125H15.876a.562.562,0,0,1-.563-.563Zm-5.462,6.3A3.269,3.269,0,1,1,13.12,11.5.563.563,0,0,1,12,11.5a2.144,2.144,0,1,0-2.144,2.145A3.269,3.269,0,1,1,6.583,16.91a.563.563,0,1,1,1.125,0,2.144,2.144,0,1,0,2.144-2.144ZM7.123,25.55H21.166a.563.563,0,1,1,0,1.125H7.123a.563.563,0,1,1,0-1.125Zm0,6.321H16.2A.563.563,0,1,1,16.2,33H7.123a.563.563,0,1,1,0-1.125Zm0,6.321H26.791a.563.563,0,1,1,0,1.125H7.123a.563.563,0,0,1,0-1.125Zm0,6.32H9.6a.563.563,0,0,1,0,1.125H7.123a.563.563,0,0,1,0-1.125Zm14.794,7.446H7.123a.563.563,0,0,1,0-1.125H21.917a.563.563,0,1,1,0,1.125Z" transform="translate(0 0)" fill="#fff"/>
      <path id="Path_51877" data-name="Path 51877" d="M44.312,21.337,33.871,39.574l2.79,1.6L47.1,22.923Z" transform="translate(3.931 2.294)" fill="#fff"/>
      <path id="Path_51878" data-name="Path 51878" d="M33.351,45.118a.522.522,0,0,0,.81.461L39.7,42.024l-3.038-1.744L33.61,38.537Z" transform="translate(3.866 4.445)" fill="#fff"/>
      <path id="Path_51879" data-name="Path 51879" d="M0,0H21.024V3.215H0Z" transform="translate(41.579 44.024) rotate(-60.205)" fill="#fff"/>
      <path id="Path_51880" data-name="Path 51880" d="M51.3,20.441a3.815,3.815,0,0,0-1.631-2.194,3.928,3.928,0,0,0-5.4,1.485l-.619,1.08,3.285,1.879L50.21,24.57l.72-1.26a3.8,3.8,0,0,0,.371-2.869Z" transform="translate(5.155 1.839)" fill="#fff"/>
    </g>
  </g>
</svg>
