<svg xmlns="http://www.w3.org/2000/svg" width="88" height="88" viewBox="0 0 88 88">
  <g id="Group_38960" data-name="Group 38960" transform="translate(-190 -2132)">
    <rect id="Rectangle_16962" data-name="Rectangle 16962" width="88" height="88" rx="10" transform="translate(190 2132)" fill="#d41f14"/>
    <path id="Path_51873" data-name="Path 51873" d="M40.318,42.1l-7.01,2.487a1.31,1.31,0,0,1-1.673-1.673l2.487-7.01a.261.261,0,0,1,.066-.1L52.733,17.256a2.345,2.345,0,0,1,3.315,0l2.921,2.921a2.345,2.345,0,0,1,0,3.315L40.421,42.037a.261.261,0,0,1-.1.066Zm7.122-1.241v6.512a6.2,6.2,0,0,1-6.2,6.2H8.2a6.2,6.2,0,0,1-6.2-6.2V18.458H45.69L31.265,32.883a4.4,4.4,0,0,0-1.037,1.644l-2.487,7.008a5.442,5.442,0,0,0,6.948,6.948L41.7,46C42.317,45.777,47.439,40.862,47.439,40.862ZM12.327,43.243h6.545a2.065,2.065,0,1,0,0-4.131H12.327a2.065,2.065,0,1,0,0,4.131Zm0-8.262H23a2.065,2.065,0,0,0,0-4.131H12.327a2.065,2.065,0,0,0,0,4.131Zm0-8.262H31.265a2.065,2.065,0,1,0,0-4.131H12.327a2.065,2.065,0,1,0,0,4.131ZM2,14.327V10.2A6.2,6.2,0,0,1,8.2,4H41.243a6.2,6.2,0,0,1,6.2,6.2v4.131Z" transform="translate(203 2147)" fill="#fff" fill-rule="evenodd"/>
  </g>
</svg>
