<svg xmlns="http://www.w3.org/2000/svg" width="88" height="88" viewBox="0 0 88 88">
  <g id="Group_38970" data-name="Group 38970" transform="translate(-190 -2132)">
    <rect id="Rectangle_16962" data-name="Rectangle 16962" width="88" height="88" rx="10" transform="translate(190 2132)" fill="#d41f14"/>
    <g id="Group_38969" data-name="Group 38969" transform="translate(203 2146)">
      <path id="Path_51901" data-name="Path 51901" d="M43.955,11H40V47.909a3.955,3.955,0,1,0,7.909,0V14.955A3.955,3.955,0,0,0,43.955,11Z" transform="translate(12.091 1.591)" fill="#fff"/>
      <path id="Path_51902" data-name="Path 51902" d="M8,15H19.864V25.545H8Z" transform="translate(1.909 2.864)" fill="#fff"/>
      <path id="Path_51903" data-name="Path 51903" d="M49.455,49.5V11.273A5.273,5.273,0,0,0,44.182,6H7.273A5.273,5.273,0,0,0,2,11.273V49.5a3.955,3.955,0,0,0,3.955,3.955H50.807A6.522,6.522,0,0,1,49.455,49.5ZM7.273,17.864a2.636,2.636,0,0,1,2.636-2.636H21.773a2.636,2.636,0,0,1,2.636,2.636V28.409a2.636,2.636,0,0,1-2.636,2.636H9.909a2.636,2.636,0,0,1-2.636-2.636ZM42.864,44.227H8.591a1.318,1.318,0,0,1,0-2.636H42.864a1.318,1.318,0,1,1,0,2.636Zm0-6.591H8.591a1.318,1.318,0,0,1,0-2.636H42.864a1.318,1.318,0,1,1,0,2.636Zm0-6.591H29.682a1.318,1.318,0,1,1,0-2.636H42.864a1.318,1.318,0,1,1,0,2.636Zm0-6.591H29.682a1.318,1.318,0,1,1,0-2.636H42.864a1.318,1.318,0,1,1,0,2.636Zm0-6.591H29.682a1.318,1.318,0,0,1,0-2.636H42.864a1.318,1.318,0,1,1,0,2.636Z" fill="#fff"/>
    </g>
  </g>
</svg>
