<svg xmlns="http://www.w3.org/2000/svg" width="88" height="88" viewBox="0 0 88 88">
  <g id="Group_38968" data-name="Group 38968" transform="translate(-190 -2132)">
    <rect id="Rectangle_16962" data-name="Rectangle 16962" width="88" height="88" rx="10" transform="translate(190 2132)" fill="#d41f14"/>
    <g id="_x30_5" transform="translate(207 2149)">
      <path id="Path_51895" data-name="Path 51895" d="M30.571,7.357l1.046-1.046a2.525,2.525,0,0,0,0-3.571h0a2.525,2.525,0,0,0-3.571,0L27,3.786Z" transform="translate(19.643 0)" fill="#fff"/>
      <path id="Path_51896" data-name="Path 51896" d="M27,30.286a6.309,6.309,0,0,1-3.306-.936L2,16V37.429A3.571,3.571,0,0,0,5.571,41H48.429A3.571,3.571,0,0,0,52,37.429V16L30.307,29.35A6.309,6.309,0,0,1,27,30.286Z" transform="translate(0 11)" fill="#fff"/>
      <path id="Path_51897" data-name="Path 51897" d="M33.179,3.5,19.786,16.893,18,22.249h0l5.357-1.786L36.75,7.071Z" transform="translate(12.571 1.179)" fill="#fff"/>
      <path id="Path_51898" data-name="Path 51898" d="M10.929,10.207l-8,5.052a2.061,2.061,0,0,0,0,3.443l8,5.052Z" transform="translate(0 6.448)" fill="#fff"/>
      <path id="Path_51899" data-name="Path 51899" d="M33,15.259l-8-5.052V23.754L33,18.7a2.061,2.061,0,0,0,0-3.443Z" transform="translate(18.071 6.448)" fill="#fff"/>
      <path id="Path_51900" data-name="Path 51900" d="M19.916,38.829a4.524,4.524,0,0,0,4.742,0L36.571,31.5V18.811L32.179,23.2l-5.757,1.919a1.786,1.786,0,0,1-2.259-2.259l1.919-5.757L36.571,6.618V3.786A1.786,1.786,0,0,0,34.786,2h-25A1.786,1.786,0,0,0,8,3.786V31.5ZM14.25,7.357H30.321a.893.893,0,1,1,0,1.786H14.25a.893.893,0,0,1,0-1.786Zm0,5.357H24.964a.893.893,0,0,1,0,1.786H14.25a.893.893,0,0,1,0-1.786Zm0,5.357h7.143a.893.893,0,0,1,0,1.786H14.25a.893.893,0,0,1,0-1.786Zm0,5.357h7.143a.893.893,0,0,1,0,1.786H14.25a.893.893,0,0,1,0-1.786Zm0,5.357H30.321a.893.893,0,1,1,0,1.786H14.25a.893.893,0,0,1,0-1.786Z" transform="translate(4.714 0)" fill="#fff"/>
    </g>
  </g>
</svg>
