<svg xmlns="http://www.w3.org/2000/svg" width="88" height="88" viewBox="0 0 88 88">
  <g id="Group_38967" data-name="Group 38967" transform="translate(-176 -2137)">
    <rect id="Rectangle_16962" data-name="Rectangle 16962" width="88" height="88" rx="10" transform="translate(176 2137)" fill="#d41f14"/>
    <g id="Group_38966" data-name="Group 38966" transform="translate(193 2154)">
      <g id="Group_38964" data-name="Group 38964" transform="translate(1.054 1.054)">
        <path id="Path_51881" data-name="Path 51881" d="M61.871,83.628H10V54.636A2.636,2.636,0,0,1,12.636,52h46.6a2.636,2.636,0,0,1,2.636,2.636Z" transform="translate(-10 -47.572)" fill="#fff"/>
        <path id="Path_51882" data-name="Path 51882" d="M91,10h34.791V46.056H91Z" transform="translate(-82.46 -10)" fill="#fff"/>
        <path id="Path_51883" data-name="Path 51883" d="M141,128.853v.527h13.706v-.527a6.853,6.853,0,0,0-13.706,0Z" transform="translate(-127.189 -110.192)" fill="#fff"/>
        <circle id="Ellipse_63" data-name="Ellipse 63" cx="3.726" cy="3.726" r="3.726" transform="translate(16.992 4.323)" fill="#fff"/>
        <path id="Path_51884" data-name="Path 51884" d="M321,52h5.271v6.326H321Z" transform="translate(-288.212 -47.572)" fill="#fff"/>
        <path id="Path_51885" data-name="Path 51885" d="M181,392h15.814v6.326H181Z" transform="translate(-162.972 -351.727)" fill="#fff"/>
        <g id="Group_38963" data-name="Group 38963" transform="translate(0 33.948)">
          <path id="Path_51886" data-name="Path 51886" d="M166.558,452H148.636A2.636,2.636,0,0,0,146,454.636v2.636h23.194v-2.636A2.636,2.636,0,0,0,166.558,452Z" transform="translate(-131.662 -439.349)" fill="#fff"/>
          <path id="Path_51887" data-name="Path 51887" d="M10,332v3.69a2.636,2.636,0,0,0,2.636,2.636h46.6a2.636,2.636,0,0,0,2.636-2.636V332Z" transform="translate(-10 -332)" fill="#fff"/>
        </g>
      </g>
      <g id="Group_38965" data-name="Group 38965">
        <path id="Path_51888" data-name="Path 51888" d="M132.054,58.868H145.76a1.054,1.054,0,0,0,1.054-1.054v-.527a7.916,7.916,0,0,0-4.576-7.169,4.744,4.744,0,1,0-6.662,0A7.916,7.916,0,0,0,131,57.287v.527A1.054,1.054,0,0,0,132.054,58.868Zm6.853-14.76a2.636,2.636,0,1,1-2.636,2.636A2.639,2.639,0,0,1,138.907,44.109Zm0,7.38a5.806,5.806,0,0,1,5.775,5.271h-11.55A5.806,5.806,0,0,1,138.907,51.489Z" transform="translate(-117.189 -37.572)" fill="#d41f14"/>
        <path id="Path_51889" data-name="Path 51889" d="M312.054,184.109h5.271a1.054,1.054,0,0,0,0-2.109h-5.271a1.054,1.054,0,1,0,0,2.109Z" transform="translate(-278.212 -162.812)" fill="#d41f14"/>
        <path id="Path_51890" data-name="Path 51890" d="M312.054,144.109h5.271a1.054,1.054,0,0,0,0-2.109h-5.271a1.054,1.054,0,1,0,0,2.109Z" transform="translate(-278.212 -127.029)" fill="#d41f14"/>
        <path id="Path_51891" data-name="Path 51891" d="M157.357,263.054A1.054,1.054,0,0,0,156.3,262H132.054a1.054,1.054,0,1,0,0,2.109H156.3A1.054,1.054,0,0,0,157.357,263.054Z" transform="translate(-117.189 -234.378)" fill="#d41f14"/>
        <path id="Path_51892" data-name="Path 51892" d="M132.054,224.109H156.3a1.054,1.054,0,0,0,0-2.109H132.054a1.054,1.054,0,0,0,0,2.109Z" transform="translate(-117.189 -198.595)" fill="#d41f14"/>
        <path id="Path_51893" data-name="Path 51893" d="M312.054,50.434h5.271a1.054,1.054,0,0,0,1.054-1.054V43.054A1.054,1.054,0,0,0,317.326,42h-5.271A1.054,1.054,0,0,0,311,43.054V49.38A1.054,1.054,0,0,0,312.054,50.434Zm1.054-6.326h3.163v4.217h-3.163Z" transform="translate(-278.212 -37.572)" fill="#d41f14"/>
        <ellipse id="Ellipse_64" data-name="Ellipse 64" cx="1.118" cy="0.932" rx="1.118" ry="0.932" transform="translate(25.872 34.069)" fill="#d41f14"/>
        <path id="Path_51894" data-name="Path 51894" d="M50.289,4.428h-4.85V1.054A1.054,1.054,0,0,0,44.385,0H9.594A1.054,1.054,0,0,0,8.54,1.054V4.428H3.69A3.694,3.694,0,0,0,0,8.118V38.692a3.694,3.694,0,0,0,3.69,3.69H18.028V46.6a3.694,3.694,0,0,0-3.69,3.69v2.636a1.054,1.054,0,0,0,1.054,1.054H38.587a1.054,1.054,0,0,0,1.054-1.054V50.289a3.694,3.694,0,0,0-3.69-3.69V42.382H50.289a3.694,3.694,0,0,0,3.69-3.69V8.118A3.694,3.694,0,0,0,50.289,4.428ZM2.109,8.118A1.583,1.583,0,0,1,3.69,6.537H8.54V33.948H2.109ZM37.532,50.289v1.581H16.447V50.289a1.583,1.583,0,0,1,1.581-1.581H35.951A1.583,1.583,0,0,1,37.532,50.289Zm-17.4-3.69V42.382H33.842V46.6Zm31.734-7.907a1.583,1.583,0,0,1-1.581,1.581H3.69a1.583,1.583,0,0,1-1.581-1.581V36.056H22.245a1.054,1.054,0,1,0,0-2.109h-11.6V2.109H43.331V33.948h-11.6a1.054,1.054,0,1,0,0,2.109H51.871Zm0-4.744H45.439V6.537h4.85a1.583,1.583,0,0,1,1.581,1.581Z" fill="#ffe2e2"/>
      </g>
    </g>
  </g>
</svg>
