<svg xmlns="http://www.w3.org/2000/svg" width="112" height="109" viewBox="0 0 112 109">
  <g id="Group_37791" data-name="Group 37791" transform="translate(-258 -4356)">
    <rect id="Rectangle_16490" data-name="Rectangle 16490" width="112" height="109" rx="10" transform="translate(258 4356)" fill="#fff"/>
    <path id="Path_51400" data-name="Path 51400" d="M74.928,39.6a3.046,3.046,0,0,1-3.046-3.046A30.491,30.491,0,0,0,41.426,6.1a3.046,3.046,0,0,1,0-6.091C61.071-.4,78.379,16.91,77.973,36.555A3.045,3.045,0,0,1,74.928,39.6ZM53.608,36.554A12.2,12.2,0,0,0,41.426,24.372a3.046,3.046,0,0,0,0,6.091,6.1,6.1,0,0,1,6.091,6.091,3.046,3.046,0,1,0,6.091,0Zm12.182,0A24.392,24.392,0,0,0,41.426,12.19a3.046,3.046,0,0,0,0,6.091A18.294,18.294,0,0,1,59.7,36.554a3.046,3.046,0,0,0,6.091,0ZM53.675,77.976a3.046,3.046,0,0,0,2.086-.891L66.725,66.12a3.046,3.046,0,0,0,0-4.307L50.164,45.252a3.046,3.046,0,0,0-4.307,0l-4.13,4.13C37.6,47.4,30.508,40.284,28.587,36.16l4.089-4.089a3.063,3.063,0,0,0,0-4.307L16.015,11.1a3.045,3.045,0,0,0-4.307,0L.9,21.915A3.045,3.045,0,0,0,0,24.017C-.042,46.34,30.231,77.7,53.54,77.977ZM13.862,17.564,26.215,29.917l-3.39,3.39a3.046,3.046,0,0,0-.79,2.937c1.6,6.431,13.285,18.1,19.59,19.7a3.046,3.046,0,0,0,2.943-.788l3.443-3.443L60.264,63.967l-7.858,7.858c-16.891-.99-44.056-24.471-46.24-46.565Z" transform="translate(274.983 4371.987)" fill="#d41f14"/>
  </g>
</svg>
