<svg xmlns="http://www.w3.org/2000/svg" width="84" height="84" viewBox="0 0 84 84">
  <g id="Group_37692" data-name="Group 37692" transform="translate(-262 -2495)">
    <rect id="Rectangle_16472" data-name="Rectangle 16472" width="84" height="84" rx="6" transform="translate(262 2495)" fill="#d41f14"/>
    <path id="Path_51618" data-name="Path 51618" d="M66.827,31.948a5.275,5.275,0,0,1-3.728-9,2.622,2.622,0,0,0,0-3.708l-3.89-3.89a2.622,2.622,0,0,0-3.708,0,5.275,5.275,0,0,1-9-3.728A2.625,2.625,0,0,0,43.878,9h-5.5a2.625,2.625,0,0,0-2.622,2.622,5.275,5.275,0,0,1-9,3.728,2.622,2.622,0,0,0-3.708,0l-3.89,3.89a2.622,2.622,0,0,0,0,3.708,5.275,5.275,0,0,1-3.728,9,2.625,2.625,0,0,0-2.622,2.622v5.5a2.625,2.625,0,0,0,2.622,2.622,5.275,5.275,0,0,1,3.728,9,2.622,2.622,0,0,0,0,3.708l3.89,3.89a2.623,2.623,0,0,0,3.708,0,5.247,5.247,0,0,1,6.344-.85.815.815,0,0,0,1.216-.71v-7.2a.815.815,0,0,0-.408-.706,14.373,14.373,0,1,1,14.434-.057.815.815,0,0,0-.4.7v7.269a.815.815,0,0,0,1.217.71,5.246,5.246,0,0,1,6.344.845,2.622,2.622,0,0,0,3.708,0L63.1,55.4a2.622,2.622,0,0,0,0-3.708,5.275,5.275,0,0,1,3.728-9,2.625,2.625,0,0,0,2.622-2.622v-5.5a2.625,2.625,0,0,0-2.622-2.622Zm.992,8.123a.993.993,0,0,1-.992.992,6.906,6.906,0,0,0-4.881,11.784.991.991,0,0,1,0,1.4l-3.89,3.89a.992.992,0,0,1-1.4,0,6.833,6.833,0,0,0-7.083-1.658V50.927a16,16,0,1,0-16.885.064v5.485A6.834,6.834,0,0,0,25.6,58.139a.992.992,0,0,1-1.4,0l-3.89-3.89a.992.992,0,0,1,0-1.4,6.906,6.906,0,0,0-4.881-11.784.993.993,0,0,1-.992-.992v-5.5a.993.993,0,0,1,.992-.992A6.906,6.906,0,0,0,20.31,21.8a.992.992,0,0,1,0-1.4L24.2,16.5a.992.992,0,0,1,1.4,0,6.906,6.906,0,0,0,11.784-4.881.993.993,0,0,1,.992-.992h5.5a.993.993,0,0,1,.992.992A6.906,6.906,0,0,0,56.653,16.5a.992.992,0,0,1,1.4,0l3.89,3.89a.991.991,0,0,1,0,1.4,6.906,6.906,0,0,0,4.881,11.784.993.993,0,0,1,.992.992v5.5Zm-16.567,4.4A12.292,12.292,0,0,0,53.5,37.363a12.426,12.426,0,0,0-6.132-10.684.815.815,0,0,0-1.227.7V38.019l-5.013,2.894-5.013-2.894V27.382a.815.815,0,0,0-1.227-.7,12.426,12.426,0,0,0-6.132,10.684,12.376,12.376,0,0,0,7.475,11.364V65.713a.815.815,0,0,0,.815.815H45.21a.815.815,0,0,0,.815-.815V48.727a12.348,12.348,0,0,0,5.227-4.252Zm-6.33,2.939a.815.815,0,0,0-.527.763V64.9H37.861V48.177a.815.815,0,0,0-.527-.763,10.742,10.742,0,0,1-2.849-18.491V38.49a.815.815,0,0,0,.408.706l5.828,3.365a.815.815,0,0,0,.815,0L47.363,39.2a.815.815,0,0,0,.408-.706V28.924a10.742,10.742,0,0,1-2.849,18.49Z" transform="translate(263.193 2499)" fill="#fff"/>
  </g>
</svg>
