<svg xmlns="http://www.w3.org/2000/svg" width="84" height="84" viewBox="0 0 84 84">
  <g id="Group_37692" data-name="Group 37692" transform="translate(-262 -2495)">
    <rect id="Rectangle_16472" data-name="Rectangle 16472" width="84" height="84" rx="6" transform="translate(262 2495)" fill="#d41f14"/>
    <path id="Path_51617" data-name="Path 51617" d="M10.462,48.107V14.178h0a3.3,3.3,0,0,1,3.3-3.3H51.636a3.3,3.3,0,0,1,3.3,3.3h0V32.457a12.43,12.43,0,0,1-.03,16.489l1.664,2.2a2.292,2.292,0,0,1,2.065.893l6.888,9.1a2.292,2.292,0,0,1-.444,3.2l-1.981,1.5a2.292,2.292,0,0,1-3.2-.444l-6.888-9.1a2.29,2.29,0,0,1-.3-2.23l-1.664-2.2a12.4,12.4,0,0,1-2.286.846v2.46a.8.8,0,0,1-.795.795H43.276a.8.8,0,0,1-.795-.795V52.709a12.35,12.35,0,0,1-3.142-1.3H13.766a3.3,3.3,0,0,1-3.3-3.3ZM53.347,18.9V14.179h0a1.714,1.714,0,0,0-1.712-1.712H13.763a1.714,1.714,0,0,0-1.712,1.712h0V18.9ZM46.08,14.478a1.206,1.206,0,1,1-1.206,1.206A1.207,1.207,0,0,1,46.08,14.478Zm-3.539,0a1.206,1.206,0,1,1-1.206,1.206A1.207,1.207,0,0,1,42.541,14.478Zm7.077,0a1.206,1.206,0,1,1-1.206,1.206A1.207,1.207,0,0,1,49.618,14.478Zm3.729,16.468V20.49h-41.3V48.107a1.714,1.714,0,0,0,1.714,1.714H37.2A12.429,12.429,0,0,1,53.347,30.947ZM16.53,34.311a.795.795,0,0,1,0-1.589h8.084a.795.795,0,1,1,0,1.589Zm0-4.319a.795.795,0,0,1,0-1.589H32.7a.795.795,0,0,1,0,1.589Zm0-4.319a.795.795,0,0,1,0-1.589h8.084a.795.795,0,0,1,0,1.589Zm37.234,24.4a12.512,12.512,0,0,1-1.325,1l1.339,1.77,1.325-1Zm-9.694-1.18v5.486h3.1V52.095c0-.01,0-.019,0-.028V48.889q0-.016,0-.031V43.067a.8.8,0,0,1,.795-.795H49.48l-3.859-4.5-3.859,4.5h1.514a.8.8,0,0,1,.795.795v5.824ZM54.41,54.36a.7.7,0,0,0-.135.977l6.888,9.1h0a.7.7,0,0,0,.976.134l1.981-1.5a.7.7,0,0,0,.135-.977L57.368,53a.7.7,0,0,0-.976-.136h0Zm-5.65-6.621a7.721,7.721,0,1,0-6.278,0V43.862H40.033a.795.795,0,0,1-.6-1.312l5.588-6.513a.795.795,0,0,1,1.206,0l5.588,6.513a.795.795,0,0,1-.6,1.312H48.76Zm0,3.322a10.839,10.839,0,0,0,2.128-.9q.19-.106.376-.22a10.909,10.909,0,0,0,2.04-1.609q.1-.1.2-.2a10.845,10.845,0,1,0-11.019,2.932V49.454a9.32,9.32,0,1,1,6.278,0Z" transform="translate(265.538 2498.123)" fill="#fff" fill-rule="evenodd"/>
  </g>
</svg>
