<svg xmlns="http://www.w3.org/2000/svg" width="84" height="84" viewBox="0 0 84 84">
  <g id="Group_37692" data-name="Group 37692" transform="translate(-262 -2495)">
    <rect id="Rectangle_16472" data-name="Rectangle 16472" width="84" height="84" rx="6" transform="translate(262 2495)" fill="#d41f14"/>
    <g id="Group_37870" data-name="Group 37870" transform="translate(276 2508.7)">
      <g id="Group_37870-2" data-name="Group 37870" transform="translate(8.313 2.3)">
        <path id="Path_51636" data-name="Path 51636" d="M46.538,53.375H8.063a.531.531,0,0,1-.562-.562V2.862A.531.531,0,0,1,8.063,2.3H46.538a.531.531,0,0,1,.563.563v11.25a.563.563,0,1,1-1.125,0V3.425H8.625V52.138h37.35V42.013a.563.563,0,0,1,1.125,0V52.7a.63.63,0,0,1-.562.675Z" transform="translate(-7.5 -2.3)" fill="#fff" stroke="#fff" stroke-width="0.6"/>
      </g>
      <g id="Group_37871" data-name="Group 37871" transform="translate(4.6 6.013)">
        <path id="Path_51637" data-name="Path 51637" d="M8.475,49.25H4.762a.531.531,0,0,1-.562-.562V6.163A.531.531,0,0,1,4.762,5.6H8.475a.531.531,0,0,1,.563.563V48.8a.515.515,0,0,1-.562.45Zm-3.15-1.125H7.8V6.725H5.325Z" transform="translate(-4.2 -5.6)" fill="#fff" stroke="#fff" stroke-width="0.6"/>
      </g>
      <g id="Group_37872" data-name="Group 37872" transform="translate(1 9.05)">
        <path id="Path_51638" data-name="Path 51638" d="M5.162,45.875h-3.6A.531.531,0,0,1,1,45.313V8.863A.531.531,0,0,1,1.562,8.3h3.6a.531.531,0,0,1,.563.563v36.45A.531.531,0,0,1,5.162,45.875ZM2.125,44.75H4.6V9.425H2.125Z" transform="translate(-1 -8.3)" fill="#fff" stroke="#fff" stroke-width="0.6"/>
      </g>
      <g id="Group_37873" data-name="Group 37873" transform="translate(14.388 40.1)">
        <path id="Path_51639" data-name="Path 51639" d="M17.625,44.675H13.463a.531.531,0,0,1-.562-.562v-7.65a.531.531,0,0,1,.563-.562h4.163a.531.531,0,0,1,.563.563v7.65A.6.6,0,0,1,17.625,44.675Zm-3.6-1.125h3.038V37.025H14.025Z" transform="translate(-12.9 -35.9)" fill="#fff" stroke="#fff" stroke-width="0.6"/>
      </g>
      <g id="Group_37874" data-name="Group 37874" transform="translate(21.813 37.288)">
        <path id="Path_51640" data-name="Path 51640" d="M24.225,44.988H20.063a.531.531,0,0,1-.562-.562V33.963a.531.531,0,0,1,.563-.562h4.163a.531.531,0,0,1,.563.563V44.425A.723.723,0,0,1,24.225,44.988Zm-3.712-1.125H23.55V34.525H20.513Z" transform="translate(-19.5 -33.4)" fill="#fff" stroke="#fff" stroke-width="0.6"/>
      </g>
      <g id="Group_37875" data-name="Group 37875" transform="translate(29.125 41.563)">
        <path id="Path_51641" data-name="Path 51641" d="M30.725,44.513H26.563A.531.531,0,0,1,26,43.95V37.763a.531.531,0,0,1,.563-.562h4.163a.531.531,0,0,1,.563.563V43.95A.531.531,0,0,1,30.725,44.513Zm-3.6-1.125h3.038V38.325H27.125Z" transform="translate(-26 -37.2)" fill="#fff" stroke="#fff" stroke-width="0.6"/>
      </g>
      <g id="Group_37876" data-name="Group 37876" transform="translate(36.55 34.7)">
        <path id="Path_51642" data-name="Path 51642" d="M37.325,45.275H33.162a.531.531,0,0,1-.562-.562V31.662a.531.531,0,0,1,.563-.562h4.162a.531.531,0,0,1,.563.563v13.05A.531.531,0,0,1,37.325,45.275Zm-3.6-1.125h3.037V32.225H33.725Z" transform="translate(-32.6 -31.1)" fill="#fff" stroke="#fff" stroke-width="0.6"/>
      </g>
      <g id="Group_37877" data-name="Group 37877" transform="translate(29.677 11.177)">
        <path id="Path_51643" data-name="Path 51643" d="M27.064,15.6a.584.584,0,0,1-.45-.225.556.556,0,0,1,.112-.787l6.3-4.275a.563.563,0,0,1,.675.9l-6.3,4.275a.413.413,0,0,1-.337.113Z" transform="translate(-26.491 -10.191)" fill="#fff" stroke="#fff" stroke-width="0.6"/>
      </g>
      <g id="Group_37878" data-name="Group 37878" transform="translate(17.752 11.29)">
        <path id="Path_51644" data-name="Path 51644" d="M16.464,13.9a.584.584,0,0,1-.45-.225.556.556,0,0,1,.113-.788l3.712-2.475a.563.563,0,1,1,.675.9L16.8,13.789a.413.413,0,0,1-.337.113Z" transform="translate(-15.891 -10.291)" fill="#fff" stroke="#fff" stroke-width="0.6"/>
      </g>
      <g id="Group_37879" data-name="Group 37879" transform="translate(24.277 11.74)">
        <path id="Path_51645" data-name="Path 51645" d="M24.514,15.2a.584.584,0,0,1-.45-.225L21.814,11.6a.563.563,0,1,1,.9-.675l2.25,3.375a.556.556,0,0,1-.113.788.413.413,0,0,1-.337.112Z" transform="translate(-21.691 -10.691)" fill="#fff" stroke="#fff" stroke-width="0.6"/>
      </g>
      <g id="Group_37880" data-name="Group 37880" transform="translate(21.272 8.283)">
        <path id="Path_51646" data-name="Path 51646" d="M21.473,12.66h-.45a2.326,2.326,0,0,1-1.575-1.125,2.3,2.3,0,0,1-.337-1.912,2.326,2.326,0,0,1,1.125-1.575,2.51,2.51,0,0,1,3.487.675,2.3,2.3,0,0,1,.338,1.913,2.326,2.326,0,0,1-1.125,1.575A4.293,4.293,0,0,1,21.473,12.66Zm-.9-3.825a1.147,1.147,0,0,0-.562.9,1.386,1.386,0,0,0,.225,1.125,1.147,1.147,0,0,0,.9.563A1.386,1.386,0,0,0,22.26,11.2a1.147,1.147,0,0,0,.563-.9A1.386,1.386,0,0,0,22.6,9.173,1.55,1.55,0,0,0,20.573,8.835Z" transform="translate(-19.019 -7.619)" fill="#fff" stroke="#fff" stroke-width="0.6"/>
      </g>
      <g id="Group_37881" data-name="Group 37881" transform="translate(26.109 14.583)">
        <path id="Path_51647" data-name="Path 51647" d="M25.773,18.26h-.45a2.326,2.326,0,0,1-1.575-1.125,2.3,2.3,0,0,1-.337-1.912,2.326,2.326,0,0,1,1.125-1.575,2.512,2.512,0,1,1,2.813,4.163,2.812,2.812,0,0,1-1.575.45Zm0-4.05a2.086,2.086,0,0,0-.788.225,1.147,1.147,0,0,0-.562.9,1.386,1.386,0,0,0,.225,1.125,1.147,1.147,0,0,0,.9.563,1.386,1.386,0,0,0,1.125-.225,1.44,1.44,0,0,0,.337-2.025,1.807,1.807,0,0,0-1.238-.562Z" transform="translate(-23.319 -13.219)" fill="#fff" stroke="#fff" stroke-width="0.6"/>
      </g>
      <g id="Group_37882" data-name="Group 37882" transform="translate(35.784 8.171)">
        <path id="Path_51648" data-name="Path 51648" d="M34.373,12.56h-.45a2.326,2.326,0,0,1-1.575-1.125,2.3,2.3,0,0,1-.337-1.912,2.326,2.326,0,0,1,1.125-1.575,2.512,2.512,0,0,1,2.813,4.163,2.812,2.812,0,0,1-1.575.45Zm0-4.05a2.086,2.086,0,0,0-.788.225,1.147,1.147,0,0,0-.562.9,1.386,1.386,0,0,0,.225,1.125,1.147,1.147,0,0,0,.9.563,1.386,1.386,0,0,0,1.125-.225,1.44,1.44,0,0,0,.338-2.025A1.807,1.807,0,0,0,34.373,8.51Z" transform="translate(-31.919 -7.519)" fill="#fff" stroke="#fff" stroke-width="0.6"/>
      </g>
      <g id="Group_37883" data-name="Group 37883" transform="translate(14.184 12.672)">
        <path id="Path_51649" data-name="Path 51649" d="M15.173,16.56h-.45a2.326,2.326,0,0,1-1.575-1.125,2.3,2.3,0,0,1-.337-1.912,2.326,2.326,0,0,1,1.125-1.575,2.3,2.3,0,0,1,1.912-.338,2.326,2.326,0,0,1,1.575,1.125,2.51,2.51,0,0,1-.675,3.488A4.416,4.416,0,0,1,15.173,16.56Zm0-3.937a2.086,2.086,0,0,0-.787.225,1.147,1.147,0,0,0-.562.9,1.386,1.386,0,0,0,.225,1.125,1.452,1.452,0,1,0,2.362-1.687,1.147,1.147,0,0,0-.9-.562Z" transform="translate(-12.719 -11.519)" fill="#fff" stroke="#fff" stroke-width="0.6"/>
      </g>
      <g id="Group_37884" data-name="Group 37884" transform="translate(21.7 22.775)">
        <path id="Path_51650" data-name="Path 51650" d="M26.375,21.625H19.963a.563.563,0,1,1,0-1.125h6.413a.531.531,0,0,1,.563.563.6.6,0,0,1-.562.563Z" transform="translate(-19.4 -20.5)" fill="#fff" stroke="#fff" stroke-width="0.6"/>
      </g>
      <g id="Group_37885" data-name="Group 37885" transform="translate(14.162 22.775)">
        <path id="Path_51651" data-name="Path 51651" d="M17.987,21.625H13.262a.563.563,0,1,1,0-1.125h4.725a.563.563,0,0,1,0,1.125Z" transform="translate(-12.7 -20.5)" fill="#fff" stroke="#fff" stroke-width="0.6"/>
      </g>
      <g id="Group_37886" data-name="Group 37886" transform="translate(26.087 25.362)">
        <path id="Path_51652" data-name="Path 51652" d="M29.825,23.925H23.862a.563.563,0,0,1,0-1.125h5.962a.562.562,0,0,1,0,1.125Z" transform="translate(-23.3 -22.8)" fill="#fff" stroke="#fff" stroke-width="0.6"/>
      </g>
      <g id="Group_37887" data-name="Group 37887" transform="translate(14.05 25.362)">
        <path id="Path_51653" data-name="Path 51653" d="M22.388,23.925H13.162a.563.563,0,1,1,0-1.125h9.225a.563.563,0,0,1,0,1.125Z" transform="translate(-12.6 -22.8)" fill="#fff" stroke="#fff" stroke-width="0.6"/>
      </g>
      <g id="Group_37888" data-name="Group 37888" transform="translate(22.15 27.95)">
        <path id="Path_51654" data-name="Path 51654" d="M25.875,26.225H20.363a.563.563,0,0,1,0-1.125h5.512a.531.531,0,0,1,.563.563A.6.6,0,0,1,25.875,26.225Z" transform="translate(-19.8 -25.1)" fill="#fff" stroke="#fff" stroke-width="0.6"/>
      </g>
      <g id="Group_37889" data-name="Group 37889" transform="translate(14.162 27.95)">
        <path id="Path_51655" data-name="Path 51655" d="M18.438,26.225H13.262a.563.563,0,0,1,0-1.125h5.175a.531.531,0,0,1,.563.563A.6.6,0,0,1,18.438,26.225Z" transform="translate(-12.7 -25.1)" fill="#fff" stroke="#fff" stroke-width="0.6"/>
      </g>
      <g id="Group_37890" data-name="Group 37890" transform="translate(26.538 30.537)">
        <path id="Path_51656" data-name="Path 51656" d="M29.775,28.525H24.263a.563.563,0,0,1,0-1.125h5.512a.563.563,0,0,1,0,1.125Z" transform="translate(-23.7 -27.4)" fill="#fff" stroke="#fff" stroke-width="0.6"/>
      </g>
      <g id="Group_37891" data-name="Group 37891" transform="translate(14.163 30.537)">
        <path id="Path_51657" data-name="Path 51657" d="M22.825,28.525H13.263a.563.563,0,0,1,0-1.125h9.563a.563.563,0,0,1,0,1.125Z" transform="translate(-12.7 -27.4)" fill="#fff" stroke="#fff" stroke-width="0.6"/>
      </g>
      <g id="Group_37892" data-name="Group 37892" transform="translate(14.163 33.125)">
        <path id="Path_51658" data-name="Path 51658" d="M19.338,30.825H13.263a.563.563,0,0,1,0-1.125h6.075a.563.563,0,0,1,0,1.125Z" transform="translate(-12.7 -29.7)" fill="#fff" stroke="#fff" stroke-width="0.6"/>
      </g>
      <g id="Group_37893" data-name="Group 37893" transform="translate(45.388 31.691)">
        <path id="Path_51659" data-name="Path 51659" d="M42.081,32.9a.619.619,0,0,1-.562-.337l-1.013-2.7c-.112-.112,0-.337,0-.45.113-.112.225-.225.338-.225a7.151,7.151,0,0,0,2.025-.675.342.342,0,0,1,.45,0l.338.337,1.013,2.7V32l-.338.338-2.138.787c0-.225,0-.225-.112-.225Zm-.225-2.925.563,1.575,1.012-.338-.562-1.575Z" transform="translate(-40.456 -28.425)" fill="#fff" stroke="#fff" stroke-width="0.6"/>
      </g>
      <g id="Group_37894" data-name="Group 37894" transform="translate(45.183 33.758)">
        <path id="Path_51660" data-name="Path 51660" d="M46.378,44.142a3.175,3.175,0,0,1-1.687-.45,4.04,4.04,0,0,1-1.913-2.362L40.3,32.667a.546.546,0,0,1,.338-.675L45.366,30.3a.5.5,0,0,1,.675.337l3.713,8.213a3.584,3.584,0,0,1,0,3.038,3.76,3.76,0,0,1-2.138,2.025,4.044,4.044,0,0,1-1.237.225ZM43.791,41.1a2.66,2.66,0,0,0,1.35,1.575,2.8,2.8,0,0,0,2.138.112,2.36,2.36,0,0,0,1.462-1.462,2.813,2.813,0,0,0,0-2.138L45.253,31.43l-3.713,1.35Z" transform="translate(-40.273 -30.262)" fill="#fff" stroke="#fff" stroke-width="0.6"/>
      </g>
      <g id="Group_37895" data-name="Group 37895" transform="translate(34.3 13.438)">
        <path id="Path_51661" data-name="Path 51661" d="M40.612,32.337A9.589,9.589,0,0,1,38.025,32a9.831,9.831,0,0,1-6.075-4.725,10.126,10.126,0,0,1-1.013-7.65,9.831,9.831,0,0,1,4.725-6.075,10.126,10.126,0,0,1,7.65-1.012,9.831,9.831,0,0,1,6.075,4.725,10.126,10.126,0,0,1,1.013,7.65,9.831,9.831,0,0,1-4.725,6.075,10.674,10.674,0,0,1-5.062,1.35ZM40.5,13.325A9.346,9.346,0,0,0,36,14.563a9.055,9.055,0,0,0-4.162,5.4,8.862,8.862,0,0,0,.9,6.75,9.055,9.055,0,0,0,5.4,4.162,8.389,8.389,0,0,0,6.75-.9,9.055,9.055,0,0,0,4.163-5.4,8.862,8.862,0,0,0-.9-6.75,9.055,9.055,0,0,0-5.4-4.163,7.254,7.254,0,0,0-2.25-.338Z" transform="translate(-30.6 -12.2)" fill="#fff" stroke="#fff" stroke-width="0.6"/>
      </g>
      <g id="Group_37896" data-name="Group 37896" transform="translate(37.002 16.334)">
        <path id="Path_51662" data-name="Path 51662" d="M40.2,29.2a5.477,5.477,0,0,1-1.35-.113,7.26,7.26,0,0,1-5.737-8.437,7.208,7.208,0,0,1,13.05-2.7,7.04,7.04,0,0,1,1.125,5.4A7.2,7.2,0,0,1,40.2,29.2Zm-5.962-8.437a6.036,6.036,0,0,0,4.837,7.087,5.725,5.725,0,0,0,4.5-.9,6.026,6.026,0,0,0,2.588-3.937,6.089,6.089,0,0,0-.9-4.613,6.026,6.026,0,0,0-3.937-2.588,6.354,6.354,0,0,0-7.087,4.95Z" transform="translate(-33.002 -14.774)" fill="#fff" stroke="#fff" stroke-width="0.6"/>
      </g>
    </g>
  </g>
</svg>
