<svg xmlns="http://www.w3.org/2000/svg" width="84" height="84" viewBox="0 0 84 84">
  <g id="Group_37692" data-name="Group 37692" transform="translate(-262 -2495)">
    <rect id="Rectangle_16472" data-name="Rectangle 16472" width="84" height="84" rx="6" transform="translate(262 2495)" fill="#d41f14"/>
    <g id="_x39_6_Link_building" transform="translate(276.996 2509.969)">
      <g id="Group_37780" data-name="Group 37780" transform="translate(0.004 0.031)">
        <g id="Group_37779" data-name="Group 37779" transform="translate(0 0)">
          <path id="Path_51378" data-name="Path 51378" d="M51.037,3.352a11.368,11.368,0,0,0-16.059,0l-7.3,7.3A11.331,11.331,0,0,0,25.854,24.3l-1.57,1.57A11.347,11.347,0,0,0,10.629,27.7L3.328,35a11.356,11.356,0,0,0,16.059,16.06l7.3-7.3A11.33,11.33,0,0,0,28.51,30.109l1.582-1.582a11.306,11.306,0,0,0,13.644-1.815l7.3-7.3a11.361,11.361,0,0,0,0-16.059Zm-18.764,11.9,7.3-7.3a4.856,4.856,0,0,1,6.867,6.867l-7.3,7.3a4.775,4.775,0,0,1-3.986,1.35l1.971-1.971a3,3,0,0,0,0-4.23,3.065,3.065,0,0,0-4.231,0l-2,2a4.838,4.838,0,0,1,1.377-4.013ZM34.1,18.465a1.293,1.293,0,0,1,1.828,1.829L20.27,35.948a1.322,1.322,0,0,1-1.828,0,1.3,1.3,0,0,1,0-1.829Zm-12,20.7-7.3,7.3A4.856,4.856,0,0,1,7.924,39.6l7.3-7.3a4.82,4.82,0,0,1,4.016-1.379l-2,2a2.991,2.991,0,1,0,4.23,4.23l2-2A4.838,4.838,0,0,1,22.092,39.164Zm3.4,3.4-7.3,7.3A9.658,9.658,0,0,1,4.529,36.2l7.3-7.3A9.6,9.6,0,0,1,23.019,27.14L20.656,29.5A6.5,6.5,0,0,0,14.024,31.1l-7.3,7.3a6.554,6.554,0,0,0,9.269,9.269l7.3-7.3a6.542,6.542,0,0,0,1.59-6.629l2.36-2.36a9.576,9.576,0,0,1-1.756,11.183ZM49.836,18.211l-7.3,7.3a9.642,9.642,0,0,1-11.2,1.774L33.715,24.9a6.471,6.471,0,0,0,6.625-1.587l7.3-7.3a6.554,6.554,0,0,0-9.269-9.269l-7.3,7.3a6.535,6.535,0,0,0-1.584,6.622L27.1,23.056a9.65,9.65,0,0,1,1.775-11.2l7.3-7.3A9.658,9.658,0,0,1,49.836,18.211Z" transform="translate(-0.004 -0.031)" fill="#fff"/>
          <path id="Path_51379" data-name="Path 51379" d="M108.9,110.093a.849.849,0,0,0,1.2-1.2l-2.152-2.152a.849.849,0,1,0-1.2,1.2Z" transform="translate(-95.191 -95.189)" fill="#fff"/>
          <path id="Path_51380" data-name="Path 51380" d="M184.115,74.484a.849.849,0,0,0,.845-.943l-.336-3.025a.849.849,0,1,0-1.688.187l.336,3.025A.849.849,0,0,0,184.115,74.484Z" transform="translate(-163.51 -62.359)" fill="#fff"/>
          <path id="Path_51381" data-name="Path 51381" d="M70.512,184.624l3.024.336a.849.849,0,0,0,.187-1.689l-3.024-.336a.849.849,0,0,0-.187,1.689Z" transform="translate(-62.351 -163.513)" fill="#fff"/>
          <path id="Path_51382" data-name="Path 51382" d="M370.687,369.484a.849.849,0,1,0-1.2,1.2l2.152,2.152a.849.849,0,0,0,1.2-1.2Z" transform="translate(-330.037 -330.038)" fill="#fff"/>
          <path id="Path_51383" data-name="Path 51383" d="M310.661,397.77a.85.85,0,0,0-.75.938l.336,3.025a.849.849,0,1,0,1.688-.187l-.336-3.025A.858.858,0,0,0,310.661,397.77Z" transform="translate(-277.004 -355.54)" fill="#fff"/>
          <path id="Path_51384" data-name="Path 51384" d="M401.729,310.249l-3.024-.336a.849.849,0,0,0-.187,1.689l3.024.336a.849.849,0,0,0,.187-1.689Z" transform="translate(-355.534 -277.01)" fill="#fff"/>
        </g>
      </g>
    </g>
  </g>
</svg>
