<svg xmlns="http://www.w3.org/2000/svg" width="80" height="80" viewBox="0 0 80 80">
  <g id="Group_209" data-name="Group 209" transform="translate(-1110 -4842)">
    <rect id="Rectangle_70" data-name="Rectangle 70" width="80" height="80" rx="10" transform="translate(1110 4842)" fill="#d41f14"/>
    <g id="Group_35147" data-name="Group 35147" transform="translate(1121.926 4855.161)">
      <g id="Group_35139" data-name="Group 35139" transform="translate(7.5 35.53)">
        <path id="Path_624" data-name="Path 624" d="M46.5,44.035a4.534,4.534,0,0,0-4.037.484L34.712,49.2a3.025,3.025,0,0,0-.969-.565l-11.708-4.2a3.386,3.386,0,0,0-2.665.081.079.079,0,0,0-.081.081l-4.683,2.826v-.242a1.62,1.62,0,0,0-1.615-1.615H9.115A1.62,1.62,0,0,0,7.5,47.184V59.3a1.62,1.62,0,0,0,1.615,1.615h3.8A1.62,1.62,0,0,0,14.525,59.3v-.4c1.776-.969,2.5-1.857,3.714-1.7l12.92,2.826a3.705,3.705,0,0,0,3.149-.565L47.47,49.041C49.247,47.83,49.085,45,46.5,44.035ZM9.115,59.3V47.184h3.8V59.3ZM46.5,47.749C33.1,57.924,33.42,58.973,31.563,58.408l-13-2.826h-.081c-1.857-.323-3.149.969-3.957,1.373V49.2l5.491-3.311a2.241,2.241,0,0,1,1.453,0l11.708,4.2a1.716,1.716,0,0,1,.807,2.584,1.736,1.736,0,0,1-2.1.565l-6.944-2.665a.818.818,0,1,0-.565,1.534l6.944,2.665a3.243,3.243,0,0,0,3.957-1.05,3.1,3.1,0,0,0,.4-3.149l7.671-4.6a3.112,3.112,0,0,1,2.665-.323C47.228,46.054,47.309,47.184,46.5,47.749Z" transform="translate(-7.5 -43.763)" fill="#fff"/>
      </g>
      <g id="Group_35140" data-name="Group 35140" transform="translate(22.093 7.445)">
        <path id="Path_625" data-name="Path 625" d="M30.2,29.264a3.349,3.349,0,0,1,1.373,2.1,2.3,2.3,0,0,0-1.13,2.019,2.412,2.412,0,0,0,1.938,2.342l.323,2.584a.859.859,0,0,0,.807.727h6.3a.859.859,0,0,0,.807-.727l.323-2.665a2.5,2.5,0,0,0,1.776-2.261,2.377,2.377,0,0,0-1.13-2.019,3.106,3.106,0,0,1,1.373-2.18A11.223,11.223,0,0,0,47.8,20.059,11.063,11.063,0,0,0,36.173,9,11.237,11.237,0,0,0,25.595,19.9a10.459,10.459,0,0,0,4.6,9.367ZM34.154,37.5l-.161-1.615h5.249L39.08,37.5Zm5.975-3.23H32.781a.807.807,0,1,1,0-1.615h7.348a.807.807,0,0,1,0,1.615ZM36.011,10.692a9.475,9.475,0,0,1,5.814,17.28,4.371,4.371,0,0,0-2.019,3.149H33.185a4.7,4.7,0,0,0-2.019-3.149,9.615,9.615,0,0,1-4.118-7.913,9.639,9.639,0,0,1,8.963-9.367Z" transform="translate(-25.573 -8.982)" fill="#fff"/>
      </g>
      <g id="Group_35141" data-name="Group 35141" transform="translate(31.886 11.572)">
        <path id="Path_626" data-name="Path 626" d="M38.588,15.714a5.416,5.416,0,0,1,5.652,5.41.807.807,0,0,0,1.615,0A7.055,7.055,0,0,0,38.507,14.1a.809.809,0,0,0-.807.807.83.83,0,0,0,.888.807Z" transform="translate(-37.7 -14.093)" fill="#fff"/>
      </g>
      <g id="Group_35142" data-name="Group 35142" transform="translate(32.209 1)">
        <path id="Path_627" data-name="Path 627" d="M38.907,5.764a.763.763,0,0,0,.807-.807V1.807a.807.807,0,1,0-1.615,0V4.957A.763.763,0,0,0,38.907,5.764Z" transform="translate(-38.1 -1)" fill="#fff"/>
      </g>
      <g id="Group_35143" data-name="Group 35143" transform="translate(25.975 2.115)">
        <path id="Path_628" data-name="Path 628" d="M31.688,6.434a.776.776,0,0,0,.727.484.485.485,0,0,0,.323-.081.741.741,0,0,0,.4-1.05L31.93,2.881a.741.741,0,0,0-1.05-.4.741.741,0,0,0-.4,1.05Z" transform="translate(-30.38 -2.38)" fill="#fff"/>
      </g>
      <g id="Group_35144" data-name="Group 35144" transform="translate(20.743 5.603)">
        <path id="Path_629" data-name="Path 629" d="M26.4,10.334a.8.8,0,1,0,1.13-1.13L25.273,6.942a.8.8,0,1,0-1.13,1.13Z" transform="translate(-23.9 -6.7)" fill="#fff"/>
      </g>
      <g id="Group_35145" data-name="Group 35145" transform="translate(41.333 5.845)">
        <path id="Path_630" data-name="Path 630" d="M50.773,10.634l2.261-2.261a.8.8,0,0,0-1.13-1.13l-2.261,2.18a.781.781,0,0,0,0,1.13A.858.858,0,0,0,50.773,10.634Z" transform="translate(-49.4 -7)" fill="#fff"/>
      </g>
      <g id="Group_35146" data-name="Group 35146" transform="translate(37.153 2.311)">
        <path id="Path_631" data-name="Path 631" d="M44.689,7.046a.485.485,0,0,0,.323.081.706.706,0,0,0,.727-.484L46.95,3.735A.8.8,0,0,0,45.5,3.089L44.285,6a.8.8,0,0,0,.4,1.05Z" transform="translate(-44.223 -2.623)" fill="#fff"/>
      </g>
    </g>
  </g>
</svg>
