<svg xmlns="http://www.w3.org/2000/svg" width="80" height="80" viewBox="0 0 80 80">
  <g id="Group_209" data-name="Group 209" transform="translate(-1110 -4842)">
    <rect id="Rectangle_70" data-name="Rectangle 70" width="80" height="80" rx="10" transform="translate(1110 4842)" fill="#d41f14"/>
    <g id="Group_35133" data-name="Group 35133" transform="translate(1102 4858)">
      <g id="Group_35134" data-name="Group 35134" transform="translate(57.333 37.6)">
        <g id="Group_35133-2" data-name="Group 35133">
          <path id="Path_621" data-name="Path 621" d="M356.949,396a.949.949,0,1,0,.949.95A.95.95,0,0,0,356.949,396Z" transform="translate(-356 -396)" fill="#fff"/>
        </g>
      </g>
      <g id="Group_35136" data-name="Group 35136" transform="translate(26)">
        <g id="Group_35135" data-name="Group 35135">
          <path id="Path_622" data-name="Path 622" d="M60.621,34.53l-4.513-1.5-1.62-3.24a10.4,10.4,0,0,0,2.815-5.5l.2-1.211h1.728a2.852,2.852,0,0,0,2.848-2.848V14.242a14.242,14.242,0,1,0-28.485,0v5.982a2.853,2.853,0,0,0,1.9,2.685v1.113a2.852,2.852,0,0,0,2.848,2.848h.834a10.3,10.3,0,0,0,1.593,2.466c.134.155.275.3.418.45l-1.619,3.239-4.513,1.5C29.809,36.28,26,41.8,26,47.665a.949.949,0,0,0,.949.949H68.727a.95.95,0,0,0,.95-.949C69.677,41.8,65.868,36.28,60.621,34.53Zm-.439-14.305a.951.951,0,0,1-.949.949H57.783c.241-1.87.4-3.859.467-5.819,0-.055,0-.109.005-.163h1.927Zm-23.737.949a.951.951,0,0,1-.949-.949V15.192h1.927q0,.149.01.3v.01h0c.066,1.906.225,3.844.461,5.672H36.444Zm1.9,3.8a.951.951,0,0,1-.949-.949v-.949h.778l.2,1.211c.039.23.086.46.141.688ZM37.4,13.293H35.531a12.344,12.344,0,0,1,24.615,0H58.281A9.617,9.617,0,0,0,48.688,3.8h-1.7A9.617,9.617,0,0,0,37.4,13.293Zm9.593-7.6h1.7a7.721,7.721,0,0,1,7.7,7.73c0,.3,0,.559-.007.8,0,0,0,.006,0,.009l-1.188-.17a15.257,15.257,0,0,1-8.578-4.289.95.95,0,0,0-.671-.278,8.59,8.59,0,0,0-6.6,3.125A7.718,7.718,0,0,1,46.989,5.7ZM40.484,24.972a54.273,54.273,0,0,1-1.139-9.215l1.278-1.7A6.683,6.683,0,0,1,45.564,11.4a17.174,17.174,0,0,0,9.356,4.537l1.4.2c-.093,1.983-.284,3.973-.558,5.8v0c-.087.588-.156.967-.331,2.025a8.065,8.065,0,0,1-5.724,6.486,7.471,7.471,0,0,1-8.386-3.587h1.936a2.853,2.853,0,0,0,2.685,1.9h1.9a2.848,2.848,0,0,0,0-5.7h-1.9a2.85,2.85,0,0,0-2.687,1.9Zm5.376,7.408a9.524,9.524,0,0,0,3.532.08l-1.678,1.774Zm.548,3.234L43.4,38.8a36.177,36.177,0,0,1-2.126-4.93L42.4,31.607Zm6.706-4.328,1.292,2.583A36.168,36.168,0,0,1,52.28,38.8l-3.223-3.223ZM44.99,25.921a.95.95,0,0,1,.949-.949h1.9a.949.949,0,0,1,0,1.9h-1.9A.951.951,0,0,1,44.99,25.921ZM27.937,46.715a12,12,0,0,1,7.72-10.384l4-1.332a38.063,38.063,0,0,0,2.7,5.862l.005.01h0a38.072,38.072,0,0,0,2.6,3.969l1.168,1.875Zm19.9-.846L46.551,43.8q-.022-.035-.046-.068a36.2,36.2,0,0,1-2.139-3.2l3.386-3.581,3.568,3.568a36.163,36.163,0,0,1-2.147,3.209C49.126,43.8,49.192,43.7,47.838,45.869Zm1.71.846,1.168-1.875a38.059,38.059,0,0,0,2.617-4l.014-.025,0,0A38.032,38.032,0,0,0,56.023,35l4,1.332a12,12,0,0,1,7.72,10.384H49.548Z" transform="translate(-26)" fill="#fff"/>
        </g>
      </g>
      <g id="Group_35138" data-name="Group 35138" transform="translate(60.67 39.413)">
        <g id="Group_35137" data-name="Group 35137">
          <path id="Path_623" data-name="Path 623" d="M395.356,418.549a9.493,9.493,0,0,0-2.688-3.263.95.95,0,0,0-1.158,1.505,7.583,7.583,0,0,1,2.147,2.607.95.95,0,0,0,1.7-.849Z" transform="translate(-391.139 -415.088)" fill="#fff"/>
        </g>
      </g>
    </g>
  </g>
</svg>
