<svg xmlns="http://www.w3.org/2000/svg" width="80" height="80" viewBox="0 0 80 80">
  <g id="Group_209" data-name="Group 209" transform="translate(-1110 -4842)">
    <rect id="Rectangle_70" data-name="Rectangle 70" width="80" height="80" rx="10" transform="translate(1110 4842)" fill="#d41f14"/>
    <g id="Group_35148" data-name="Group 35148" transform="translate(1124.5 4855.477)">
      <g id="Group_35148-2" data-name="Group 35148" transform="translate(2.5 1.523)">
        <path id="Path_632" data-name="Path 632" d="M45.707,16.993a.87.87,0,0,0-.713,1,20.038,20.038,0,0,1-6.856,18.7,12.946,12.946,0,0,0-9.026-10.437,6.963,6.963,0,1,0-7.7,0,12.946,12.946,0,0,0-9.026,10.437A20.038,20.038,0,0,1,5.525,18a.871.871,0,1,0-1.717-.289A21.73,21.73,0,0,0,21.653,42.785a.816.816,0,0,0,.143.012.87.87,0,0,0,.141-1.729A19.935,19.935,0,0,1,14,37.9a11.292,11.292,0,0,1,22.524,0,19.936,19.936,0,0,1-7.94,3.167.87.87,0,0,0,.141,1.729.816.816,0,0,0,.143-.012A21.73,21.73,0,0,0,46.711,17.707a.866.866,0,0,0-1-.714Zm-25.67,3.47a5.222,5.222,0,1,1,5.222,5.222A5.228,5.228,0,0,1,20.037,20.463Z" transform="translate(-1.759 7.348)" fill="#fff" fill-rule="evenodd"/>
        <path id="Path_633" data-name="Path 633" d="M29.606,8.408a.87.87,0,0,0-.7-.593l-5.561-.807-2.487-5.04a.908.908,0,0,0-1.561,0l-2.487,5.04-5.561.807A.871.871,0,0,0,10.763,9.3l4.025,3.922-.95,5.538a.87.87,0,0,0,1.263.918l4.974-2.616,4.974,2.616a.86.86,0,0,0,.405.1.871.871,0,0,0,.858-1.018l-.95-5.538L29.385,9.3a.872.872,0,0,0,.22-.892Zm-5.787,3.886a.873.873,0,0,0-.25.772l.729,4.252L20.479,15.31a.87.87,0,0,0-.811,0l-3.818,2.008.729-4.252a.873.873,0,0,0-.25-.772L13.241,9.285l4.269-.62a.873.873,0,0,0,.655-.476L20.074,4.32l1.909,3.869a.873.873,0,0,0,.655.476l4.269.62-3.089,3.009Z" transform="translate(3.426 -1.523)" fill="#fff" fill-rule="evenodd"/>
        <path id="Path_634" data-name="Path 634" d="M5.172,19.449a.87.87,0,0,0,1.263.918l3.9-2.05,3.9,2.05a.86.86,0,0,0,.405.1.871.871,0,0,0,.858-1.018l-.745-4.34L17.9,12.036a.871.871,0,0,0-.483-1.486l-4.359-.632L11.114,5.967a.908.908,0,0,0-1.561,0L7.6,9.918l-4.359.632a.871.871,0,0,0-.483,1.486l3.154,3.073Zm.069-7.429,3.066-.445a.873.873,0,0,0,.655-.476L10.333,8.32,11.7,11.1a.873.873,0,0,0,.655.476l3.066.445-2.218,2.161a.873.873,0,0,0-.25.772l.524,3.053-2.742-1.442a.87.87,0,0,0-.811,0L7.186,18.006l.524-3.053a.873.873,0,0,0-.25-.772L5.241,12.021Z" transform="translate(-2.5 1.439)" fill="#fff" fill-rule="evenodd"/>
        <path id="Path_635" data-name="Path 635" d="M35.421,10.55l-4.359-.632L29.114,5.967a.908.908,0,0,0-1.561,0L25.6,9.918l-4.359.632a.871.871,0,0,0-.483,1.486l3.154,3.073-.745,4.34a.87.87,0,0,0,1.263.918l3.9-2.05,3.9,2.05a.86.86,0,0,0,.405.1.871.871,0,0,0,.858-1.018l-.745-4.34L35.9,12.036a.871.871,0,0,0-.483-1.486Zm-4.214,3.631a.873.873,0,0,0-.25.772l.524,3.053-2.742-1.442a.87.87,0,0,0-.811,0l-2.742,1.442.524-3.053a.873.873,0,0,0-.25-.772l-2.218-2.161,3.066-.445a.873.873,0,0,0,.655-.476L28.333,8.32,29.7,11.1a.873.873,0,0,0,.655.476l3.066.445Z" transform="translate(10.833 1.439)" fill="#fff" fill-rule="evenodd"/>
      </g>
      <circle id="Ellipse_2" data-name="Ellipse 2" cx="0.87" cy="0.87" r="0.87" transform="translate(25.13 50.223)" fill="#fff"/>
    </g>
  </g>
</svg>
