<svg xmlns="http://www.w3.org/2000/svg" width="84" height="84" viewBox="0 0 84 84">
  <g id="Group_37693" data-name="Group 37693" transform="translate(-262 -2495)">
    <g id="Group_37725" data-name="Group 37725">
      <rect id="Rectangle_16472" data-name="Rectangle 16472" width="84" height="84" rx="6" transform="translate(262 2495)" fill="#d41f14"/>
      <g id="Group_37755" data-name="Group 37755" transform="translate(272 2504.583)">
        <path id="Path_51361" data-name="Path 51361" d="M56.16,35.317a1,1,0,0,0-1,1v8.449a1,1,0,0,1-1,1H7a1,1,0,0,1-1-1v-30.1a1,1,0,0,1,1-1H27.93a1,1,0,0,0,0-2H7a3,3,0,0,0-3,3v30.1a3,3,0,0,0,3,3H26.382v3.063a9.529,9.529,0,0,1-.31,2.384c-10.7.64-14.565,3.429-14.743,3.563a1,1,0,0,0,1.193,1.6c.046-.033,4.7-3.3,18.058-3.3,14.293.069,17.384,3.269,18.65,3.5a1.007,1.007,0,0,0,.6-1.8c-.178-.134-4.044-2.923-14.744-3.563a23.655,23.655,0,0,1-.31-5.447H54.16a3,3,0,0,0,3-3V36.317a1,1,0,0,0-1-1Zm-28.02,17.8a11.478,11.478,0,0,0,.242-2.288V47.766h4.395a28.838,28.838,0,0,0,.241,5.351C31.473,53.067,29.685,53.067,28.14,53.117Z" fill="#fff"/>
        <path id="Path_51362" data-name="Path 51362" d="M58.03,18.241a.146.146,0,0,1-.13-.094c-.328-1.744-1.2-2.931-1.666-4.246a2.144,2.144,0,0,0-.128-2.909l-1.68-1.68a2.141,2.141,0,0,0-2.911-.128,23.871,23.871,0,0,0-4.243-1.666.15.15,0,0,1-.1-.135,2.145,2.145,0,0,0-2.147-1.966H42.654a2.143,2.143,0,0,0-2.144,1.932c0,.071-.035.154-.1.168a14.222,14.222,0,0,0-4.084,1.689.141.141,0,0,1-.161-.023,2.145,2.145,0,0,0-2.909.128l-1.68,1.681A2.145,2.145,0,0,0,31.45,13.9c-.466,1.31-1.341,2.512-1.667,4.246a.146.146,0,0,1-.133.094,2.144,2.144,0,0,0-1.966,2.147v2.375a2.144,2.144,0,0,0,1.97,2.147.143.143,0,0,1,.129.095c.33,1.746,1.2,2.936,1.667,4.245a2.144,2.144,0,0,0,.128,2.909l1.681,1.682a2.145,2.145,0,0,0,2.908.126.144.144,0,0,1,.161-.023,14.178,14.178,0,0,0,4.086,1.69c.062.012.1.1.1.169a2.142,2.142,0,0,0,2.143,1.931h2.375a2.145,2.145,0,0,0,2.147-1.971.144.144,0,0,1,.1-.129,23.878,23.878,0,0,0,4.243-1.668,2.141,2.141,0,0,0,2.91-.126l1.681-1.681a2.145,2.145,0,0,0,.127-2.91C56.7,27.939,57.575,26.74,57.9,25a.145.145,0,0,1,.134-.094A2.144,2.144,0,0,0,60,22.763V20.388a2.144,2.144,0,0,0-1.97-2.148ZM58,22.763a.155.155,0,0,1-.146.155,2.138,2.138,0,0,0-1.9,1.619A12.141,12.141,0,0,1,54.5,28.046a2.137,2.137,0,0,0,.2,2.489.154.154,0,0,1-.009.21l-1.681,1.681a.157.157,0,0,1-.21.008,2.139,2.139,0,0,0-2.488-.2,12.172,12.172,0,0,1-3.508,1.452,2.137,2.137,0,0,0-1.621,1.9.155.155,0,0,1-.155.143H42.654a.168.168,0,0,1-.159-.184,2.133,2.133,0,0,0-1.614-1.861,12.161,12.161,0,0,1-3.51-1.452,2.142,2.142,0,0,0-2.49.2.154.154,0,0,1-.209-.009l-1.68-1.681a.154.154,0,0,1-.009-.21,2.137,2.137,0,0,0,.2-2.49,12.161,12.161,0,0,1-1.451-3.507,2.134,2.134,0,0,0-1.9-1.62.155.155,0,0,1-.142-.155V20.388a.155.155,0,0,1,.146-.155,2.135,2.135,0,0,0,1.9-1.618A12.179,12.179,0,0,1,33.18,15.1a2.136,2.136,0,0,0-.2-2.489.154.154,0,0,1,.009-.21l1.68-1.681a.154.154,0,0,1,.209-.01,2.136,2.136,0,0,0,2.49.2,12.2,12.2,0,0,1,3.51-1.452A2.133,2.133,0,0,0,42.5,7.6a.167.167,0,0,1,.159-.183h2.375a.155.155,0,0,1,.155.146,2.138,2.138,0,0,0,1.619,1.9,12.177,12.177,0,0,1,3.509,1.45,2.134,2.134,0,0,0,2.489-.2.155.155,0,0,1,.21.009l1.681,1.681a.154.154,0,0,1,.01.209,2.134,2.134,0,0,0-.2,2.489,12.177,12.177,0,0,1,1.452,3.512,2.137,2.137,0,0,0,1.9,1.617.155.155,0,0,1,.142.155Z" fill="#fff"/>
        <path id="Path_51363" data-name="Path 51363" d="M43.842,12.1a9.471,9.471,0,1,0,9.471,9.471A9.471,9.471,0,0,0,43.842,12.1Zm0,16.941a7.471,7.471,0,1,1,7.471-7.471,7.471,7.471,0,0,1-7.471,7.471Z" fill="#fff"/>
        <path id="Path_51364" data-name="Path 51364" d="M14.3,32.912a1,1,0,0,0-1.414,0L9.507,36.289a1,1,0,0,0,0,1.414l3.377,3.377A1,1,0,1,0,14.3,39.666L11.628,37l2.67-2.67a1,1,0,0,0,0-1.414Z" fill="#fff"/>
        <path id="Path_51365" data-name="Path 51365" d="M24.7,39.666a1,1,0,0,0,1.414,1.414L29.493,37.7a1,1,0,0,0,0-1.414l-3.377-3.377A1,1,0,1,0,24.7,34.326L27.372,37Z" fill="#fff"/>
        <path id="Path_51366" data-name="Path 51366" d="M19.374,33.377l-1.687,6.754a1,1,0,1,0,1.939.484l1.688-6.754a1,1,0,1,0-1.94-.484Z" fill="#fff"/>
      </g>
    </g>
  </g>
</svg>
