<svg xmlns="http://www.w3.org/2000/svg" width="84" height="84" viewBox="0 0 84 84">
  <g id="Group_37726" data-name="Group 37726" transform="translate(-262 -2495)">
    <rect id="Rectangle_16472" data-name="Rectangle 16472" width="84" height="84" rx="6" transform="translate(262 2495)" fill="#d41f14"/>
    <path id="path144" d="M30.651,3a27.269,27.269,0,0,0-3.96.288,1.3,1.3,0,0,0-1.06.923L24.609,7.7A23.442,23.442,0,0,0,18.9,10.064L15.72,8.316a1.3,1.3,0,0,0-1.4.1,27.378,27.378,0,0,0-5.6,5.6,1.3,1.3,0,0,0-.1,1.4L10.366,18.6A23.417,23.417,0,0,0,8,24.309s-3.486,1.018-3.486,1.018a1.3,1.3,0,0,0-.923,1.06,27.36,27.36,0,0,0,0,7.921,1.3,1.3,0,0,0,2.576-.376,24.748,24.748,0,0,1-.1-6.343l3.386-.99a1.3,1.3,0,0,0,.9-.956,20.833,20.833,0,0,1,2.62-6.321,1.3,1.3,0,0,0,.035-1.315l-1.694-3.1a24.732,24.732,0,0,1,3.9-3.9s3.1,1.694,3.1,1.694a1.3,1.3,0,0,0,1.315-.035,20.833,20.833,0,0,1,6.321-2.62,1.3,1.3,0,0,0,.956-.9l.99-3.386a24.6,24.6,0,0,1,5.519,0l.99,3.386a1.3,1.3,0,0,0,.956.9,20.833,20.833,0,0,1,6.321,2.62,1.3,1.3,0,0,0,1.315.035l3.1-1.694a24.733,24.733,0,0,1,3.9,3.9s-1.694,3.1-1.694,3.1a1.3,1.3,0,0,0,.035,1.315,20.833,20.833,0,0,1,2.62,6.321,1.3,1.3,0,0,0,.9.956l3.386.99a24.748,24.748,0,0,1-.1,6.343,1.3,1.3,0,0,0,2.576.376,27.36,27.36,0,0,0,0-7.921,1.3,1.3,0,0,0-.923-1.06L53.3,24.307A23.442,23.442,0,0,0,50.935,18.6l1.748-3.184a1.3,1.3,0,0,0-.1-1.4,27.378,27.378,0,0,0-5.6-5.6,1.3,1.3,0,0,0-1.4-.1L42.4,10.064A23.417,23.417,0,0,0,36.689,7.7s-1.018-3.486-1.018-3.486a1.3,1.3,0,0,0-1.06-.923A27.269,27.269,0,0,0,30.651,3Zm0,10.418a18.249,18.249,0,0,0-18.019,15.43,1.3,1.3,0,0,0,2.575.4,15.631,15.631,0,0,1,30.888,0,1.3,1.3,0,0,0,2.575-.4,18.249,18.249,0,0,0-18.019-15.43ZM13.721,34.255a11.721,11.721,0,1,0,0,23.441c1.688,0,4.074-.975,6.554-2.429A88.332,88.332,0,0,0,31.51,46.952,84.749,84.749,0,0,1,42.341,38.93c2-1.172,3.88-2.071,5.239-2.071a9.116,9.116,0,1,1,0,18.232c-1.847,0-4.1-.991-6.148-2.129a45.738,45.738,0,0,1-6.048-4.087,1.3,1.3,0,0,0-1.654,2.013,48.846,48.846,0,0,0,6.441,4.352c2.461,1.364,5.192,2.455,7.409,2.455a11.721,11.721,0,1,0,0-23.441c-1.688,0-4.074.975-6.554,2.429A88.432,88.432,0,0,0,29.791,45,84.749,84.749,0,0,1,18.96,53.019c-2,1.172-3.88,2.073-5.239,2.073a9.116,9.116,0,1,1,0-18.232c1.847,0,4.1.991,6.148,2.129a45.738,45.738,0,0,1,6.048,4.087,1.3,1.3,0,0,0,1.654-2.013,48.846,48.846,0,0,0-6.441-4.352c-2.461-1.364-5.192-2.455-7.409-2.455Zm0,5.209a6.511,6.511,0,1,0,0,13.023,1.3,1.3,0,1,0,0-2.6,3.907,3.907,0,1,1,0-7.814A8.791,8.791,0,0,1,17.59,43.7a40.15,40.15,0,0,1,4.393,3.253,1.3,1.3,0,0,0,1.709-1.964,39.828,39.828,0,0,0-6-4.248A9.15,9.15,0,0,0,13.721,39.464Zm33.86,0a1.3,1.3,0,0,0,0,2.6,3.907,3.907,0,0,1,0,7.814,8.791,8.791,0,0,1-3.869-1.636,40.15,40.15,0,0,1-4.393-3.253,1.3,1.3,0,1,0-1.709,1.964,39.828,39.828,0,0,0,6,4.248,9.15,9.15,0,0,0,3.968,1.281,6.511,6.511,0,1,0,0-13.023Z" transform="translate(273.349 2506.652)" fill="#fff" fill-rule="evenodd"/>
  </g>
</svg>
