<svg xmlns="http://www.w3.org/2000/svg" width="84" height="84" viewBox="0 0 84 84">
  <g id="Group_37726" data-name="Group 37726" transform="translate(-262 -2495)">
    <rect id="Rectangle_16472" data-name="Rectangle 16472" width="84" height="84" rx="6" transform="translate(262 2495)" fill="#d41f14"/>
    <g id="Group_37694" data-name="Group 37694" transform="translate(277.836 2510.836)">
      <path id="Path_51260" data-name="Path 51260" d="M139.376,240h-1.688A1.69,1.69,0,0,0,136,241.688v3.376a1.69,1.69,0,0,0,1.688,1.688h1.688a3.376,3.376,0,1,0,0-6.752Zm0,5.064h-1.688v-3.376h1.688a1.688,1.688,0,0,1,0,3.376Z" transform="translate(-121.652 -214.68)" fill="#fff"/>
      <path id="Path_51261" data-name="Path 51261" d="M221.064,244.927a.137.137,0,0,1-.267.043l-1.241-3.723a1.825,1.825,0,0,0-3.556.577v4.927h1.688v-4.927a.137.137,0,0,1,.267-.043L219.2,245.5a1.825,1.825,0,0,0,3.556-.577V240h-1.688Z" transform="translate(-193.212 -214.68)" fill="#fff"/>
      <path id="Path_51262" data-name="Path 51262" d="M296,241.887a1.877,1.877,0,0,0,1.043,1.688l2.222,1.111a.2.2,0,0,1-.089.378H296v1.688h3.177a1.887,1.887,0,0,0,.844-3.575l-2.222-1.111a.2.2,0,0,1,.089-.378h3.177V240h-3.177A1.889,1.889,0,0,0,296,241.887Z" transform="translate(-264.772 -214.68)" fill="#fff"/>
      <circle id="Ellipse_31" data-name="Ellipse 31" cx="1" cy="1" r="1" transform="translate(47.164 3.164)" fill="#fff"/>
      <path id="Path_51263" data-name="Path 51263" d="M344,96h1.688v1.688H344Z" transform="translate(-307.708 -85.872)" fill="#fff"/>
      <path id="Path_51264" data-name="Path 51264" d="M376,96h1.688v1.688H376Z" transform="translate(-336.332 -85.872)" fill="#fff"/>
      <path id="Path_51265" data-name="Path 51265" d="M408,96h1.688v1.688H408Z" transform="translate(-364.956 -85.872)" fill="#fff"/>
      <path id="Path_51266" data-name="Path 51266" d="M49.8,34.926a.526.526,0,0,1,.055-.233l.972-1.944L48.274,30.2l-1.855.927V16.036A2.535,2.535,0,0,0,43.888,13.5H27.008a13.57,13.57,0,0,0-.105-1.688h7.7V10.128H26.581a13.4,13.4,0,0,0-.559-1.688H31.65A1.7,1.7,0,0,0,33,7.765l2.025-2.7h8.947a4.22,4.22,0,1,0,0-1.688H35.026a1.7,1.7,0,0,0-1.35.675l-2.025,2.7H25.2A13.5,13.5,0,1,0,5.908,24.67V41.356A2.535,2.535,0,0,0,8.44,43.888H20.256v3.376H15.192a3.38,3.38,0,0,0-3.376,3.376A1.69,1.69,0,0,0,13.5,52.328h25.32a1.69,1.69,0,0,0,1.688-1.688,3.38,3.38,0,0,0-3.376-3.376H32.072V43.888h3.87l1.871,1.871,1.944-.972a.522.522,0,0,1,.755.467v2.01h5.064v-2.01a.522.522,0,0,1,.755-.467l1.944.972,2.548-2.548-.972-1.944a.522.522,0,0,1,.467-.755h2.01V35.448h-2.01a.522.522,0,0,1-.522-.522ZM48.108,1.688A2.532,2.532,0,1,1,45.576,4.22,2.535,2.535,0,0,1,48.108,1.688ZM20.256,13.5a16.574,16.574,0,0,0-.348-3.376h4.92A11.778,11.778,0,0,1,25.32,13.5Zm-18.568,0a11.778,11.778,0,0,1,.492-3.376H7.1A16.567,16.567,0,0,0,6.752,13.5c0,.211.005.423.013.635a2.526,2.526,0,0,0-.857,1.9v.844H2.175A11.884,11.884,0,0,1,1.688,13.5Zm6.752,0a14.876,14.876,0,0,1,.388-3.376H18.18a14.882,14.882,0,0,1,.388,3.376ZM13.5,2.126l1.382,1.58A14.878,14.878,0,0,1,17.679,8.44H9.329a14.874,14.874,0,0,1,2.793-4.734ZM24.178,8.44H19.463a16.563,16.563,0,0,0-3.306-5.846l-.642-.734a11.853,11.853,0,0,1,8.664,6.58ZM11.494,1.86l-.642.734A16.563,16.563,0,0,0,7.545,8.44H2.83a11.853,11.853,0,0,1,8.664-6.58ZM2.82,18.568H5.908v3.988A11.756,11.756,0,0,1,2.82,18.568Zm36,32.072H13.5a1.69,1.69,0,0,1,1.688-1.688H37.136A1.692,1.692,0,0,1,38.825,50.64Zm-8.441-3.376h-8.44V43.888h8.44Zm5.853-6-.467.933H30.384V40.512H28.7V42.2H27.008V40.512H25.32V42.2H23.632V40.512H21.944V42.2H8.44a.845.845,0,0,1-.844-.844V16.036a.845.845,0,0,1,.844-.844H43.888a.845.845,0,0,1,.844.844V28.7H43.044V18.568a1.69,1.69,0,0,0-1.688-1.688H10.972a1.69,1.69,0,0,0-1.688,1.688V37.136a1.69,1.69,0,0,0,1.688,1.688H33.76v1.688h2.01a.522.522,0,0,1,.467.755Zm0-6.574a.522.522,0,0,1-.467.755H33.76v1.688H10.972V18.568H41.356V28.7h-.844v2.01a.522.522,0,0,1-.755.467L37.813,30.2l-2.548,2.548Zm14.4,4.131h-.322a2.21,2.21,0,0,0-1.976,3.2l.428.855-.828.828-.856-.428a2.21,2.21,0,0,0-3.2,1.977v.322H42.2v-.322A2.21,2.21,0,0,0,39,43.277l-.855.428-.828-.828.428-.856a2.21,2.21,0,0,0-1.976-3.2h-.323V37.136h.322a2.21,2.21,0,0,0,1.976-3.2l-.428-.855.828-.828.856.428a2.21,2.21,0,0,0,3.2-1.976v-.323h1.688v.322a2.21,2.21,0,0,0,3.2,1.976l.855-.428.828.828-.428.856a2.21,2.21,0,0,0,1.976,3.2h.323Z" fill="#fff"/>
      <path id="Path_51267" data-name="Path 51267" d="M372.22,320a4.22,4.22,0,1,0,4.22,4.22A4.225,4.225,0,0,0,372.22,320Zm0,6.752a2.532,2.532,0,1,1,2.532-2.532A2.535,2.535,0,0,1,372.22,326.752Z" transform="translate(-329.176 -286.24)" fill="#fff"/>
    </g>
  </g>
</svg>
