<svg xmlns="http://www.w3.org/2000/svg" width="84" height="84" viewBox="0 0 84 84">
  <g id="Group_37680" data-name="Group 37680" transform="translate(-262 -2495)">
    <rect id="Rectangle_16472" data-name="Rectangle 16472" width="84" height="84" rx="6" transform="translate(262 2495)" fill="#d41f14"/>
    <g id="website_domain_name_magnifier_magnifying_glass_loupe" transform="translate(279 2512)">
      <g id="Group_37668" data-name="Group 37668" transform="translate(1 2)">
        <g id="monitoring_4_">
          <circle id="Ellipse_26" data-name="Ellipse 26" cx="0.5" cy="0.5" r="0.5" transform="translate(9.599 3.312)" fill="#fff"/>
          <circle id="Ellipse_27" data-name="Ellipse 27" cx="0.5" cy="0.5" r="0.5" transform="translate(6.599 3.312)" fill="#fff"/>
          <circle id="Ellipse_28" data-name="Ellipse 28" cx="0.5" cy="0.5" r="0.5" transform="translate(3.599 3.312)" fill="#fff"/>
          <path id="Path_51232" data-name="Path 51232" d="M46.338,7.573H2.287A.787.787,0,1,1,2.287,6H46.338a.787.787,0,0,1,0,1.573Z" transform="translate(-0.713 0.293)" fill="#fff"/>
          <path id="Path_51233" data-name="Path 51233" d="M19.092,42.9H3.36A2.363,2.363,0,0,1,1,40.545V4.36A2.363,2.363,0,0,1,3.36,2H45.838A2.363,2.363,0,0,1,48.2,4.36V36.612a.787.787,0,1,1-1.573,0V4.36a.788.788,0,0,0-.787-.787H3.36a.788.788,0,0,0-.787.787V40.545a.788.788,0,0,0,.787.787H19.092a.787.787,0,1,1,0,1.573Z" transform="translate(-1 -2)" fill="#fff"/>
        </g>
      </g>
      <g id="Group_37679" data-name="Group 37679" transform="translate(5.72 11.44)">
        <g id="Group_37673" data-name="Group 37673" transform="translate(6.293)">
          <g id="Group_37672" data-name="Group 37672">
            <circle id="Ellipse_29" data-name="Ellipse 29" cx="0.787" cy="0.787" r="0.787" transform="translate(22.812 19.666)" fill="#fff"/>
            <g id="Group_37669" data-name="Group 37669" transform="translate(10.307 22.117)">
              <path id="Path_51234" data-name="Path 51234" d="M19.19,25.9a10.941,10.941,0,0,1-4.149-.809.786.786,0,0,1,.593-1.455,9.6,9.6,0,0,0,9.482-1.4.786.786,0,0,1,.99,1.222A11.04,11.04,0,0,1,19.19,25.9Z" transform="translate(-14.551 -22.058)" fill="#fff"/>
            </g>
            <g id="Group_37671" data-name="Group 37671">
              <path id="Path_51235" data-name="Path 51235" d="M22.946,37.892A14.946,14.946,0,1,1,37.892,22.946,14.963,14.963,0,0,1,22.946,37.892Zm0-28.319A13.373,13.373,0,1,0,36.319,22.946,13.388,13.388,0,0,0,22.946,9.573Z" transform="translate(-8 -8)" fill="#fff"/>
              <g id="Group_37670" data-name="Group 37670" transform="translate(24.958 24.956)">
                <path id="Path_51236" data-name="Path 51236" d="M26.342,26.343A2.334,2.334,0,0,1,27,25.888l-1.794-1.8a.787.787,0,0,0-1.112,1.114L25.887,27a2.425,2.425,0,0,1,.455-.658Z" transform="translate(-23.864 -23.863)" fill="#fff"/>
                <path id="Path_51237" data-name="Path 51237" d="M27.647,26.073a1.569,1.569,0,0,1,1.112.461l3.933,3.933a1.573,1.573,0,1,1-2.225,2.225l-3.933-3.933a1.573,1.573,0,0,1,1.112-2.686Zm0-1.573a3.146,3.146,0,0,0-2.225,5.371L29.355,33.8A3.146,3.146,0,1,0,33.8,29.355l-3.933-3.933A3.125,3.125,0,0,0,27.647,24.5Z" transform="translate(-23.499 -23.497)" fill="#fff"/>
              </g>
            </g>
          </g>
        </g>
        <circle id="Ellipse_30" data-name="Ellipse 30" cx="0.5" cy="0.5" r="0.5" transform="translate(9.879 15.873)" fill="#fff"/>
        <g id="Group_37674" data-name="Group 37674" transform="translate(0 22.026)">
          <path id="Path_51238" data-name="Path 51238" d="M7.933,26.72H4.787A.787.787,0,0,1,4,25.933V22.787A.787.787,0,0,1,4.787,22H7.933a.787.787,0,0,1,.787.787v3.147A.787.787,0,0,1,7.933,26.72Zm-2.36-1.573H7.147V23.573H5.573Z" transform="translate(-4 -22)" fill="#fff"/>
        </g>
        <g id="Group_37675" data-name="Group 37675" transform="translate(0 12.586)">
          <path id="Path_51239" data-name="Path 51239" d="M7.933,20.72H4.787A.787.787,0,0,1,4,19.933V16.787A.787.787,0,0,1,4.787,16H7.933a.787.787,0,0,1,.787.787v3.147A.787.787,0,0,1,7.933,20.72Zm-2.36-1.573H7.147V17.573H5.573Z" transform="translate(-4 -16)" fill="#fff"/>
        </g>
        <g id="Group_37676" data-name="Group 37676" transform="translate(0 3.147)">
          <path id="Path_51240" data-name="Path 51240" d="M7.933,14.72H4.787A.787.787,0,0,1,4,13.933V10.787A.787.787,0,0,1,4.787,10H7.933a.787.787,0,0,1,.787.787v3.147A.787.787,0,0,1,7.933,14.72Zm-2.36-1.573H7.147V11.573H5.573Z" transform="translate(-4 -10)" fill="#fff"/>
        </g>
        <path id="Path_51241" data-name="Path 51241" d="M14.546,21.59A3.365,3.365,0,0,1,11.4,18.05a3.365,3.365,0,0,1,3.147-3.54,2.888,2.888,0,0,1,1.614.5.787.787,0,0,1-.878,1.306,1.3,1.3,0,0,0-.736-.231,1.806,1.806,0,0,0-1.573,1.967,1.806,1.806,0,0,0,1.573,1.967,1.321,1.321,0,0,0,.823-.3.787.787,0,1,1,.968,1.241,2.893,2.893,0,0,1-1.79.628Z" transform="translate(0.241 -4.268)" fill="#fff"/>
        <path id="Path_51242" data-name="Path 51242" d="M18.447,21.582a3.365,3.365,0,0,1-3.147-3.54,3.365,3.365,0,0,1,3.147-3.54,3.365,3.365,0,0,1,3.147,3.54A3.365,3.365,0,0,1,18.447,21.582Zm0-5.506a1.806,1.806,0,0,0-1.573,1.967,1.806,1.806,0,0,0,1.573,1.967,1.806,1.806,0,0,0,1.573-1.967A1.806,1.806,0,0,0,18.447,16.075Z" transform="translate(2.478 -4.273)" fill="#fff"/>
        <g id="Group_37677" data-name="Group 37677" transform="translate(28.319 10.226)">
          <path id="Path_51243" data-name="Path 51243" d="M25.933,21.58a.787.787,0,0,1-.787-.787V16.86a.787.787,0,1,0-1.573,0v3.147a.787.787,0,0,1-1.573,0V16.86a2.36,2.36,0,1,1,4.72,0v3.933A.787.787,0,0,1,25.933,21.58Z" transform="translate(-22 -14.5)" fill="#fff"/>
        </g>
        <g id="Group_37678" data-name="Group 37678" transform="translate(25.172 10.226)">
          <path id="Path_51244" data-name="Path 51244" d="M23.933,21.58a.787.787,0,0,1-.787-.787V16.86a.787.787,0,1,0-1.573,0v3.933a.787.787,0,1,1-1.573,0V15.287a.788.788,0,0,1,1.344-.557,2.361,2.361,0,0,1,3.376,2.13v3.933A.787.787,0,0,1,23.933,21.58Z" transform="translate(-20 -14.5)" fill="#fff"/>
        </g>
      </g>
    </g>
  </g>
</svg>
