<svg xmlns="http://www.w3.org/2000/svg" width="84" height="84" viewBox="0 0 84 84">
  <g id="Group_37692" data-name="Group 37692" transform="translate(-262 -2495)">
    <rect id="Rectangle_16472" data-name="Rectangle 16472" width="84" height="84" rx="6" transform="translate(262 2495)" fill="#d41f14"/>
    <g id="Group_37754" data-name="Group 37754" transform="translate(255.335 2509.423)">
      <path id="Path_51359" data-name="Path 51359" d="M69.414,7.085h-.646a4.657,4.657,0,0,0-7.846-5.016L57.565,7.085H28.729a4.3,4.3,0,0,0-4.3,4.3V38.866a4.3,4.3,0,0,0,4.3,4.3h16.7l-1.262,5.3H41.441a3.222,3.222,0,0,0-3.218,3.218v.672H34.866a1.064,1.064,0,1,0,0,2.128H63.277a1.064,1.064,0,0,0,0-2.128H59.92v-.672A3.222,3.222,0,0,0,56.7,48.463H53.979l-1.262-5.3h16.7a4.3,4.3,0,0,0,4.3-4.3V11.384a4.3,4.3,0,0,0-4.3-4.3ZM54.168,25.792c-1.664,1.165-4.78-.418-7.757,1.17-.726-3.773-.268-7.321,3.512-8.1a6.774,6.774,0,0,1,1.462-.139l3.849,2.856a3.435,3.435,0,0,1-1.067,4.217ZM55.24,14.386l3.012,2.235-2.316,2.824-2.727-2.023ZM62.69,3.253a2.529,2.529,0,1,1,4.058,3.011L59.6,14.973l-3.178-2.358Zm-4.9,48.429v.672H40.351v-.672a1.091,1.091,0,0,1,1.09-1.09H56.7a1.091,1.091,0,0,1,1.09,1.09Zm-6-3.218h-5.44l1.262-5.3H50.53Zm19.793-9.6a2.173,2.173,0,0,1-2.17,2.17H28.729a2.173,2.173,0,0,1-2.17-2.17V33.883H29.6a1.064,1.064,0,1,0,0-2.128H26.558V11.384a2.173,2.173,0,0,1,2.17-2.17H56.141l-4.935,7.376a7.27,7.27,0,0,0-5.53,2.336c-1.855,2.165-2.18,5.566-.968,10.11a1.065,1.065,0,0,0,1.763.5c2.751-2.629,6.178.239,9.247-2.245a5.573,5.573,0,0,0,1.61-6.181L67.08,9.213h2.334a2.173,2.173,0,0,1,2.17,2.17V31.755H38.111a1.064,1.064,0,1,0,0,2.128H71.584Z" fill="#fff"/>
      <path id="Path_51360" data-name="Path 51360" d="M103.891,298.444a1.064,1.064,0,1,0,1.251.835A1.063,1.063,0,0,0,103.891,298.444Z" transform="translate(-70.241 -266.669)" fill="#fff"/>
    </g>
  </g>
</svg>
