<svg xmlns="http://www.w3.org/2000/svg" width="84" height="84" viewBox="0 0 84 84">
  <g id="Group_37680" data-name="Group 37680" transform="translate(-262 -2495)">
    <rect id="Rectangle_16472" data-name="Rectangle 16472" width="84" height="84" rx="6" transform="translate(262 2495)" fill="#d41f14"/>
    <g id="XMLID_1011_" transform="translate(281.99 2512.814)">
      <g id="XMLID_217_" transform="translate(0.01)">
        <path id="XMLID_218_" d="M102.877,44a.867.867,0,1,0,.613.254A.873.873,0,0,0,102.877,44Z" transform="translate(-93.167 -40.185)" fill="#fff"/>
        <path id="XMLID_1591_" d="M54.877,44a.867.867,0,1,0,.613.254A.873.873,0,0,0,54.877,44Z" transform="translate(-49.328 -40.185)" fill="#fff"/>
        <path id="XMLID_1675_" d="M150.877,44a.867.867,0,1,0,.613.254A.873.873,0,0,0,150.877,44Z" transform="translate(-137.005 -40.185)" fill="#fff"/>
        <path id="XMLID_1676_" d="M160.048,360.02h-7.254a.867.867,0,1,0,0,1.734h7.254a.867.867,0,0,0,0-1.734Z" transform="translate(-138.756 -328.807)" fill="#fff"/>
        <path id="XMLID_1678_" d="M288.577,360.02a.867.867,0,1,0,.613.254A.872.872,0,0,0,288.577,360.02Z" transform="translate(-262.767 -328.807)" fill="#fff"/>
        <path id="XMLID_1682_" d="M340.957,360.02a.867.867,0,1,0,.613.254A.873.873,0,0,0,340.957,360.02Z" transform="translate(-310.606 -328.807)" fill="#fff"/>
        <path id="XMLID_1683_" d="M160.048,184.02h-7.254a.867.867,0,0,0,0,1.734h7.254a.867.867,0,1,0,0-1.734Z" transform="translate(-138.756 -168.066)" fill="#fff"/>
        <path id="XMLID_1686_" d="M288.577,184.02a.867.867,0,1,0,.613.254A.874.874,0,0,0,288.577,184.02Z" transform="translate(-262.767 -168.066)" fill="#fff"/>
        <path id="XMLID_1726_" d="M340.957,184.02a.867.867,0,1,0,.613.254A.873.873,0,0,0,340.957,184.02Z" transform="translate(-310.606 -168.066)" fill="#fff"/>
        <path id="XMLID_1727_" d="M160.048,272.02h-7.254a.867.867,0,0,0,0,1.734h7.254a.867.867,0,1,0,0-1.734Z" transform="translate(-138.756 -248.436)" fill="#fff"/>
        <path id="XMLID_1728_" d="M288.577,272.02a.867.867,0,1,0,.613.254A.872.872,0,0,0,288.577,272.02Z" transform="translate(-262.767 -248.436)" fill="#fff"/>
        <path id="XMLID_1729_" d="M340.957,272.02a.867.867,0,1,0,.613.254A.873.873,0,0,0,340.957,272.02Z" transform="translate(-310.606 -248.436)" fill="#fff"/>
        <path id="XMLID_1741_" d="M40.758,0H3.651A3.645,3.645,0,0,0,.01,3.641V29.646a3.645,3.645,0,0,0,3.641,3.641H9.2v.873a2.6,2.6,0,0,0,2.6,2.6h9.537v1.864a2.96,2.96,0,0,0-1.95,1.95h-9.32a.867.867,0,1,0,0,1.734h9.32a2.948,2.948,0,0,0,5.635,0h9.32a.867.867,0,0,0,0-1.734h-9.32a2.96,2.96,0,0,0-1.95-1.95V36.762h9.537a2.6,2.6,0,0,0,2.6-2.6v-.873h5.549A3.645,3.645,0,0,0,44.4,29.646V3.641A3.645,3.645,0,0,0,40.758,0ZM22.2,42.657a1.214,1.214,0,1,1,1.214-1.214A1.215,1.215,0,0,1,22.2,42.657ZM10.934,18.9V14.74a.868.868,0,0,1,.867-.867H32.608a.868.868,0,0,1,.867.867V18.9a.868.868,0,0,1-.867.867H11.8A.868.868,0,0,1,10.934,18.9Zm0,7.629V22.37A.868.868,0,0,1,11.8,21.5H32.608a.868.868,0,0,1,.867.867v4.162a.868.868,0,0,1-.867.867H11.8A.868.868,0,0,1,10.934,26.531Zm21.675,8.5H11.8a.868.868,0,0,1-.867-.867V30a.868.868,0,0,1,.867-.867H32.608a.868.868,0,0,1,.867.867v4.162A.868.868,0,0,1,32.608,35.028Zm8.15-3.474H35.209V30a2.59,2.59,0,0,0-.664-1.734,2.59,2.59,0,0,0,.664-1.734V22.37a2.59,2.59,0,0,0-.664-1.734,2.59,2.59,0,0,0,.664-1.734V14.74a2.6,2.6,0,0,0-2.6-2.6H11.8a2.6,2.6,0,0,0-2.6,2.6V18.9a2.59,2.59,0,0,0,.664,1.734A2.59,2.59,0,0,0,9.2,22.37v4.162a2.59,2.59,0,0,0,.664,1.734A2.59,2.59,0,0,0,9.2,30v1.555H3.651a1.909,1.909,0,0,1-1.907-1.907V9.363H18.3a.867.867,0,1,0,0-1.734H1.744V3.641A1.909,1.909,0,0,1,3.651,1.734H40.758a1.91,1.91,0,0,1,1.907,1.907V7.629H26.106a.867.867,0,0,0,0,1.734H42.665V29.646A1.91,1.91,0,0,1,40.758,31.554Z" transform="translate(-0.01)" fill="#fff"/>
        <path id="XMLID_1759_" d="M246.877,88a.867.867,0,1,0,.613.254A.873.873,0,0,0,246.877,88Z" transform="translate(-224.682 -80.371)" fill="#fff"/>
      </g>
    </g>
  </g>
</svg>
