<svg xmlns="http://www.w3.org/2000/svg" width="74.137" height="77.667" viewBox="0 0 74.137 77.667">
  <g id="Group_34680" data-name="Group 34680" transform="translate(-32 -21.333)">
    <path id="Path_2286" data-name="Path 2286" d="M407.1,35.454a1.765,1.765,0,0,0,1.765-1.765V23.1a1.765,1.765,0,1,0-3.53,0V33.689A1.765,1.765,0,0,0,407.1,35.454Z" transform="translate(-311.553)" fill="#d41f14"/>
    <path id="Path_2287" data-name="Path 2287" d="M449.766,78.12a1.765,1.765,0,0,0,1.765-1.765V65.764a1.765,1.765,0,1,0-3.53,0V76.355A1.765,1.765,0,0,0,449.766,78.12Z" transform="translate(-347.159 -35.605)" fill="#d41f14"/>
    <path id="Path_2288" data-name="Path 2288" d="M97.765,42.667A1.765,1.765,0,0,0,96,44.432V55.023a1.765,1.765,0,1,0,3.53,0V44.432a1.765,1.765,0,0,0-1.765-1.765Z" transform="translate(-53.409 -17.804)" fill="#d41f14"/>
    <path id="Path_2289" data-name="Path 2289" d="M55.1,106.667a1.765,1.765,0,0,0-1.765,1.765v10.591a1.765,1.765,0,1,0,3.53,0V108.432A1.765,1.765,0,0,0,55.1,106.667Z" transform="translate(-17.803 -71.213)" fill="#d41f14"/>
    <path id="Path_2290" data-name="Path 2290" d="M408.272,197.737a1.765,1.765,0,0,0-2.5,0l-2.282,2.282V183.1a1.765,1.765,0,1,0-3.53,0v16.92l-2.282-2.282a1.765,1.765,0,1,0-2.5,2.5l5.3,5.3a1.765,1.765,0,0,0,2.5,0l5.3-5.3A1.765,1.765,0,0,0,408.272,197.737Z" transform="translate(-302.652 -133.523)" fill="#d41f14"/>
    <path id="Path_2291" data-name="Path 2291" d="M168.751,64a19.417,19.417,0,1,0,19.417,19.417A19.417,19.417,0,0,0,168.751,64Zm3.1,27.72a7.069,7.069,0,0,1-1.338.5v1.784a1.765,1.765,0,1,1-3.53,0v-1.7a9.536,9.536,0,0,1-3.693-1.688,1.765,1.765,0,1,1,2.091-2.844c2.436,1.791,4.346,1.057,4.877.79a1.839,1.839,0,0,0,1.139-1.314c0-.838-.773-1.274-2.506-1.936-.312-.119-.6-.232-.855-.342-.173-.077-.382-.155-.61-.242-1.576-.6-4.855-1.844-4.855-5.267A5.183,5.183,0,0,1,165.648,75a7.062,7.062,0,0,1,1.338-.5V72.826a1.765,1.765,0,1,1,3.53,0v1.6a9.506,9.506,0,0,1,3.693,1.675,1.765,1.765,0,1,1-2.091,2.845c-2.437-1.791-4.347-1.057-4.877-.79a1.839,1.839,0,0,0-1.139,1.314c0,.83.906,1.332,2.578,1.967.294.112.56.214.783.312.2.089.438.178.689.274,1.67.638,4.777,1.825,4.777,5.234A5.183,5.183,0,0,1,171.854,91.72Z" transform="translate(-97.917 -35.606)" fill="#d41f14"/>
    <path id="Path_2292" data-name="Path 2292" d="M171.173,351.694a2.552,2.552,0,0,1-1.527,1.342l-30.873,10.291a9.47,9.47,0,0,1-7.29-.512l-8.985-4.492a8.362,8.362,0,0,0-5.119-.768l-7.14,1.191V343.23l12.224-4.069a9.594,9.594,0,0,1,5.993-.018L143.9,344.2a2.468,2.468,0,0,1-1.28,4.748l-9.708-1.765a1.763,1.763,0,0,0-.635,3.469l9.708,1.765a5.553,5.553,0,0,0,1.076.1,5.951,5.951,0,0,0,3.751-1.324L168.445,348a2.6,2.6,0,0,1,2.727,3.7Z" transform="translate(-65.292 -264.825)" fill="#d41f14"/>
    <path id="Path_2293" data-name="Path 2293" d="M41.417,340.679v20.343a1.938,1.938,0,0,1-1.933,1.933H33.933A1.932,1.932,0,0,1,32,361.022V340.679a1.938,1.938,0,0,1,1.933-1.933h5.551a1.944,1.944,0,0,1,1.933,1.933Z" transform="translate(0 -264.886)" fill="#d41f14"/>
  </g>
</svg>
