<svg id="Group_34677" data-name="Group 34677" xmlns="http://www.w3.org/2000/svg" width="77.865" height="77.864" viewBox="0 0 77.865 77.864">
  <path id="Path_2274" data-name="Path 2274" d="M104.117,311.142l-2.988,3.188,1.007,1.731H106.1l1.007-1.731Z" transform="translate(-84.651 -260.444)" fill="#d41f14"/>
  <path id="Path_2275" data-name="Path 2275" d="M20.532,15.851a10.939,10.939,0,0,1,6.8-6.032,1.988,1.988,0,0,1,2.162.719,4.9,4.9,0,0,0,4.258,1.976,4.9,4.9,0,0,0,4.232-1.947,2,2,0,0,1,2.193-.754,10.935,10.935,0,0,1,6.794,6.037,4.063,4.063,0,0,1,3.466-.3V11.124a14.56,14.56,0,0,0-.255-2.716,5.369,5.369,0,0,0-5.307-4.237,1.391,1.391,0,0,1-1.318-.951,3.8,3.8,0,0,0-1.37-1.367C40.922,1.007,38.436,0,33.751,0c-8.382,0-9.807,3.23-9.819,3.263a1.46,1.46,0,0,1-1.3.908,5.506,5.506,0,0,0-3.447,1.2,5.145,5.145,0,0,0-1.86,3.038,14.515,14.515,0,0,0-.255,2.713v4.427a4.063,4.063,0,0,1,3.466.3Z" transform="translate(-14.285)" fill="#d41f14"/>
  <path id="Path_2276" data-name="Path 2276" d="M105.141,358.4l-.983,10.754c.3.338.588.68.92,1.014a1.946,1.946,0,0,0,1.445.717,2.46,2.46,0,0,0,1.7-.713c.324-.325.63-.655.927-.984l-.987-10.787h-3.023Z" transform="translate(-87.186 -300.001)" fill="#d41f14"/>
  <path id="Path_2277" data-name="Path 2277" d="M67.737,325.735a1.475,1.475,0,0,1-.149-.185l-1.379-2.042A24.843,24.843,0,0,0,69.9,336.643l.78-8.526-1.012-1.739A2.108,2.108,0,0,1,67.737,325.735Z" transform="translate(-55.42 -270.795)" fill="#d41f14"/>
  <path id="Path_2278" data-name="Path 2278" d="M2.781,328.821H14.772A27.036,27.036,0,0,1,8.1,308.113a11.036,11.036,0,0,0-5.052,2.375A7.694,7.694,0,0,0,0,316.307v9.733a2.781,2.781,0,0,0,2.781,2.781Z" transform="translate(0 -257.909)" fill="#d41f14"/>
  <path id="Path_2279" data-name="Path 2279" d="M154.912,308.147c.07.7.125,1.573.125,2.585a27.32,27.32,0,0,1-6.8,18.117h12a2.781,2.781,0,0,0,2.781-2.781v-9.733a7.689,7.689,0,0,0-3.047-5.816A11.017,11.017,0,0,0,154.912,308.147Z" transform="translate(-124.086 -257.937)" fill="#d41f14"/>
  <path id="Path_2280" data-name="Path 2280" d="M149.792,323.4v-.118l-1.4,2.086a1.476,1.476,0,0,1-.149.185,2.108,2.108,0,0,1-1.931.642l-1.012,1.739.784,8.575A24.406,24.406,0,0,0,149.792,323.4Z" transform="translate(-121.622 -270.609)" fill="#d41f14"/>
  <path id="Path_2281" data-name="Path 2281" d="M107.962,264.013v-1.075a15,15,0,0,1-5.562,0v1.075l2.781,2.781Z" transform="translate(-85.715 -220.094)" fill="#d41f14"/>
  <path id="Path_2282" data-name="Path 2282" d="M258.781,270.723h30.59a2.781,2.781,0,0,0,2.781-2.781V233.181a2.781,2.781,0,0,0-2.781-2.781h-30.59A2.781,2.781,0,0,0,256,233.181v34.761A2.781,2.781,0,0,0,258.781,270.723Zm13.9-33.37h13.9a1.39,1.39,0,1,1,0,2.781h-13.9a1.39,1.39,0,1,1,0-2.781Zm0,8.343h13.9a1.39,1.39,0,0,1,0,2.781h-13.9a1.39,1.39,0,1,1,0-2.781Zm0,8.343h13.9a1.39,1.39,0,1,1,0,2.781h-13.9a1.39,1.39,0,1,1,0-2.781Zm0,8.343h13.9a1.39,1.39,0,0,1,0,2.781h-13.9a1.39,1.39,0,1,1,0-2.781Zm-12.107-24.62a1.39,1.39,0,0,1,1.966,0l.407.407,3.188-3.188a1.39,1.39,0,0,1,1.966,1.966l-4.171,4.171a1.39,1.39,0,0,1-1.966,0l-1.39-1.39A1.39,1.39,0,0,1,260.579,237.76Zm0,8.343a1.39,1.39,0,0,1,1.966,0l.407.407,3.188-3.188a1.39,1.39,0,0,1,1.966,1.966l-4.171,4.171a1.39,1.39,0,0,1-1.966,0l-1.39-1.39A1.39,1.39,0,0,1,260.579,246.1Zm0,8.343a1.39,1.39,0,0,1,1.966,0l.407.407,3.188-3.188a1.39,1.39,0,0,1,1.966,1.966l-4.171,4.171a1.39,1.39,0,0,1-1.966,0l-1.39-1.39A1.39,1.39,0,0,1,260.579,254.445Zm0,8.343a1.39,1.39,0,0,1,1.966,0l.407.407,3.188-3.188a1.39,1.39,0,0,1,1.966,1.966l-4.171,4.171a1.39,1.39,0,0,1-1.966,0l-1.39-1.39A1.39,1.39,0,0,1,260.579,262.788Z" transform="translate(-214.287 -192.858)" fill="#d41f14"/>
  <path id="Path_2283" data-name="Path 2283" d="M74.886,284.331l-3.539,2.654,2.362,3.5,3.543-3.784Z" transform="translate(-59.722 -238.002)" fill="#d41f14"/>
  <path id="Path_2284" data-name="Path 2284" d="M137.25,286.985l-3.539-2.654-2.367,2.366,3.543,3.784Z" transform="translate(-109.943 -238.002)" fill="#d41f14"/>
  <path id="Path_2285" data-name="Path 2285" d="M19.849,91.489a1.39,1.39,0,0,1,1.39,1.39,12.514,12.514,0,1,0,25.028,0,1.39,1.39,0,0,1,1.39-1.39,2.781,2.781,0,0,0,2.781-2.781V84.537a1.39,1.39,0,0,0-2.781,0,1.39,1.39,0,1,1-2.781,0c0-4.31-3.664-6.24-5-6.8a7.758,7.758,0,0,1-6.125,2.628,7.756,7.756,0,0,1-6.118-2.628c-1.343.56-5.006,2.489-5.006,6.8a1.39,1.39,0,0,1-2.781,0,1.39,1.39,0,0,0-2.781,0v4.171a2.78,2.78,0,0,0,2.78,2.781Zm7.508,4.449a1.39,1.39,0,0,1,1.947.278,5.562,5.562,0,0,0,8.9,0,1.39,1.39,0,0,1,2.225,1.669,8.343,8.343,0,0,1-13.348,0A1.39,1.39,0,0,1,27.358,95.939Z" transform="translate(-14.288 -65.071)" fill="#d41f14"/>
</svg>
