<svg xmlns="http://www.w3.org/2000/svg" width="63.355" height="77.409" viewBox="0 0 63.355 77.409">
  <g id="Group_34674" data-name="Group 34674" transform="translate(-9.079 -3.991)">
    <path id="Path_2272" data-name="Path 2272" d="M49.112,41.2A12.758,12.758,0,0,0,42.7,42.914a12.969,12.969,0,0,0-6.578,11.277c0,.29.014.58.028.871A12.992,12.992,0,1,0,49.112,41.2ZM41.939,56.237a1.469,1.469,0,0,1,.152-.124,17.544,17.544,0,0,0,3.787-3.151.828.828,0,0,0-1.645.138,1.377,1.377,0,0,1-1.382,1.382,1.358,1.358,0,0,1-1.175-.663V53.8a1.241,1.241,0,0,1-.207-.7,3.626,3.626,0,0,1,1.23-2.709.014.014,0,0,1,.014-.014v-.014a3.711,3.711,0,0,1,2.349-.857A3.6,3.6,0,0,1,48.656,53.1c0,.346,0,1.175-1.728,2.778h.346a1.382,1.382,0,0,1,0,2.764H42.851a1.364,1.364,0,0,1-1.313-.981,1.345,1.345,0,0,1,.4-1.423Zm13.033,2.571a1.368,1.368,0,0,1-.981-1.313V55.628H51.71a1.817,1.817,0,0,1-1.81-1.81V51a1.382,1.382,0,1,1,2.764,0v1.866H53.99V51a1.378,1.378,0,0,1,1.05-1.341,1.281,1.281,0,0,1,.332-.041A1.386,1.386,0,0,1,56.754,51v6.5a1.386,1.386,0,0,1-1.382,1.382.981.981,0,0,1-.4-.069Z" transform="translate(10.331 14.215)" fill="#d41f14"/>
    <path id="Path_2273" data-name="Path 2273" d="M43.687,68.406a15.7,15.7,0,0,1,6.426-12.687,15.186,15.186,0,0,1,2.861-1.672L42.1,48.809h0l-.98-2.418h0a17.907,17.907,0,0,0,9.812-12.051h3.179A3.285,3.285,0,0,0,57.4,31.064V25.812a3.284,3.284,0,0,0-3.082-3.275h0v-.154a18.392,18.392,0,0,0-36.783,0v.154h0a3.284,3.284,0,0,0-3.082,3.275v5.252a3.285,3.285,0,0,0,3.289,3.275h.29l.774,4.892a4.917,4.917,0,0,0,4.851,4.16,5.015,5.015,0,0,0,1.617-.263l.484-.166a15.291,15.291,0,0,0,4.975,3.427l0,0-.978,2.42L16.669,55.1a10.658,10.658,0,0,0-5.735,7.187L9.109,70.355a1.4,1.4,0,0,0,1.354,1.686H44.116a15.336,15.336,0,0,1-.415-2.764c0-.29-.014-.58-.014-.871ZM38.145,53.591,35.92,59.63,33.7,53.593a7.486,7.486,0,0,0,2.22.349h0a7.449,7.449,0,0,0,2.229-.354ZM35.92,6.768A15.616,15.616,0,0,1,51.548,22.382v.14h-.619c-2.059-7.643-8.016-13.1-15.009-13.1s-12.95,5.459-15.009,13.1h-.619v-.14A15.638,15.638,0,0,1,35.92,6.768ZM22.542,40.323a2.144,2.144,0,0,1-1.023-1.52l-.691-4.464h.083a20.41,20.41,0,0,0,2.9,6.274,2.065,2.065,0,0,1-1.271-.29Zm6.164,1.631,4.312-1.479a3.853,3.853,0,0,0,2.9,1.341,3.787,3.787,0,1,0-3.787-3.966l-5.542,1.907a17.441,17.441,0,0,1-3.234-7.076,19.8,19.8,0,0,1-.428-3.179,3.873,3.873,0,0,0,.553.041,4.793,4.793,0,0,0,4.644-3.69l.8-3.441a1.6,1.6,0,0,1,2.211-1.092,11.851,11.851,0,0,0,9.578-.014,1.623,1.623,0,0,1,2.2,1.106l.8,3.441a4.693,4.693,0,0,0,2.778,3.3,4.587,4.587,0,0,0,2.419.346,19.8,19.8,0,0,1-.428,3.179c-1.23,5.666-4.865,10.117-9.439,11.54a10.681,10.681,0,0,1-3.123.47,11.182,11.182,0,0,1-7.214-2.736Zm4.685,5.252a12.982,12.982,0,0,0,5.058,0l.012,0,.975,2.406a4.734,4.734,0,0,1-7.032.01L33.38,47.2Z" fill="#d41f14"/>
  </g>
</svg>
