<svg xmlns="http://www.w3.org/2000/svg" width="56" height="56" viewBox="0 0 56 56">
  <g id="Group_35233" data-name="Group 35233" transform="translate(-1604.265 -6869.266)">
    <circle id="Ellipse_1" data-name="Ellipse 1" cx="28" cy="28" r="28" transform="translate(1604.265 6869.266)" fill="#d41f14"/>
    <g id="Layer_4" transform="translate(1615.516 6888.891)">
      <path id="Path_620" data-name="Path 620" d="M38.186,28.69l-7.223-7.276A1.036,1.036,0,0,0,29.5,22.88l5.444,5.5H6.047a1.047,1.047,0,1,0,0,2.094H34.94l-5.5,5.444a1.012,1.012,0,0,0,0,1.466,1.012,1.012,0,0,0,1.466,0L38.133,30.1a.915.915,0,0,0,.052-1.413Z" transform="translate(-5 -21.1)" fill="#fff"/>
    </g>
  </g>
</svg>
