<svg xmlns="http://www.w3.org/2000/svg" width="80" height="80" viewBox="0 0 80 80">
  <g id="Group_35213" data-name="Group 35213" transform="translate(-557 -4153)">
    <circle id="Ellipse_23" data-name="Ellipse 23" cx="40" cy="40" r="40" transform="translate(557 4153)" fill="#d41f14"/>
    <g id="Group_35217" data-name="Group 35217" transform="translate(574 4169.27)">
      <path id="Path_2858" data-name="Path 2858" d="M46.681,7.972,38.916.2a.687.687,0,0,0-.972,0L36,2.145a1.6,1.6,0,0,0-.092,2.164L30.573,6.36a.689.689,0,0,0-.4.406l-2.106,5.781H2.518A2.522,2.522,0,0,0,0,15.064v29.3a2.522,2.522,0,0,0,2.518,2.518h29.3a2.522,2.522,0,0,0,2.518-2.518V18.819l5.781-2.111a.689.689,0,0,0,.406-.4l2.055-5.331a1.6,1.6,0,0,0,2.164-.092l1.938-1.943A.687.687,0,0,0,46.681,7.972Zm-20,9.61a1.589,1.589,0,0,0,.343.516l1.765,1.764a1.592,1.592,0,0,0,.515.344V41.848H5.036V17.583Zm6.285,26.784a1.146,1.146,0,0,1-1.145,1.145H2.518a1.146,1.146,0,0,1-1.145-1.145v-29.3A1.146,1.146,0,0,1,2.518,13.92H27.562l-.835,2.289H4.349a.687.687,0,0,0-.687.687V42.535a.687.687,0,0,0,.687.687H29.989a.687.687,0,0,0,.687-.687V20.158l2.289-.836Zm6.39-28.838L30,18.943a.228.228,0,0,1-.241-.053l-.4-.392,4.762-4.762a2.518,2.518,0,1,0-.972-.972L28.39,17.527l-.4-.4a.228.228,0,0,1-.053-.241l3.415-9.356,5.6-2.156L41.51,9.921Zm-4.813-4.8a1.14,1.14,0,1,1-.337.809A1.145,1.145,0,0,1,34.541,10.724Zm9.228-.809a.228.228,0,0,1-.323,0L36.97,3.44a.228.228,0,0,1,0-.323L38.427,1.66l6.8,6.8Z" transform="translate(0 0)" fill="#fff"/>
      <path id="Path_2859" data-name="Path 2859" d="M101.888,247.028a.689.689,0,0,0,.662.5h10.988a.689.689,0,0,0,.662-.5l1.831-6.593a.687.687,0,0,0-.943-.81l-4.035,1.808-2.414-4.095a.687.687,0,0,0-1.183,0l-2.417,4.095L101,239.625a.687.687,0,0,0-.943.81Zm3.145-4.09a.687.687,0,0,0,.873-.275l2.138-3.622,2.138,3.622a.688.688,0,0,0,.873.275l3.262-1.465-1.3,4.685h-9.944l-1.3-4.682Z" transform="translate(-90.876 -215.297)" fill="#fff"/>
      <path id="Path_2860" data-name="Path 2860" d="M131.675,367H120.687a.687.687,0,0,0-.687.687v1.831a1.6,1.6,0,0,0,1.6,1.6h9.157a1.6,1.6,0,0,0,1.6-1.6v-1.831A.687.687,0,0,0,131.675,367Zm-.687,2.518a.229.229,0,0,1-.229.229H121.6a.229.229,0,0,1-.229-.229v-1.145h9.615Z" transform="translate(-109.012 -333.393)" fill="#fff"/>
    </g>
  </g>
</svg>
