<svg xmlns="http://www.w3.org/2000/svg" width="80" height="80" viewBox="0 0 80 80">
  <g id="Group_35213" data-name="Group 35213" transform="translate(-557 -4153)">
    <circle id="Ellipse_23" data-name="Ellipse 23" cx="40" cy="40" r="40" transform="translate(557 4153)" fill="#d41f14"/>
    <path id="Path_2856" data-name="Path 2856" d="M42.208,5.094h.728a.728.728,0,0,0,.728-.728V1.455a.728.728,0,0,0-.728-.728H40.025a.728.728,0,0,0-.728.728v.728H24.743V.728A.728.728,0,0,0,24.015,0H19.649a.728.728,0,0,0-.728.728V2.183H4.366V1.455A.728.728,0,0,0,3.639.728H.728A.728.728,0,0,0,0,1.455V4.366a.728.728,0,0,0,.728.728h.728V39.3H.728A.728.728,0,0,0,0,40.025v2.911a.728.728,0,0,0,.728.728H3.639a.728.728,0,0,0,.728-.728v-.728H18.921v1.455a.728.728,0,0,0,.728.728h4.366a.728.728,0,0,0,.728-.728V42.208H39.3v.728a.728.728,0,0,0,.728.728h2.911a.728.728,0,0,0,.728-.728V40.025a.728.728,0,0,0-.728-.728h-.728V5.094ZM40.752,2.183h1.455V3.639H40.752ZM20.376,1.455h2.911V4.366H20.376V1.455ZM1.455,2.183H2.911V3.639H1.455ZM2.911,5.094h.728a.728.728,0,0,0,.728-.728V3.639h9.821A20.159,20.159,0,0,0,2.911,14.751Zm0,37.114H1.455V40.752H2.911ZM3.639,39.3H2.911V29.64A20.159,20.159,0,0,0,14.187,40.752H4.366v-.728a.728.728,0,0,0-.728-.728ZM17.647,17.381l2.577,7.043a2.639,2.639,0,1,0,1.367-.5l-2.578-7.047,10.02,7.963a5.678,5.678,0,0,0-.87,5.334l.843,2.308L20.2,35.7l-.845-2.311a5.6,5.6,0,0,0-4.224-3.484Zm5.239,8.757a1.181,1.181,0,1,1-1.113-.778A1.189,1.189,0,0,1,22.886,26.138ZM20.7,37.071l8.805-3.222,1.64,4.484c-.041.023-.081.047-.122.068q-.636.349-1.292.648l-.169.075-.087.037c-.44.192-.886.369-1.34.527l-.014.005c-.07.025-.141.047-.212.071q-.664.222-1.343.392c-.1.025-.193.049-.29.071-.483.114-.972.211-1.466.287l-.072.009V39.3a.728.728,0,0,0-.728-.728H21.25Zm2.586,5.865H20.376V40.025h2.911v2.911Zm18.921-.728H40.752V40.752h1.455ZM40.752,29.671V39.3h-.728a.728.728,0,0,0-.728.728v.728H29.466l.039-.017c.436-.175.865-.37,1.289-.576.111-.054.221-.108.332-.164.436-.221.868-.453,1.292-.707h0c.438-.261.859-.54,1.272-.829.132-.092.258-.188.386-.283.282-.207.559-.419.828-.639.136-.111.271-.223.4-.338.266-.228.522-.463.774-.7.11-.1.223-.207.33-.314.347-.347.684-.7,1-1.071.031-.035.057-.073.087-.108q.431-.506.826-1.038c.094-.127.182-.256.273-.384q.293-.414.563-.841c.09-.143.179-.285.265-.429q.269-.451.511-.915c.065-.124.135-.246.2-.371.216-.434.419-.874.6-1.323a.217.217,0,0,1,.011-.028Zm-8.338,7.891-2.883-7.887a4.319,4.319,0,0,1,1.07-4.457.728.728,0,0,0-.086-1.06l-12.44-9.886a3.029,3.029,0,0,1,.344-2.552c.794-1.009,2.638-1.378,5.331-1.076s4.577-.1,5.579-1.218a2.943,2.943,0,0,0,.693-2.481L28.6,7.261a1.506,1.506,0,0,1-.354,1.193c-.651.723-2.191.985-4.334.745-3.269-.373-5.5.175-6.639,1.622a4.488,4.488,0,0,0-.582,3.922L13.557,30.364a.727.727,0,0,0,.636.867,4.276,4.276,0,0,1,3.8,2.664L19.7,38.569h-.051a.728.728,0,0,0-.728.728v1.231A18.629,18.629,0,0,1,2.911,22.2,18.629,18.629,0,0,1,18.921,3.863V5.094a.728.728,0,0,0,.728.728h4.366a.728.728,0,0,0,.728-.728V3.863A18.629,18.629,0,0,1,40.752,22.2a18.3,18.3,0,0,1-8.338,15.367ZM29.476,3.639H39.3v.728a.728.728,0,0,0,.728.728h.728v9.657A20.159,20.159,0,0,0,29.476,3.639Z" transform="translate(575.558 4170.517)" fill="#fff"/>
  </g>
</svg>
