<svg xmlns="http://www.w3.org/2000/svg" width="80" height="80" viewBox="0 0 80 80">
  <g id="Group_35213" data-name="Group 35213" transform="translate(-557 -4153)">
    <circle id="Ellipse_23" data-name="Ellipse 23" cx="40" cy="40" r="40" transform="translate(557 4153)" fill="#d41f14"/>
    <g id="Group_35216" data-name="Group 35216" transform="translate(575 4171)">
      <path id="Path_2857" data-name="Path 2857" d="M22.221,38.094A15.873,15.873,0,1,0,6.348,22.221,15.891,15.891,0,0,0,22.221,38.094Zm0-30.444A14.571,14.571,0,1,1,7.65,22.221,14.588,14.588,0,0,1,22.221,7.65ZM41.882,39.321a2.565,2.565,0,0,0-2.477,1.91H35.571a.651.651,0,0,0,0,1.3h3.834a2.561,2.561,0,1,0,2.477-3.212Zm0,3.819a1.259,1.259,0,1,1,1.259-1.259A1.26,1.26,0,0,1,41.882,43.14ZM23.927,25.7c1.819,0,3.09-1.429,3.09-3.476a.651.651,0,0,0-.651-.651h-1.69a.651.651,0,0,0,0,1.3h.972a1.719,1.719,0,0,1-1.72,1.523,2.174,2.174,0,1,1,1.215-3.977.651.651,0,0,0,.729-1.079A3.476,3.476,0,1,0,23.927,25.7Zm7.241,0a3.476,3.476,0,1,0-3.476-3.476A3.48,3.48,0,0,0,31.168,25.7Zm0-5.65a2.174,2.174,0,1,1-2.174,2.174,2.176,2.176,0,0,1,2.174-2.174ZM16.3,25.7a3.476,3.476,0,1,0-3.476-3.476A3.48,3.48,0,0,0,16.3,25.7Zm0-5.65a2.174,2.174,0,1,1-2.174,2.174A2.176,2.176,0,0,1,16.3,20.047ZM32.533,41.231H29.387a20.319,20.319,0,0,0,0-38.019H39.405a2.561,2.561,0,1,0,0-1.3H24.782V1.085A1.086,1.086,0,0,0,23.7,0H20.746A1.086,1.086,0,0,0,19.66,1.085V1.91H5.037a2.561,2.561,0,1,0,0,1.3H15.052a20.259,20.259,0,0,0-5.559,3.18.651.651,0,1,0,.816,1.014A18.9,18.9,0,0,1,19.66,3.383v.653a1.086,1.086,0,0,0,1.085,1.085H23.7a1.086,1.086,0,0,0,1.085-1.085V3.384a19.01,19.01,0,0,1,0,37.674v-.652A1.086,1.086,0,0,0,23.7,39.321H20.746a1.086,1.086,0,0,0-1.085,1.085v.652A19.01,19.01,0,0,1,8.194,9.391a.651.651,0,1,0-.96-.879,20.319,20.319,0,0,0,7.822,32.718H5.037a2.561,2.561,0,1,0,0,1.3H19.66v.825a1.086,1.086,0,0,0,1.085,1.085H23.7a1.086,1.086,0,0,0,1.085-1.085v-.825h7.751a.651.651,0,0,0,0-1.3ZM41.882,1.3a1.259,1.259,0,1,1-1.259,1.259A1.26,1.26,0,0,1,41.882,1.3ZM2.561,3.819A1.259,1.259,0,1,1,3.819,2.561,1.26,1.26,0,0,1,2.561,3.819Zm20.919,0H20.963V1.3H23.48ZM2.561,43.14a1.259,1.259,0,1,1,1.259-1.259A1.26,1.26,0,0,1,2.561,43.14Zm20.919,0H20.963V40.623H23.48ZM10.339,25.683a5.291,5.291,0,0,0,.71.015c.3,0,.74,0,1.382-.005a.651.651,0,0,0,0-1.3h0c-.458,0-.95,0-1.324,0v-5a.651.651,0,0,0-1.3,0v5.645a.651.651,0,0,0,.54.642Z" transform="translate(0 0)" fill="#fff"/>
    </g>
  </g>
</svg>
